<svg xmlns="http://www.w3.org/2000/svg" width="30" height="25" fill="none" viewBox="0 0 30 25"><path stroke="#7A7A7A" stroke-miterlimit="10" stroke-width=".6" d="M24.2 10.7h2.2c1.2 0 2.2.909 2.2 2s-1 2-2.2 2h-2.2M5.8 14.7H3.6c-1.2 0-2.2-.91-2.2-2 0-1.091 1-2 2.2-2h2.1"/><path stroke="#7A7A7A" stroke-linecap="round" stroke-linejoin="round" stroke-width=".5" d="M19.3 12.5c0-2.4-1.9-4.3-4.3-4.3s-4.3 1.9-4.3 4.3 1.9 4.3 4.3 4.3 4.3-1.9 4.3-4.3M16.2 9.5l.4-1M18 11.3l1-.4M18 13.8l1 .4M16.2 15.6l.4.9M13.7 15.6l-.4.9M11.9 13.8l-.9.4M11.9 11.3l-.8-.4M13.7 9.5l-.4-.9"/><path stroke="#7A7A7A" stroke-linecap="round" stroke-linejoin="round" stroke-width=".5" d="M13.7 9.5 15 8.2l1.2 1.3M11.9 11.3V9.5h1.8M12.1 13.8l-1.3-1.3 1.3-1.2M13.7 15.6l-1.7-.1-.1-1.7M16.2 15.6 15 16.8l-1.3-1.2M18 13.8v1.8h-1.8M18 11.3l1.3 1.2-1.3 1.3M16.2 9.5H18v1.8"/><path stroke="#7A7A7A" stroke-linecap="round" stroke-linejoin="round" stroke-width=".5" d="m16.8 10.7 1.2.6-.5 1.2M17.5 12.5l.5 1.3-1.2.5M16.8 14.3l-.6 1.3L15 15M15 15l-1.3.6-.5-1.3M13.2 14.3l-1.3-.5.5-1.3M12.4 12.5l-.5-1.2 1.3-.6M13.2 10.7l.5-1.2 1.3.5M15 10l1.2-.5.6 1.2"/><path stroke="#7A7A7A" stroke-linecap="round" stroke-linejoin="round" stroke-width=".5" d="m15 10-1.8.7-.8 1.8.8 1.8 1.8.7 1.8-.7.7-1.8-.7-1.8z"/><path stroke="#7A7A7A" stroke-linecap="round" stroke-linejoin="round" stroke-width=".4" d="M10.7 12.5c0-1.6-1.3-3-3-3s-3 1.3-3 3 1.3 3 3 3 3-1.3 3-3M8.6 10.4l.2-.6M9.8 11.7l.7-.3M9.8 13.4l.7.3M8.6 14.6l.2.6M6.8 14.6l-.2.6M5.6 13.4l-.6.2M5.6 11.7l-.6-.3M6.8 10.4l-.2-.6"/><path stroke="#7A7A7A" stroke-linecap="round" stroke-linejoin="round" stroke-width=".4" d="m6.8 10.4.9-.9.9.9M5.6 11.7v-1.3h1.2M5.7 13.4l-.9-.9.9-.8M6.8 14.6l-1.2-.1v-1.1M8.6 14.6l-.9.9-.9-.9M9.8 13.4v1.2H8.6M9.8 11.7l.9.8-.9.9M8.6 10.4h1.2v1.3"/><path stroke="#7A7A7A" stroke-linecap="round" stroke-linejoin="round" stroke-width=".4" d="m8.9 11.3.9.4-.3.8"/><path stroke="#7A7A7A" stroke-linecap="round" stroke-linejoin="round" stroke-width=".4" d="m9.5 12.5.3.9-.9.3M8.9 13.7l-.3.9-.9-.4"/><path stroke="#7A7A7A" stroke-linecap="round" stroke-linejoin="round" stroke-width=".4" d="m7.7 14.2-.9.4-.3-.9M6.5 13.7l-.9-.3.3-.9"/><path stroke="#7A7A7A" stroke-linecap="round" stroke-linejoin="round" stroke-width=".4" d="m5.9 12.5-.3-.8.9-.4"/><path stroke="#7A7A7A" stroke-linecap="round" stroke-linejoin="round" stroke-width=".4" d="m6.5 11.3.3-.9.9.4M7.7 10.8l.9-.4.3.9"/><path stroke="#7A7A7A" stroke-linecap="round" stroke-linejoin="round" stroke-width=".4" d="m7.7 10.8-1.2.5-.6 1.2.6 1.2 1.2.5 1.2-.5.6-1.2-.6-1.2zM25.2 12.5c0-1.6-1.3-3-3-3-1.6 0-3 1.3-3 3s1.3 3 3 3 3-1.3 3-3M23.1 10.4l.3-.6M24.3 11.7l.7-.3M24.3 13.4l.7.3M23.1 14.6l.3.6M21.4 14.6l-.3.6M20.2 13.4l-.6.2M20.2 11.7l-.6-.3M21.4 10.4l-.3-.6"/><path stroke="#7A7A7A" stroke-linecap="round" stroke-linejoin="round" stroke-width=".4" d="m21.4 10.4.9-.9.8.9M20.2 11.7v-1.3h1.2M20.3 13.4l-.9-.9.9-.8M21.4 14.6l-1.2-.1v-1.1M23.1 14.6l-.8.9-.9-.9M24.3 13.4v1.2h-1.2M24.3 11.7l.9.8-.9.9M23.1 10.4h1.2v1.3"/><path stroke="#7A7A7A" stroke-linecap="round" stroke-linejoin="round" stroke-width=".4" d="m23.5 11.3.8.4-.3.8"/><path stroke="#7A7A7A" stroke-linecap="round" stroke-linejoin="round" stroke-width=".4" d="m24 12.5.3.9-.8.3M23.5 13.7l-.4.9-.8-.4M22.3 14.2l-.9.4-.3-.9M21.1 13.7l-.9-.3.3-.9M20.5 12.5l-.3-.8.9-.4M21.1 11.3l.3-.9.9.4M22.3 10.8l.8-.4.4.9"/><path stroke="#7A7A7A" stroke-linecap="round" stroke-linejoin="round" stroke-width=".4" d="m22.3 10.8-1.2.5-.6 1.2.6 1.2 1.2.5 1.2-.5.5-1.2-.5-1.2z"/></svg>