<svg xmlns="http://www.w3.org/2000/svg" width="30" height="25" fill="none" viewBox="0 0 30 25"><path stroke="#7A7A7A" stroke-miterlimit="10" stroke-width=".6" d="M7.9 14.5H3.6c-1.2 0-2.2-.9-2.2-2s1-2 2.2-2h4.3M22.1 10.5h4.3c1.2 0 2.2.9 2.2 2s-1 2-2.2 2h-4.3"/><path fill="#fff" stroke="#7A7A7A" stroke-miterlimit="10" stroke-width=".3" d="M15 16.9a4.4 4.4 0 1 0 0-8.8 4.4 4.4 0 0 0 0 8.8Z"/><path fill="#fff" stroke="#7A7A7A" stroke-miterlimit="10" stroke-width=".3" d="M15 15.4a2.9 2.9 0 1 0 0-5.8 2.9 2.9 0 0 0 0 5.8Z"/><path stroke="#7A7A7A" stroke-miterlimit="10" stroke-width=".3" d="M14 9.7a.7.7 0 1 0 0-1.4.7.7 0 0 0 0 1.4ZM12.5 10.6a.7.7 0 1 0 0-1.4.7.7 0 0 0 0 1.4ZM11.5 12.1a.7.7 0 1 0 0-1.4.7.7 0 0 0 0 1.4ZM11.4 13.9a.7.7 0 1 0 0-1.4.7.7 0 0 0 0 1.4ZM12.1 15.4a.7.7 0 1 0 0-1.4.7.7 0 0 0 0 1.4ZM13.4 16.5a.7.7 0 1 0 0-1.4.7.7 0 0 0 0 1.4ZM15.1 16.8a.7.7 0 1 0 0-1.4.7.7 0 0 0 0 1.4ZM16.7 16.4a.7.7 0 1 0 0-1.4.7.7 0 0 0 0 1.4Z"/><path stroke="#7A7A7A" stroke-miterlimit="10" stroke-width=".3" d="M16.7 16.4a.7.7 0 1 0 0-1.4.7.7 0 0 0 0 1.4ZM18 15.3a.7.7 0 1 0 0-1.4.7.7 0 0 0 0 1.4Z"/><path stroke="#7A7A7A" stroke-miterlimit="10" stroke-width=".3" d="M18 15.3a.7.7 0 1 0 0-1.4.7.7 0 0 0 0 1.4ZM18.4 11.9a.7.7 0 1 0 0-1.4.7.7 0 0 0 0 1.4Z"/><path stroke="#7A7A7A" stroke-miterlimit="10" stroke-width=".3" d="M18.4 11.9a.7.7 0 1 0 0-1.4.7.7 0 0 0 0 1.4ZM17.3 10.4a.7.7 0 1 0 0-1.4.7.7 0 0 0 0 1.4ZM15.7 9.7a.7.7 0 1 0 0-1.4.7.7 0 0 0 0 1.4ZM18.6 13.6a.7.7 0 1 0 0-1.4.7.7 0 0 0 0 1.4Z"/><path fill="#fff" stroke="#7A7A7A" stroke-miterlimit="10" stroke-width=".2" d="M22.3 15.3a2.8 2.8 0 1 0 0-5.6 2.8 2.8 0 0 0 0 5.6Z"/><path fill="#fff" stroke="#7A7A7A" stroke-miterlimit="10" stroke-width=".2" d="M22.3 14.3a1.8 1.8 0 1 0 0-3.6 1.8 1.8 0 0 0 0 3.6Z"/><path stroke="#7A7A7A" stroke-miterlimit="10" stroke-width=".2" d="M21.6 10.8a.5.5 0 1 0 0-1 .5.5 0 0 0 0 1ZM20.7 11.4a.5.5 0 1 0 0-1 .5.5 0 0 0 0 1ZM20.1 12.3a.5.5 0 1 0 0-1 .5.5 0 0 0 0 1ZM20 13.4a.5.5 0 1 0 0-1 .5.5 0 0 0 0 1ZM20.5 14.4a.5.5 0 1 0 0-1 .5.5 0 0 0 0 1Z"/><path stroke="#7A7A7A" stroke-miterlimit="10" stroke-width=".2" d="M21.3 15.1a.5.5 0 1 0 0-1 .5.5 0 0 0 0 1Z"/><path stroke="#7A7A7A" stroke-miterlimit="10" stroke-width=".2" d="M22.3 15.3a.5.5 0 1 0 0-1 .5.5 0 0 0 0 1ZM23.4 15.1a.5.5 0 1 0 0-1 .5.5 0 0 0 0 1Z"/><path stroke="#7A7A7A" stroke-miterlimit="10" stroke-width=".2" d="M23.4 15.1a.5.5 0 1 0 0-1 .5.5 0 0 0 0 1ZM24.2 14.3a.5.5 0 1 0 0-1 .5.5 0 0 0 0 1Z"/><path stroke="#7A7A7A" stroke-miterlimit="10" stroke-width=".2" d="M24.2 14.3a.5.5 0 1 0 0-1 .5.5 0 0 0 0 1ZM24.5 12.2a.5.5 0 1 0 0-1 .5.5 0 0 0 0 1Z"/><path stroke="#7A7A7A" stroke-miterlimit="10" stroke-width=".2" d="M24.5 12.2a.5.5 0 1 0 0-1 .5.5 0 0 0 0 1ZM23.8 11.2a.5.5 0 1 0 0-1 .5.5 0 0 0 0 1Z"/><path stroke="#7A7A7A" stroke-miterlimit="10" stroke-width=".2" d="M22.8 10.7a.5.5 0 1 0 0-1 .5.5 0 0 0 0 1ZM24.6 13.3a.5.5 0 1 0 0-1 .5.5 0 0 0 0 1Z"/><path fill="#fff" stroke="#7A7A7A" stroke-miterlimit="10" stroke-width=".2" d="M7.7 15.3a2.8 2.8 0 1 0 0-5.6 2.8 2.8 0 0 0 0 5.6Z"/><path fill="#fff" stroke="#7A7A7A" stroke-miterlimit="10" stroke-width=".2" d="M7.7 14.3a1.8 1.8 0 1 0 0-3.6 1.8 1.8 0 0 0 0 3.6Z"/><path stroke="#7A7A7A" stroke-miterlimit="10" stroke-width=".2" d="M7 10.8a.5.5 0 1 0 0-1 .5.5 0 0 0 0 1ZM6.1 11.4a.5.5 0 1 0 0-1 .5.5 0 0 0 0 1ZM5.5 12.3a.5.5 0 1 0 0-1 .5.5 0 0 0 0 1ZM5.4 13.4a.5.5 0 1 0 0-1 .5.5 0 0 0 0 1ZM5.9 14.4a.5.5 0 1 0 0-1 .5.5 0 0 0 0 1Z"/><path stroke="#7A7A7A" stroke-miterlimit="10" stroke-width=".2" d="M6.7 15.1a.5.5 0 1 0 0-1 .5.5 0 0 0 0 1ZM7.8 15.3a.5.5 0 1 0 0-1 .5.5 0 0 0 0 1Z"/><path stroke="#7A7A7A" stroke-miterlimit="10" stroke-width=".2" d="M8.8 15.1a.5.5 0 1 0 0-1 .5.5 0 0 0 0 1Z"/><path stroke="#7A7A7A" stroke-miterlimit="10" stroke-width=".2" d="M8.8 15.1a.5.5 0 1 0 0-1 .5.5 0 0 0 0 1ZM9.6 14.3a.5.5 0 1 0 0-1 .5.5 0 0 0 0 1Z"/><path stroke="#7A7A7A" stroke-miterlimit="10" stroke-width=".2" d="M9.6 14.3a.5.5 0 1 0 0-1 .5.5 0 0 0 0 1ZM9.9 12.2a.5.5 0 1 0 0-1 .5.5 0 0 0 0 1Z"/><path stroke="#7A7A7A" stroke-miterlimit="10" stroke-width=".2" d="M9.9 12.2a.5.5 0 1 0 0-1 .5.5 0 0 0 0 1ZM9.2 11.2a.5.5 0 1 0 0-1 .5.5 0 0 0 0 1Z"/><path stroke="#7A7A7A" stroke-miterlimit="10" stroke-width=".2" d="M8.2 10.7a.5.5 0 1 0 0-1 .5.5 0 0 0 0 1ZM10 13.3a.5.5 0 1 0 0-1 .5.5 0 0 0 0 1Z"/></svg>