<svg xmlns="http://www.w3.org/2000/svg" width="30" height="30" fill="none" viewBox="0 0 30 30"><path stroke="#7A7A7A" stroke-miterlimit="10" stroke-width=".6" d="M17.35 18.62c.95.18 1.87-.44 2.06-1.39.18-.95-.44-1.87-1.39-2.06-.95-.18-1.87.44-2.06 1.39-.19.96.44 1.88 1.39 2.06ZM12.16 18.62c.95.18 1.87-.44 2.06-1.39.18-.95-.44-1.87-1.39-2.06-.95-.18-1.87.44-2.06 1.39-.18.96.44 1.88 1.39 2.06ZM9.5 17.37a.8.8 0 0 0 .94-.64.8.8 0 0 0-.64-.94.8.8 0 0 0-.94.64c-.08.43.21.85.64.94ZM7.89 17.21a.8.8 0 0 0 .94-.64.8.8 0 0 0-.64-.94.8.8 0 0 0-.94.64c-.09.43.2.86.64.94ZM6.27 16.88a.8.8 0 0 0 .94-.64.8.8 0 0 0-.64-.94.8.8 0 0 0-.94.64c-.08.44.21.86.64.94ZM4.66 16.4a.8.8 0 0 0 .94-.64.8.8 0 0 0-.64-.94.8.8 0 0 0-.94.64.8.8 0 0 0 .64.94Z"/><path stroke="#7A7A7A" stroke-miterlimit="10" stroke-width=".6" d="M3.46 15.34a.8.8 0 0 0 .94-.64.8.8 0 0 0-.64-.94.8.8 0 0 0-.94.64c-.08.43.2.85.64.94ZM4.66 14.07a.8.8 0 0 0 .94-.64.8.8 0 0 0-.64-.94.8.8 0 0 0-.94.64.8.8 0 0 0 .64.94ZM6.42 13.41a.8.8 0 0 0 .94-.64.8.8 0 0 0-.64-.94.8.8 0 0 0-.94.64c-.09.44.2.86.64.94ZM8.26 12.93a.8.8 0 0 0 .94-.64c.09-.44-.2-.86-.64-.94-.44-.09-.86.2-.94.64-.09.43.2.86.64.94ZM10.14 12.71a.8.8 0 0 0 .94-.64.8.8 0 0 0-.64-.94.805.805 0 0 0-.3 1.58ZM21.08 16.42a.805.805 0 0 0-1.58.3c.08.44.51.72.94.64.44-.08.73-.5.64-.94ZM22.7 16.27a.805.805 0 0 0-1.58.3c.08.44.51.72.94.64s.72-.51.64-.94ZM24.31 15.94a.805.805 0 0 0-1.58.3c.08.44.51.72.94.64.44-.08.73-.5.64-.94ZM25.93 15.46a.805.805 0 0 0-1.58.3c.08.44.51.72.94.64s.72-.5.64-.94Z"/><path stroke="#7A7A7A" stroke-miterlimit="10" stroke-width=".6" d="M27.18 14.39a.805.805 0 0 0-1.58.3.805.805 0 0 0 1.58-.3ZM25.93 13.13a.805.805 0 0 0-1.58.3c.08.44.51.72.94.64s.72-.5.64-.94ZM24.17 12.47a.805.805 0 0 0-1.58.3c.08.44.51.72.94.64s.72-.5.64-.94ZM22.33 11.99a.805.805 0 0 0-1.58.3.805.805 0 0 0 1.58-.3ZM20.45 11.77a.805.805 0 0 0-1.58.3c.08.44.51.72.94.64s.72-.51.64-.94ZM18.74 11.66a.805.805 0 0 0-1.58.3c.08.44.51.72.94.64s.72-.5.64-.94ZM12.03 12.6a.8.8 0 0 0 .94-.64.8.8 0 0 0-.64-.94.8.8 0 0 0-.94.64.8.8 0 0 0 .64.94ZM13.99 12.46a.8.8 0 0 0 .94-.64.8.8 0 0 0-.64-.94.8.8 0 0 0-.94.64c-.08.43.2.85.64.94ZM15.89 12.46a.8.8 0 0 0 .94-.64.8.8 0 0 0-.64-.94.8.8 0 0 0-.94.64c-.08.43.2.85.64.94Z"/></svg>