<svg xmlns="http://www.w3.org/2000/svg" width="30" height="30" fill="none" viewBox="0 0 30 30"><g clip-path="url(#a)"><path stroke="#7A7A7A" stroke-miterlimit="10" stroke-width=".6" d="M15.078 23.918a1.01 1.01 0 1 0 0-2.018 1.01 1.01 0 0 0 0 2.018Z"/><path fill="#7A7A7A" d="M14.999 27.716a1.7 1.7 0 1 0 0-3.401 1.7 1.7 0 0 0 0 3.401"/><path stroke="#7A7A7A" stroke-miterlimit="10" stroke-width=".6" d="M12.89 23.76a1.01 1.01 0 1 0 0-2.02 1.01 1.01 0 0 0 0 2.02Z"/><path stroke="#7A7A7A" stroke-miterlimit="10" stroke-width=".6" d="M10.86 23.09a1.01 1.01 0 1 0 0-2.018 1.01 1.01 0 0 0 0 2.018Z"/><path stroke="#7A7A7A" stroke-miterlimit="10" stroke-width=".6" d="M9.136 21.888a1.01 1.01 0 1 0 0-2.018 1.01 1.01 0 0 0 0 2.018Z"/><path stroke="#7A7A7A" stroke-miterlimit="10" stroke-width=".6" d="M7.617 20.528a1.01 1.01 0 1 0 0-2.019 1.01 1.01 0 0 0 0 2.019Z"/><path stroke="#7A7A7A" stroke-miterlimit="10" stroke-width=".6" d="M6.495 18.838a1.01 1.01 0 1 0 0-2.018 1.01 1.01 0 0 0 0 2.018Z"/><path stroke="#7A7A7A" stroke-miterlimit="10" stroke-width=".6" d="M5.7 16.945a1.01 1.01 0 1 0 0-2.019 1.01 1.01 0 0 0 0 2.019Z"/><path stroke="#7A7A7A" stroke-miterlimit="10" stroke-width=".6" d="M5.35 14.915a1.01 1.01 0 1 0 0-2.018 1.01 1.01 0 0 0 0 2.018Z"/><path stroke="#7A7A7A" stroke-miterlimit="10" stroke-width=".6" d="M5.35 12.897a1.01 1.01 0 1 0 0-2.019 1.01 1.01 0 0 0 0 2.019ZM5.87 10.867a1.01 1.01 0 1 0 0-2.018 1.01 1.01 0 0 0 0 2.018Z"/><path stroke="#7A7A7A" stroke-miterlimit="10" stroke-width=".6" d="M6.891 9.042a1.01 1.01 0 1 0 0-2.019 1.01 1.01 0 0 0 0 2.019ZM8.263 7.363a1.01 1.01 0 1 0 0-2.018 1.01 1.01 0 0 0 0 2.018ZM9.93 6.173a1.01 1.01 0 1 0 0-2.018 1.01 1.01 0 0 0 0 2.018ZM11.744 5.152a1.01 1.01 0 1 0 0-2.018 1.01 1.01 0 0 0 0 2.018Z"/><path stroke="#7A7A7A" stroke-miterlimit="10" stroke-width=".6" d="M13.774 4.778a1.01 1.01 0 1 0 0-2.018 1.01 1.01 0 0 0 0 2.018Z"/><path stroke="#7A7A7A" stroke-miterlimit="10" stroke-width=".6" d="M15.792 4.653a1.01 1.01 0 1 0 0-2.018 1.01 1.01 0 0 0 0 2.018Z"/><path stroke="#7A7A7A" stroke-miterlimit="10" stroke-width=".6" d="M17.822 5.152a1.01 1.01 0 1 0 0-2.018 1.01 1.01 0 0 0 0 2.018Z"/><path stroke="#7A7A7A" stroke-miterlimit="10" stroke-width=".6" d="M19.738 5.98a1.01 1.01 0 1 0 0-2.018 1.01 1.01 0 0 0 0 2.018Z"/><path stroke="#7A7A7A" stroke-miterlimit="10" stroke-width=".6" d="M21.428 7.182a1.01 1.01 0 1 0 0-2.018 1.01 1.01 0 0 0 0 2.018Z"/><path stroke="#7A7A7A" stroke-miterlimit="10" stroke-width=".6" d="M22.732 8.837a1.01 1.01 0 1 0 0-2.018 1.01 1.01 0 0 0 0 2.018Z"/><path stroke="#7A7A7A" stroke-miterlimit="10" stroke-width=".6" d="M23.865 10.629a1.01 1.01 0 1 0 0-2.018 1.01 1.01 0 0 0 0 2.018Z"/><path stroke="#7A7A7A" stroke-miterlimit="10" stroke-width=".6" d="M24.432 12.647a1.01 1.01 0 1 0 0-2.018 1.01 1.01 0 0 0 0 2.018Z"/><path stroke="#7A7A7A" stroke-miterlimit="10" stroke-width=".6" d="M24.591 14.677a1.01 1.01 0 1 0 0-2.018 1.01 1.01 0 0 0 0 2.018Z"/><path stroke="#7A7A7A" stroke-miterlimit="10" stroke-width=".6" d="M24.319 16.695a1.01 1.01 0 1 0 0-2.018 1.01 1.01 0 0 0 0 2.018ZM23.582 18.645a1.01 1.01 0 1 0 0-2.018 1.01 1.01 0 0 0 0 2.018ZM22.437 20.392a1.01 1.01 0 1 0 0-2.019 1.01 1.01 0 0 0 0 2.018ZM20.895 21.888a1.01 1.01 0 1 0 0-2.018 1.01 1.01 0 0 0 0 2.018Z"/><path stroke="#7A7A7A" stroke-miterlimit="10" stroke-width=".6" d="M19.16 22.909a1.01 1.01 0 1 0 0-2.019 1.01 1.01 0 0 0 0 2.019Z"/><path stroke="#7A7A7A" stroke-miterlimit="10" stroke-width=".6" d="M17.266 23.544a1.01 1.01 0 1 0 0-2.019 1.01 1.01 0 0 0 0 2.019Z"/><path stroke="#7A7A7A" stroke-linecap="round" stroke-miterlimit="10" stroke-width=".5" d="M14.999 24.1v1.428"/></g><defs><clipPath id="a"><path fill="#fff" d="M4 2.295h21.94v25.41H4z"/></clipPath></defs></svg>