<svg xmlns="http://www.w3.org/2000/svg" width="30" height="25" fill="none" viewBox="0 0 30 25"><path fill="#7A7A7A" stroke="#7A7A7A" stroke-width=".1" d="M14.947 17.694c-2.972 0-5.39-2.398-5.39-5.347C9.557 9.4 11.975 7 14.947 7s5.39 2.399 5.39 5.347-2.418 5.347-5.39 5.347Zm0-10.482c-2.854 0-5.177 2.304-5.177 5.135s2.323 5.135 5.177 5.135 5.176-2.303 5.176-5.135-2.322-5.135-5.176-5.135Z"/><path fill="#7A7A7A" stroke="#7A7A7A" stroke-width=".1" d="M14.947 16.921c-2.542 0-4.611-2.051-4.611-4.574s2.068-4.574 4.61-4.574c2.544 0 4.612 2.052 4.612 4.574 0 2.523-2.068 4.574-4.611 4.574Zm0-8.858c-2.381 0-4.319 1.922-4.319 4.284s1.937 4.284 4.319 4.284 4.318-1.921 4.318-4.284-1.937-4.284-4.318-4.284Z"/><path fill="#7A7A7A" d="M18.18 15.554h-6.466V9.14h6.465zm-6.173-.29h5.88V9.43h-5.88z"/><path fill="#7A7A7A" d="m14.947 16.882-4.572-4.535 4.572-4.535 4.57 4.535zm-4.158-4.535 4.158 4.125 4.157-4.125-4.157-4.124z"/><path fill="#7A7A7A" stroke="#7A7A7A" stroke-width=".1" d="M26.655 11.186h-3.597a.77.77 0 0 0-.787.002v-.002h-.34a1.206 1.206 0 0 0-2.035-.532.09.09 0 0 0-.021.095c.187.548.28 1.124.276 1.711q0 .046.037.075a.1.1 0 0 0-.039.072 5.2 5.2 0 0 1-.265 1.47.09.09 0 0 0 .03.102.977.977 0 0 0 1.588-.572h.059a.849.849 0 0 0 1.573 0h3.52c.674 0 1.221-.543 1.221-1.211s-.547-1.211-1.22-1.211zm-3.972.08a.573.573 0 0 1 .559.586.574.574 0 0 1-.591.555.573.573 0 0 1-.56-.586.574.574 0 0 1 .591-.555Zm-.623.11a.8.8 0 0 0-.09.15v-.008a1 1 0 0 0-.005-.141h.095Zm-1.54 2.842a.8.8 0 0 1-.435-.144c.145-.45.229-.918.251-1.393a.8.8 0 0 1 .181-.027.095.095 0 0 0 .092-.084.094.094 0 0 0-.074-.1 1 1 0 0 1-.194-.067 5.4 5.4 0 0 0-.267-1.658c.195-.179.453-.276.718-.269a1.008 1.008 0 0 1-.029 2.018.094.094 0 0 0-.094.082.093.093 0 0 0 .07.103.78.78 0 0 1 .59.778.787.787 0 0 1-.81.761Zm.98-.968a.96.96 0 0 0-.404-.613c.38-.106.681-.39.808-.76.013.241.14.454.33.583a.845.845 0 0 0-.733.79Zm.83.699a.66.66 0 0 1-.642-.673.66.66 0 0 1 .677-.636c.364.01.652.311.642.672a.66.66 0 0 1-.678.637Zm4.325-.528h-3.469a.842.842 0 0 0-.386-.839.76.76 0 0 0 .63-.725.75.75 0 0 0-.16-.483h3.384c.57 0 1.032.458 1.032 1.023s-.462 1.024-1.032 1.024z"/><path fill="#7A7A7A" d="M24.335 11.74a.7.7 0 0 0-.722.678.7.7 0 0 0 .684.716.7.7 0 0 0 .722-.678.7.7 0 0 0-.684-.717m-.034 1.222a.527.527 0 0 1-.514-.54.53.53 0 0 1 .543-.51c.292.009.523.25.515.54a.53.53 0 0 1-.544.51"/><path fill="#7A7A7A" stroke="#7A7A7A" stroke-width=".1" d="M3.22 13.508h3.597a.77.77 0 0 0 .787-.002v.002h.34a1.206 1.206 0 0 0 2.035.533.09.09 0 0 0 .021-.096 5.2 5.2 0 0 1-.276-1.711.1.1 0 0 0-.036-.074.1.1 0 0 0 .038-.073c.017-.502.107-.996.265-1.47a.09.09 0 0 0-.029-.101.977.977 0 0 0-1.588.572h-.06a.848.848 0 0 0-1.572 0H3.22c-.673 0-1.221.543-1.221 1.21 0 .668.548 1.212 1.221 1.212zm3.973-.08a.573.573 0 0 1-.56-.586.574.574 0 0 1 .591-.554.573.573 0 0 1 .56.586.574.574 0 0 1-.591.554Zm.623-.11a.8.8 0 0 0 .09-.15v.008q0 .072.005.142h-.095Zm1.54-2.842a.8.8 0 0 1 .435.144c-.145.45-.229.919-.251 1.393a.8.8 0 0 1-.181.027.095.095 0 0 0-.092.085.094.094 0 0 0 .073.1q.1.023.195.066c.002.568.092 1.125.267 1.658a1.02 1.02 0 0 1-.718.27 1.008 1.008 0 0 1 .029-2.018.094.094 0 0 0 .094-.083.093.093 0 0 0-.07-.102.78.78 0 0 1-.59-.779.787.787 0 0 1 .81-.76Zm-.981.969c.048.251.195.47.404.613a1.19 1.19 0 0 0-.808.76.76.76 0 0 0-.33-.583.845.845 0 0 0 .734-.79Zm-.83-.7c.365.01.653.312.643.673a.66.66 0 0 1-.678.637.66.66 0 0 1-.642-.673.66.66 0 0 1 .678-.636Zm-4.325.529h3.47a.842.842 0 0 0 .386.839.76.76 0 0 0-.63.724.75.75 0 0 0 .159.484H3.22c-.57 0-1.032-.46-1.032-1.024s.463-1.024 1.032-1.024Z"/><path fill="#7A7A7A" d="M5.54 12.956a.7.7 0 0 0 .722-.679.7.7 0 0 0-.684-.716.7.7 0 0 0-.722.678.7.7 0 0 0 .684.717m.034-1.223c.292.008.523.25.514.54a.53.53 0 0 1-.543.51.527.527 0 0 1-.514-.54.53.53 0 0 1 .543-.51"/></svg>