<svg xmlns="http://www.w3.org/2000/svg" width="17" height="16" fill="none" viewBox="0 0 17 16"><path stroke="#7A7A7A" stroke-linecap="round" stroke-linejoin="round" stroke-width=".6" d="M1.404 7.906c-.006 1.756.314 3.499.946 5.138a2.06 2.06 0 0 0 1.305 1.304c1.643.64 3.392.964 5.155.956a14.1 14.1 0 0 0 5.14-.946 2.06 2.06 0 0 0 1.306-1.305c.637-1.64.96-3.387.952-5.147a14 14 0 0 0-.946-5.139 2.06 2.06 0 0 0-1.305-1.304A14.1 14.1 0 0 0 8.81.5a14.1 14.1 0 0 0-5.142.946 2.06 2.06 0 0 0-1.305 1.305 14.1 14.1 0 0 0-.959 5.155M6.54 2.428 5.941.788M11.074 2.428l.6-1.64M11.074 13.376l.6 1.64M6.54 13.376l-.597 1.64M14.28 5.635l1.642-.597M14.281 10.17l1.64.6M3.333 5.635l-1.641-.597M3.333 10.17l-1.641.6"/><path stroke="#7A7A7A" stroke-linecap="round" stroke-linejoin="round" stroke-width=".6" d="m16.212 7.902-1.931 2.267.466 3.67-3.673-.463-2.267 1.928-2.268-1.928-3.67.463.464-3.67-1.928-2.267 1.928-2.267-.464-3.67 3.67.463L8.807.5l2.267 1.928 3.673-.463-.466 3.67z"/><path stroke="#7A7A7A" stroke-linecap="round" stroke-linejoin="round" stroke-width=".6" d="M8.807 3.609 6.54 2.428l-.767 2.44-2.44.767 1.18 2.267-1.18 2.267 2.44.77.767 2.437 2.267-1.181 2.267 1.181.77-2.437 2.437-.77-1.18-2.267 1.18-2.267-2.437-.767-.77-2.44z"/><path stroke="#7A7A7A" stroke-linecap="round" stroke-linejoin="round" stroke-width=".6" d="m4.513 7.903 1.26-3.034 3.034-1.26 3.037 1.26L13.1 7.903l-1.256 3.037-3.037 1.256-3.034-1.256z"/><path stroke="#7A7A7A" stroke-linecap="round" stroke-linejoin="round" stroke-width=".6" d="M11.844 10.94 13.1 7.901l-1.256-3.034M5.773 10.94l-1.26-3.038 1.26-3.034"/></svg>