<svg xmlns="http://www.w3.org/2000/svg" width="30" height="30" fill="none" viewBox="0 0 30 30"><g stroke="#7A7A7A" stroke-miterlimit="10" stroke-width=".6" clip-path="url(#a)"><path d="M11.13 9.269a.946.946 0 1 0 0-1.893.946.946 0 0 0 0 1.893Z"/><path d="M9.66 10.465a.946.946 0 1 0 0-1.892.946.946 0 0 0 0 1.892Z"/><path d="M8.416 11.92a.946.946 0 1 0 0-1.893.946.946 0 0 0 0 1.892Z"/><path d="M7.51 13.561a.946.946 0 1 0 0-1.892.946.946 0 0 0 0 1.892ZM7.18 15.454a.946.946 0 1 0 0-1.893.946.946 0 0 0 0 1.893ZM7.282 17.354a.946.946 0 1 0 0-1.892.946.946 0 0 0 0 1.892Z"/><path d="M7.845 19.2a.946.946 0 1 0 0-1.893.946.946 0 0 0 0 1.892Z"/><path d="M8.791 20.888a.946.946 0 1 0 0-1.892.946.946 0 0 0 0 1.892Z"/><path d="M10.184 22.202a.946.946 0 1 0 0-1.892.946.946 0 0 0 0 1.892Z"/><path d="M11.904 23.148a.946.946 0 1 0 0-1.892.946.946 0 0 0 0 1.892Z"/><path d="M13.796 23.695a.946.946 0 1 0 0-1.892.946.946 0 0 0 0 1.892ZM15.853 23.649a.946.946 0 1 0 0-1.893.946.946 0 0 0 0 1.892Z"/><path d="M17.745 23.195a.946.946 0 1 0 0-1.892.946.946 0 0 0 0 1.892ZM19.48 22.241a.946.946 0 1 0 0-1.892.946.946 0 0 0 0 1.892ZM20.888 20.927a.946.946 0 1 0 0-1.892.946.946 0 0 0 0 1.892Z"/><path d="M21.983 19.324a.946.946 0 1 0 0-1.892.946.946 0 0 0 0 1.892ZM22.609 17.502a.946.946 0 1 0 0-1.892.946.946 0 0 0 0 1.892ZM22.71 15.602a.946.946 0 1 0 0-1.892.946.946 0 0 0 0 1.892ZM22.35 13.71a.946.946 0 1 0 0-1.892.946.946 0 0 0 0 1.892Z"/><path d="M21.475 11.943a.946.946 0 1 0 0-1.893.946.946 0 0 0 0 1.893Z"/><path d="M20.224 10.465a.946.946 0 1 0 0-1.892.946.946 0 0 0 0 1.892Z"/><path d="M18.605 9.269a.946.946 0 1 0 0-1.893.946.946 0 0 0 0 1.893Z"/><path stroke-linecap="round" d="m14.46 7.494-2.384.602M15.892 7.494l1.837.46M14.093 8.103V7.087a.852.852 0 1 1 1.705 0v.328"/></g><defs><clipPath id="a"><path fill="#fff" d="M6 6h17.891v17.93H6z"/></clipPath></defs></svg>