<svg xmlns="http://www.w3.org/2000/svg" width="18" height="25" fill="none" viewBox="0 0 18 25"><path fill="#7A7A7A" d="M1.003 12.443c0-1.245.008-2.488-.003-3.733a7 7 0 0 1 .164-1.548 7 7 0 0 1 .565-1.634c.493-.986 1.217-1.76 2.146-2.351a7 7 0 0 1 1.829-.811 9.5 9.5 0 0 1 1.526-.278 13 13 0 0 1 1.691-.086c1.01.019 2.003.142 2.969.442a6.8 6.8 0 0 1 2.328 1.23 5.7 5.7 0 0 1 1.372 1.688c.423.766.641 1.59.765 2.446.028.196.038.394.04.592q.001 1.586-.004 3.172c0 .15-.022.301-.017.45.044 1.525.019 3.052.02 4.576a6.4 6.4 0 0 1-.28 1.798 6.2 6.2 0 0 1-.864 1.83c-.409.58-.89 1.091-1.484 1.487a6.6 6.6 0 0 1-1.91.889c-.37.101-.737.203-1.115.256-.341.046-.683.089-1.029.115-.424.035-.848.028-1.27.022-.992-.015-1.973-.119-2.928-.398a7 7 0 0 1-1.38-.59 6.3 6.3 0 0 1-1.258-.927 5.1 5.1 0 0 1-.97-1.257c-.435-.786-.692-1.627-.83-2.508a5 5 0 0 1-.068-.76c.005-1.37.003-2.739.003-4.109h-.003zm12.399.047c-.011-.04-.018-.075-.03-.11-.18-.56-.375-1.116-.559-1.676-.275-.835-.567-1.665-.829-2.505a.32.32 0 0 0-.185-.216 9 9 0 0 1-.394-.192q-1.262-.65-2.519-1.304c-.124-.066-.224-.07-.348-.002A81 81 0 0 1 5.702 7.93a.53.53 0 0 0-.303.348c-.24.753-.49 1.504-.742 2.254-.21.622-.404 1.248-.65 1.858a.24.24 0 0 0-.006.195c.22.536.365 1.095.557 1.64.141.403.273.81.408 1.214.127.38.26.757.38 1.14.123.394.118.395.49.587.394.203.786.414 1.182.614.526.267 1.057.528 1.584.794.083.042.156.04.236-.003.165-.093.331-.178.497-.264.823-.424 1.641-.855 2.475-1.253a.27.27 0 0 0 .144-.174q.175-.517.349-1.035c.111-.336.216-.675.333-1.01.25-.718.483-1.441.717-2.163q.027-.09.049-.178zM8.7 6.08c.058 0 .097-.029.133-.057.245-.18.517-.316.774-.473.503-.31 1.01-.613 1.514-.919.12-.073.12-.084.01-.172q-.375-.296-.747-.595a32 32 0 0 1-1.58-1.33c-.108-.1-.11-.102-.213 0-.397.4-.852.735-1.282 1.099-.327.276-.66.545-.99.818-.108.09-.103.104.018.19.34.243.702.452 1.056.673.394.245.8.475 1.2.71.036.02.074.038.105.054zm2.491 14.397a.06.06 0 0 0-.025-.056q-.045-.03-.093-.058l-1.343-.801c-.305-.183-.61-.363-.913-.549-.086-.053-.152-.054-.241.002a33 33 0 0 1-.897.545c-.461.273-.906.578-1.385.826-.111.058-.113.085-.023.17q.03.027.06.05.838.704 1.694 1.39c.191.152.389.298.571.462.086.076.115.073.206.006q.024-.02.048-.04.637-.531 1.278-1.057c.327-.267.646-.546.985-.798.033-.025.067-.05.08-.09zM2.77 6.512v1.607q-.001.055 0 .11c.008.093.028.112.116.1q.116-.017.23-.044l1.023-.236q.458-.107.917-.21c.092-.02.147-.059.16-.16.023-.19.061-.38.088-.57q.091-.679.18-1.361.06-.448.112-.897c.014-.112 0-.126-.115-.13-.15-.004-.303 0-.455-.002-.267-.002-.534.006-.8-.01-.444-.025-.888-.012-1.332-.015-.104 0-.118.02-.126.117-.003.036 0 .073 0 .11v1.59zm11.86.025h.001v-1.03q0-.296.003-.593c0-.219 0-.219-.213-.224-.826-.012-1.652.036-2.478.029h-.031c-.099.007-.11.012-.104.11q.018.242.05.482.1.719.203 1.435.067.454.135.91c.013.093.053.154.15.174.085.019.17.049.257.069l1.158.275q.367.089.734.167c.116.025.127.013.133-.101q.002-.055 0-.11V6.538zM2.77 18.492h-.01v1.687c0 .107.007.114.113.12q.055.001.11 0h2.512c.105-.006.115-.016.1-.125q-.05-.372-.098-.742a112 112 0 0 0-.272-2.042c-.019-.126-.07-.175-.188-.201-.515-.117-1.029-.242-1.542-.366l-.58-.142c-.115-.028-.136-.012-.144.11v1.703zm11.86.006v-1.703c0-.12-.016-.13-.128-.106q-.192.038-.383.081-.869.21-1.736.422c-.19.047-.201.06-.218.247-.063.637-.167 1.268-.245 1.902-.033.258-.074.514-.105.774-.02.159-.016.157.136.164.37.017.741 0 1.112.015.449.02.9.006 1.348.008h.11c.07 0 .109-.031.109-.103v-1.701m.166-2.664c.053-.024.063-.068.077-.106.07-.173.143-.347.207-.523.313-.85.62-1.701.934-2.551a.37.37 0 0 0 0-.286q-.178-.466-.347-.937c-.208-.578-.413-1.156-.624-1.734-.07-.189-.153-.372-.228-.56-.036.016-.041.038-.047.057-.09.266-.184.531-.267.8q-.234.744-.457 1.493c-.088.295-.196.581-.294.873-.026.082-.04.16-.004.242.155.37.245.763.36 1.146.18.603.36 1.205.563 1.802.033.097.064.195.124.281zm-12.21.008c.055-.05.07-.11.09-.168.158-.447.29-.902.428-1.355.154-.503.298-1.007.459-1.509a.87.87 0 0 0 .009-.56c-.135-.416-.26-.836-.385-1.253q-.264-.875-.529-1.748c-.012-.043-.02-.093-.074-.114-.047.026-.048.078-.062.12-.184.526-.363 1.053-.551 1.578-.189.523-.388 1.045-.585 1.565a.25.25 0 0 0-.001.195c.246.592.443 1.201.658 1.804.152.427.29.858.455 1.281.022.056.036.119.088.167zm1.251-2.79-.034.004c-.049.153-.1.306-.145.459-.084.284-.161.57-.25.853-.197.614-.367 1.237-.598 1.84-.034.092-.026.108.068.134q.271.08.545.147.563.135 1.129.265c.185.044.373.082.579.127-.43-1.292-.832-2.57-1.292-3.83zm-.039-1.093c.057-.025.06-.06.07-.088.08-.22.166-.437.24-.66q.392-1.17.776-2.342.089-.275.175-.551c.05-.161.047-.163-.112-.135-.191.033-.377.09-.565.128-.496.105-.984.244-1.485.324-.102.015-.11.037-.076.137.071.206.143.413.205.623q.246.856.502 1.708c.085.283.179.564.272.854zm9.734-.017c.07-.053.082-.111.1-.163.195-.55.357-1.11.525-1.668.124-.408.239-.82.386-1.222.072-.198.124-.196-.141-.257-.59-.138-1.184-.268-1.77-.422-.103-.028-.208-.06-.342-.058.408 1.272.825 2.523 1.244 3.788zm.031 1.13c-.025.05-.04.077-.05.107q-.14.398-.273.798l-.585 1.764c-.112.336-.227.671-.335 1.007-.034.105-.013.127.093.102.132-.03.264-.067.395-.097q.612-.14 1.223-.278c.132-.03.267-.053.4-.088.166-.042.175-.06.123-.228-.022-.075-.053-.146-.077-.221q-.401-1.298-.805-2.597c-.025-.082-.044-.17-.109-.271zM11.88 7.678c-.011-.09-.016-.15-.025-.21q-.041-.27-.08-.539l-.28-1.976c-.005-.03-.006-.062-.015-.092-.013-.042-.041-.06-.084-.037q-.048.026-.094.054c-.71.44-1.425.867-2.146 1.29-.099.057-.099.076-.002.13l.043.022q.817.417 1.633.83c.339.172.68.342 1.051.528zm-.036 9.73c-.066-.006-.107.031-.152.053-.512.238-1.013.497-1.516.753-.312.16-.626.313-.938.472-.059.03-.126.048-.157.112.036.052.084.074.128.1q.434.267.872.528.615.362 1.23.72c.118.07.158.057.17-.067.031-.284.102-.564.137-.848.056-.46.12-.918.177-1.378.019-.147.057-.293.049-.445m-6.28-.056c-.013.04-.02.051-.018.06.082.53.143 1.063.212 1.594q.073.558.156 1.112c.017.114.045.124.143.066l2.077-1.256c.064-.04.13-.077.195-.148-.927-.48-1.85-.93-2.764-1.427zM5.54 7.619l.039.022c.922-.448 1.827-.926 2.752-1.396-.085-.09-.185-.125-.271-.178-.643-.402-1.297-.78-1.931-1.192-.054-.035-.104-.086-.192-.077l-.397 2.823zm9.426 12.4c.068-.02.086-.073.115-.115.125-.18.24-.367.333-.566.389-.83.613-1.7.654-2.615.005-.101-.012-.122-.128-.123q-.425-.004-.847-.003h-.031q-.106-.001-.107.104v.078l-.005 3.044c0 .06-.009.124.02.195zM2.443 5.031c-.078.034-.099.086-.125.128A5.8 5.8 0 0 0 1.67 6.49a8 8 0 0 0-.341 1.743c-.014.149.006.166.152.166q.4.005.801 0c.154 0 .166-.016.17-.174q.004-.515.015-1.029c.014-.556.007-1.114.003-1.671 0-.16-.017-.32-.028-.496zm12.507-.013v3.2c0 .176.01.186.187.186h.769c.159 0 .179-.025.165-.186a9 9 0 0 0-.15-1.066 5.8 5.8 0 0 0-.767-1.916c-.046-.074-.086-.153-.203-.216zm-.473-.652q-.014-.031-.031-.057a1 1 0 0 0-.098-.101 6 6 0 0 0-1.012-.784 7 7 0 0 0-1.214-.58c-.135-.048-.136-.044-.155.092q-.086.65-.176 1.298c-.019.144-.005.161.144.166h.079c.465.003.93-.027 1.393-.002.328.018.657-.039.986 0 .025.003.051.003.084-.032M2.914 20.65c.148.16.289.303.443.435a6.4 6.4 0 0 0 1.942 1.095c.102.037.118.026.135-.08a6 6 0 0 0 .044-.34q.06-.511.115-1.024c.01-.098-.002-.108-.098-.115-.036-.003-.074 0-.11 0h-2.29c-.052 0-.106-.011-.18.03m.052-16.286q.049.006.086.008c.707-.008 1.41.042 2.117.031q.172-.002.345 0 .107 0 .102-.108 0-.038-.006-.078-.074-.659-.152-1.317c-.011-.097-.02-.101-.121-.068-.145.046-.281.112-.421.17-.71.29-1.34.701-1.878 1.246-.028.028-.066.052-.072.118zm10.166 16.26q-.596-.002-1.19 0c-.14 0-.14.006-.135.14.014.322.075.64.114.96q.02.178.054.354c.023.122.044.131.158.094q.037-.013.074-.028c.4-.144.776-.338 1.137-.556a5 5 0 0 0 1.058-.847c.024-.025.064-.048.04-.09-.018-.03-.056-.024-.087-.026h-1.222zM2.409 19.99l.036-.014v-.264c.012-.89-.022-1.78-.024-2.67v-.297c0-.108-.005-.114-.116-.115-.23-.004-.46 0-.69 0-.276 0-.282.009-.254.282.041.394.104.783.2 1.169a6 6 0 0 0 .686 1.685c.047.078.096.158.162.224M9.114 2.37c.025.066.074.1.115.138.565.534 1.177 1.01 1.791 1.487q.141.112.284.22c.137.102.143.099.175-.073.012-.065.018-.134.028-.2q.087-.563.176-1.123c.01-.07.006-.112-.079-.136-.764-.208-1.537-.35-2.333-.339-.05 0-.104-.014-.16.028zm-3.14 1.953c.8-.646 1.606-1.267 2.35-1.966-.05-.052-.094-.036-.133-.033a13 13 0 0 0-1.26.122c-.362.058-.723.114-1.073.222-.124.037-.124.039-.11.159q.08.649.162 1.298c.008.06.004.125.066.197zm3.1 18.34c.153.03.282-.012.412-.013a8.1 8.1 0 0 0 2.043-.298c.15-.043.158-.054.136-.207l-.17-1.237c-.01-.064.018-.155-.056-.18-.058-.02-.107.054-.154.091q-.937.756-1.873 1.52c-.116.094-.243.18-.339.323zm-.737 0c-.135-.12-.243-.226-.36-.32q-.881-.727-1.766-1.45l-.166-.143c-.027-.023-.054-.057-.094-.039s-.035.061-.04.096q0 .015-.003.03c-.061.45-.083.902-.176 1.346-.017.083.016.126.094.151q.172.057.347.097c.7.16 1.413.211 2.164.231m-6.949-9.14-.034.007c.006.302-.02.603-.024.905-.005.551-.002 1.104-.002 1.656v.109c0 .072.04.103.109.103.278 0 .554.005.832.002.086 0 .1-.022.077-.11-.025-.09-.063-.176-.091-.265-.21-.644-.443-1.28-.677-1.915-.061-.166-.127-.328-.19-.492m.016-2.126c.05-.038.055-.088.072-.13.278-.701.518-1.415.765-2.128.034-.098.075-.193.106-.292.035-.108.02-.126-.097-.128h-.422l-.391.002q-.106 0-.107.104l-.002.125c0 .54.005 1.081 0 1.622 0 .223.024.445.03.668 0 .05 0 .105.047.155zm14.668 2.072q-.013 0-.026-.003-.24.642-.482 1.284c-.176.467-.314.947-.52 1.403-.049.108-.04.12.086.123.189.004.376.002.564.004q.1 0 .203.008c.157.012.174.001.174-.155v-2.664zm-.036-2.002c.055-.367.033-.7.036-1.033.004-.52 0-1.04 0-1.56 0-.135-.014-.149-.14-.15a74 74 0 0 0-.831-.003c-.026 0-.052-.003-.084.032.34.885.622 1.798 1.02 2.714"/><path stroke="#7A7A7A" stroke-width=".3" d="M14.628 18.498h.002m0 0v-1.703c0-.12-.016-.13-.128-.106q-.192.038-.383.081-.869.21-1.736.422c-.19.047-.201.06-.218.247-.063.637-.167 1.268-.245 1.902-.033.258-.074.514-.105.774-.02.159-.016.157.136.164.37.017.741 0 1.112.015.449.02.9.006 1.348.008h.11c.07 0 .109-.031.109-.103v-1.701ZM1.003 12.443c0-1.245.008-2.488-.003-3.733a7 7 0 0 1 .164-1.548 7 7 0 0 1 .565-1.634c.493-.986 1.217-1.76 2.146-2.351a7 7 0 0 1 1.829-.811 9.5 9.5 0 0 1 1.526-.278 13 13 0 0 1 1.691-.086c1.01.019 2.003.142 2.969.442a6.8 6.8 0 0 1 2.328 1.23 5.7 5.7 0 0 1 1.372 1.688c.423.766.641 1.59.765 2.446.028.196.038.394.04.592q.001 1.586-.004 3.172c0 .15-.022.301-.017.45.044 1.525.019 3.052.02 4.576a6.4 6.4 0 0 1-.28 1.798 6.2 6.2 0 0 1-.864 1.83c-.409.58-.89 1.091-1.484 1.487a6.6 6.6 0 0 1-1.91.889c-.37.101-.737.203-1.115.256-.341.046-.683.089-1.029.115-.424.035-.848.028-1.27.022-.992-.015-1.973-.119-2.928-.398a7 7 0 0 1-1.38-.59 6.3 6.3 0 0 1-1.258-.927 5.1 5.1 0 0 1-.97-1.257c-.435-.786-.692-1.627-.83-2.508a5 5 0 0 1-.068-.76c.005-1.37.003-2.739.003-4.109h-.003zm12.399.047c-.011-.04-.018-.075-.03-.11-.18-.56-.375-1.116-.559-1.676-.275-.835-.567-1.665-.829-2.505a.32.32 0 0 0-.185-.216 9 9 0 0 1-.394-.192q-1.262-.65-2.519-1.304c-.124-.066-.224-.07-.348-.002A81 81 0 0 1 5.702 7.93a.53.53 0 0 0-.303.348c-.24.753-.49 1.504-.742 2.254-.21.622-.404 1.248-.65 1.858a.24.24 0 0 0-.006.195c.22.536.365 1.095.557 1.64.141.403.273.81.408 1.214.127.38.26.757.38 1.14.123.394.118.395.49.587.394.203.786.414 1.182.614.526.267 1.057.528 1.584.794.083.042.156.04.236-.003.165-.093.331-.178.497-.264.823-.424 1.641-.855 2.475-1.253a.27.27 0 0 0 .144-.174q.175-.517.349-1.035c.111-.336.216-.675.333-1.01.25-.718.483-1.441.717-2.163q.027-.09.049-.178zM8.7 6.08c.058 0 .097-.029.133-.057.245-.18.517-.316.774-.473.503-.31 1.01-.613 1.514-.919.12-.073.12-.084.01-.172q-.375-.296-.747-.595a32 32 0 0 1-1.58-1.33c-.108-.1-.11-.102-.213 0-.397.4-.852.735-1.282 1.099-.327.276-.66.545-.99.818-.108.09-.103.104.018.19.34.243.702.452 1.056.673.394.245.8.475 1.2.71.036.02.074.038.105.054zm2.491 14.397a.06.06 0 0 0-.025-.056q-.045-.03-.093-.058l-1.343-.801c-.305-.183-.61-.363-.913-.549-.086-.053-.152-.054-.241.002a33 33 0 0 1-.897.545c-.461.273-.906.578-1.385.826-.111.058-.113.085-.023.17q.03.027.06.05.838.704 1.694 1.39c.191.152.389.298.571.462.086.076.115.073.206.006q.024-.02.048-.04.637-.531 1.278-1.057c.327-.267.646-.546.985-.798.033-.025.067-.05.08-.09zM2.77 6.512v1.607q-.001.055 0 .11c.008.093.028.112.116.1q.116-.017.23-.044l1.023-.236q.458-.107.917-.21c.092-.02.147-.059.16-.16.023-.19.061-.38.088-.57q.091-.679.18-1.361.06-.448.112-.897c.014-.112 0-.126-.115-.13-.15-.004-.303 0-.455-.002-.267-.002-.534.006-.8-.01-.444-.025-.888-.012-1.332-.015-.104 0-.118.02-.126.117-.003.036 0 .073 0 .11v1.59zm11.86.025h.001v-1.03q0-.296.003-.593c0-.219 0-.219-.213-.224-.826-.012-1.652.036-2.478.029h-.031c-.099.007-.11.012-.104.11q.018.242.05.482.1.719.203 1.435.067.454.135.91c.013.093.053.154.15.174.085.019.17.049.257.069l1.158.275q.367.089.734.167c.116.025.127.013.133-.101q.002-.055 0-.11V6.538zM2.77 18.492h-.01v1.687c0 .107.007.114.113.12q.055.001.11 0h2.512c.105-.006.115-.016.1-.125q-.05-.372-.098-.742a112 112 0 0 0-.272-2.042c-.019-.126-.07-.175-.188-.201-.515-.117-1.029-.242-1.542-.366l-.58-.142c-.115-.028-.136-.012-.144.11v1.703zm12.026-2.658c.053-.024.063-.068.077-.106.07-.173.143-.347.207-.523.313-.85.62-1.701.934-2.551a.37.37 0 0 0 0-.286q-.178-.466-.347-.937c-.208-.578-.413-1.156-.624-1.734-.07-.189-.153-.372-.228-.56-.036.016-.041.038-.047.057-.09.266-.184.531-.267.8q-.234.744-.457 1.493c-.088.295-.196.581-.294.873-.026.082-.04.16-.004.242.155.37.245.763.36 1.146.18.603.36 1.205.563 1.802.033.097.064.195.124.281zm-12.21.008c.055-.05.07-.11.09-.168.158-.447.29-.902.428-1.355.154-.503.298-1.007.459-1.509a.87.87 0 0 0 .009-.56c-.135-.416-.26-.836-.385-1.253q-.264-.875-.529-1.748c-.012-.043-.02-.093-.074-.114-.047.026-.048.078-.062.12-.184.526-.363 1.053-.551 1.578-.189.523-.388 1.045-.585 1.565a.25.25 0 0 0-.001.195c.246.592.443 1.201.658 1.804.152.427.29.858.455 1.281.022.056.036.119.088.167zm1.251-2.79-.034.004c-.049.153-.1.306-.145.459-.084.284-.161.57-.25.853-.197.614-.367 1.237-.598 1.84-.034.092-.026.108.068.134q.271.08.545.147.563.135 1.129.265c.185.044.373.082.579.127-.43-1.292-.832-2.57-1.292-3.83zm-.039-1.093c.057-.025.06-.06.07-.088.08-.22.166-.437.24-.66q.392-1.17.776-2.342.089-.275.175-.551c.05-.161.047-.163-.112-.135-.191.033-.377.09-.565.128-.496.105-.984.244-1.485.324-.102.015-.11.037-.076.137.071.206.143.413.205.623q.246.856.502 1.708c.085.283.179.564.272.854zm9.734-.017c.07-.053.082-.111.1-.163.195-.55.357-1.11.525-1.668.124-.408.239-.82.386-1.222.072-.198.124-.196-.141-.257-.59-.138-1.184-.268-1.77-.422-.103-.028-.208-.06-.342-.058.408 1.272.825 2.523 1.244 3.788zm.031 1.13c-.025.05-.04.077-.05.107q-.14.398-.273.798l-.585 1.764c-.112.336-.227.671-.335 1.007-.034.105-.013.127.093.102.132-.03.264-.067.395-.097q.612-.14 1.223-.278c.132-.03.267-.053.4-.088.166-.042.175-.06.123-.228-.022-.075-.053-.146-.077-.221q-.401-1.298-.805-2.597c-.025-.082-.044-.17-.109-.271zM11.88 7.678c-.011-.09-.016-.15-.025-.21q-.041-.27-.08-.539l-.28-1.976c-.005-.03-.006-.062-.015-.092-.013-.042-.041-.06-.084-.037q-.048.026-.094.054c-.71.44-1.425.867-2.146 1.29-.099.057-.099.076-.002.13l.043.022q.817.417 1.633.83c.339.172.68.342 1.051.528zm-.036 9.73c-.066-.006-.107.031-.152.053-.512.238-1.013.497-1.516.753-.312.16-.626.313-.938.472-.059.03-.126.048-.157.112.036.052.084.074.128.1q.434.267.872.528.615.362 1.23.72c.118.07.158.057.17-.067.031-.284.102-.564.137-.848.056-.46.12-.918.177-1.378.019-.147.057-.293.049-.445Zm-6.28-.056c-.013.04-.02.051-.018.06.082.53.143 1.063.212 1.594q.073.558.156 1.112c.017.114.045.124.143.066l2.077-1.256c.064-.04.13-.077.195-.148-.927-.48-1.85-.93-2.764-1.427zM5.54 7.619l.039.022c.922-.448 1.827-.926 2.752-1.396-.085-.09-.185-.125-.271-.178-.643-.402-1.297-.78-1.931-1.192-.054-.035-.104-.086-.192-.077l-.397 2.823zm9.426 12.4c.068-.02.086-.073.115-.115.125-.18.24-.367.333-.566.389-.83.613-1.7.654-2.615.005-.101-.012-.122-.128-.123q-.425-.004-.847-.003h-.031q-.106-.001-.107.104v.078l-.005 3.044c0 .06-.009.124.02.195zM2.443 5.031c-.078.034-.099.086-.125.128A5.8 5.8 0 0 0 1.67 6.49a8 8 0 0 0-.341 1.743c-.014.149.006.166.152.166q.4.005.801 0c.154 0 .166-.016.17-.174q.004-.515.015-1.029c.014-.556.007-1.114.003-1.671 0-.16-.017-.32-.028-.496zm12.507-.013v3.2c0 .176.01.186.187.186h.769c.159 0 .179-.025.165-.186a9 9 0 0 0-.15-1.066 5.8 5.8 0 0 0-.767-1.916c-.046-.074-.086-.153-.203-.216zm-.473-.652q-.014-.031-.031-.057a1 1 0 0 0-.098-.101 6 6 0 0 0-1.012-.784 7 7 0 0 0-1.214-.58c-.135-.048-.136-.044-.155.092q-.086.65-.176 1.298c-.019.144-.005.161.144.166h.079c.465.003.93-.027 1.393-.002.328.018.657-.039.986 0 .025.003.051.003.084-.032ZM2.914 20.65c.148.16.289.303.443.435a6.4 6.4 0 0 0 1.942 1.095c.102.037.118.026.135-.08a6 6 0 0 0 .044-.34q.06-.511.115-1.024c.01-.098-.002-.108-.098-.115-.036-.003-.074 0-.11 0h-2.29c-.052 0-.106-.011-.18.03Zm.052-16.286q.049.006.086.008c.707-.008 1.41.042 2.117.031q.172-.002.345 0 .107 0 .102-.108 0-.038-.006-.078-.074-.659-.152-1.317c-.011-.097-.02-.101-.121-.068-.145.046-.281.112-.421.17-.71.29-1.34.701-1.878 1.246-.028.028-.066.052-.072.118zm10.166 16.26q-.596-.002-1.19 0c-.14 0-.14.006-.135.14.014.322.075.64.114.96q.02.178.054.354c.023.122.044.131.158.094q.037-.013.074-.028c.4-.144.776-.338 1.137-.556a5 5 0 0 0 1.058-.847c.024-.025.064-.048.04-.09-.018-.03-.056-.024-.087-.026h-1.222zM2.409 19.99l.036-.014v-.264c.012-.89-.022-1.78-.024-2.67v-.297c0-.108-.005-.114-.116-.115-.23-.004-.46 0-.69 0-.276 0-.282.009-.254.282.041.394.104.783.2 1.169a6 6 0 0 0 .686 1.685c.047.078.096.158.162.224ZM9.114 2.37c.025.066.074.1.115.138.565.534 1.177 1.01 1.791 1.487q.141.112.284.22c.137.102.143.099.175-.073.012-.065.018-.134.028-.2q.087-.563.176-1.123c.01-.07.006-.112-.079-.136-.764-.208-1.537-.35-2.333-.339-.05 0-.104-.014-.16.028zm-3.14 1.953c.8-.646 1.606-1.267 2.35-1.966-.05-.052-.094-.036-.133-.033a13 13 0 0 0-1.26.122c-.362.058-.723.114-1.073.222-.124.037-.124.039-.11.159q.08.649.162 1.298c.008.06.004.125.066.197zm3.1 18.34c.153.03.282-.012.412-.013a8.1 8.1 0 0 0 2.043-.298c.15-.043.158-.054.136-.207l-.17-1.237c-.01-.064.018-.155-.056-.18-.058-.02-.107.054-.154.091q-.937.756-1.873 1.52c-.116.094-.243.18-.339.323zm-.737 0c-.135-.12-.243-.226-.36-.32q-.881-.727-1.766-1.45l-.166-.143c-.027-.023-.054-.057-.094-.039s-.035.061-.04.096q0 .015-.003.03c-.061.45-.083.902-.176 1.346-.017.083.016.126.094.151q.172.057.347.097c.7.16 1.413.211 2.164.231Zm-6.949-9.14-.034.007c.006.302-.02.603-.024.905-.005.551-.002 1.104-.002 1.656v.109c0 .072.04.103.109.103.278 0 .554.005.832.002.086 0 .1-.022.077-.11-.025-.09-.063-.176-.091-.265-.21-.644-.443-1.28-.677-1.915-.061-.166-.127-.328-.19-.492Zm.016-2.126c.05-.038.055-.088.072-.13.278-.701.518-1.415.765-2.128.034-.098.075-.193.106-.292.035-.108.02-.126-.097-.128h-.422l-.391.002q-.106 0-.107.104l-.002.125c0 .54.005 1.081 0 1.622 0 .223.024.445.03.668 0 .05 0 .105.047.155zm14.668 2.072q-.013 0-.026-.003-.24.642-.482 1.284c-.176.467-.314.947-.52 1.403-.049.108-.04.12.086.123.189.004.376.002.564.004q.1 0 .203.008c.157.012.174.001.174-.155v-2.664zm-.036-2.002c.055-.367.033-.7.036-1.033.004-.52 0-1.04 0-1.56 0-.135-.014-.149-.14-.15a74 74 0 0 0-.831-.003c-.026 0-.052-.003-.084.032.34.885.622 1.798 1.02 2.714Z"/></svg>