<svg xmlns="http://www.w3.org/2000/svg" width="17" height="22" fill="none" viewBox="0 0 17 22"><path stroke="#7A7A7A" stroke-linecap="round" stroke-linejoin="round" stroke-width=".6" d="M13.285.5H4.273L1.389 3.383v14.905l2.884 2.883h9.012l2.883-2.883V3.383z"/><path stroke="#7A7A7A" stroke-linecap="round" stroke-linejoin="round" stroke-width=".6" d="M13.59 4.56V17.11l-1.916 1.825h-5.79l-1.836-1.862V4.596L5.962 2.85h5.634z"/><path stroke="#7A7A7A" stroke-linecap="round" stroke-linejoin="round" stroke-width=".6" d="M15.11 3.867v13.938l-2.485 2.448H4.933l-2.548-2.422V3.837L4.94 1.426h7.677z"/><path stroke="#7A7A7A" stroke-linecap="round" stroke-linejoin="round" stroke-width=".6" d="M12.474 5.069v11.534l-1.442 1.441H6.526l-1.442-1.441V5.069l1.442-1.442h4.506z"/><path stroke="#7A7A7A" stroke-linecap="round" stroke-linejoin="round" stroke-width=".6" d="m1.39 3.383 7.389 3.374L4.273.5"/><path stroke="#7A7A7A" stroke-linecap="round" stroke-linejoin="round" stroke-width=".6" d="m16.168 3.383-7.39 3.374L13.286.5M1.39 18.288l7.389-3.374-4.506 6.257"/><path stroke="#7A7A7A" stroke-linecap="round" stroke-linejoin="round" stroke-width=".6" d="m16.168 18.288-7.39-3.374 4.506 6.257M8.779 6.758v8.156"/></svg>