<svg xmlns="http://www.w3.org/2000/svg" width="30" height="25" fill="none" viewBox="0 0 30 25"><path stroke="#7A7A7A" stroke-miterlimit="10" stroke-width=".6" d="M26.4 14.9H3.6c-1.2 0-2.2-.909-2.2-2s1-2 2.2-2h22.8c1.2 0 2.2.91 2.2 2 0 1.091-1 2-2.2 2Z"/><path fill="#fff" stroke="#7A7A7A" stroke-miterlimit="10" stroke-width=".4" d="M15 17.8a5.3 5.3 0 1 0 0-10.6 5.3 5.3 0 0 0 0 10.6Z"/><path fill="#fff" stroke="#7A7A7A" stroke-miterlimit="10" stroke-width=".4" d="M15 16a3.5 3.5 0 1 0 0-7 3.5 3.5 0 0 0 0 7Z"/><path stroke="#7A7A7A" stroke-miterlimit="10" stroke-width=".4" d="M13.7 9.2a.9.9 0 1 0 0-1.8.9.9 0 0 0 0 1.8ZM11.9 10.3a.9.9 0 1 0 0-1.8.9.9 0 0 0 0 1.8ZM10.8 12.1a.9.9 0 1 0 0-1.8.9.9 0 0 0 0 1.8ZM10.671 14.189a.9.9 0 1 0 0-1.8.9.9 0 0 0 0 1.8ZM11.5 16.1a.9.9 0 1 0 0-1.8.9.9 0 0 0 0 1.8ZM13.1 17.4a.9.9 0 1 0 0-1.8.9.9 0 0 0 0 1.8ZM15.1 17.8a.9.9 0 1 0 0-1.8.9.9 0 0 0 0 1.8ZM17.1 17.3a.9.9 0 1 0 0-1.8.9.9 0 0 0 0 1.8Z"/><path stroke="#7A7A7A" stroke-miterlimit="10" stroke-width=".4" d="M17.1 17.3a.9.9 0 1 0 0-1.8.9.9 0 0 0 0 1.8ZM18.6 15.9a.9.9 0 1 0 0-1.8.9.9 0 0 0 0 1.8Z"/><path stroke="#7A7A7A" stroke-miterlimit="10" stroke-width=".4" d="M18.6 15.9a.9.9 0 1 0 0-1.8.9.9 0 0 0 0 1.8ZM19.1 11.8a.9.9 0 1 0 0-1.8.9.9 0 0 0 0 1.8Z"/><path stroke="#7A7A7A" stroke-miterlimit="10" stroke-width=".4" d="M19.1 11.8a.9.9 0 1 0 0-1.8.9.9 0 0 0 0 1.8ZM17.9 10a.9.9 0 1 0 0-1.8.9.9 0 0 0 0 1.8ZM15.9 9.1a.9.9 0 1 0 0-1.8.9.9 0 0 0 0 1.8ZM19.4 13.9a.9.9 0 1 0 0-1.8.9.9 0 0 0 0 1.8Z"/></svg>