<svg xmlns="http://www.w3.org/2000/svg" width="15" height="26" fill="none" viewBox="0 0 15 26"><path stroke="#7A7A7A" stroke-linecap="round" stroke-linejoin="round" stroke-width=".6" d="M7.046 25.183c7.86-5.725 7.86-18.691 0-24.416-7.857 5.725-7.857 18.691 0 24.416M5.578 4.43 4.514 3.185M2.77 10.361l-1.245-.845M5.578 21.52l-1.064 1.245M2.77 15.593l-1.245.845M8.517 4.43 9.58 3.185M11.326 10.361l1.244-.845M8.517 21.52l1.064 1.245M11.326 15.593l1.244.845"/><path stroke="#7A7A7A" stroke-linecap="round" stroke-linejoin="round" stroke-width=".6" d="m1.153 12.975 1.616-2.614-.082-4.26L5.58 4.43 7.046.767 8.517 4.43l2.892 1.67-.083 4.261 1.616 2.614-1.616 2.618.082 4.257-2.891 1.67-1.471 3.663-1.467-3.663-2.892-1.67.082-4.257z"/><path stroke="#7A7A7A" stroke-linecap="round" stroke-linejoin="round" stroke-width=".6" d="m3.657 12.975-.888-2.614 1.765-1.796L5.579 4.43l1.467 1.22 1.471-1.22 1.045 4.135 1.764 1.796-.888 2.614.888 2.618-1.764 1.796-1.045 4.131-1.471-1.22-1.467 1.22-1.045-4.131-1.765-1.796z"/><path stroke="#7A7A7A" stroke-linecap="round" stroke-linejoin="round" stroke-width=".6" d="m3.657 12.975.877-4.41L7.046 5.65l2.516 2.915.876 4.41-.876 4.414-2.516 2.91-2.512-2.91z"/></svg>