<svg xmlns="http://www.w3.org/2000/svg" width="31" height="30" fill="none" viewBox="0 0 31 30"><g stroke="#7A7A7A" stroke-miterlimit="10" clip-path="url(#a)"><path stroke-width=".3" d="M14.732 18.473a.975.975 0 1 0 0-1.95.975.975 0 0 0 0 1.95ZM12.702 19.62a.975.975 0 1 0 0-1.95.975.975 0 0 0 0 1.95ZM11.41 21.572a.975.975 0 1 0 0-1.951.975.975 0 0 0 0 1.95ZM11.2 23.839a.975.975 0 1 0 0-1.951.975.975 0 0 0 0 1.95ZM12.03 25.934a.975.975 0 1 0 0-1.95.975.975 0 0 0 0 1.95ZM13.717 27.398a.976.976 0 1 0 0-1.951.976.976 0 0 0 0 1.951ZM15.879 27.899a.975.975 0 1 0 0-1.951.975.975 0 0 0 0 1.95ZM18.067 27.424a.975.975 0 1 0 0-1.951.975.975 0 0 0 0 1.95Z"/><path stroke-width=".3" d="M18.067 27.424a.975.975 0 1 0 0-1.951.975.975 0 0 0 0 1.95ZM19.741 25.961a.975.975 0 1 0 0-1.95.975.975 0 0 0 0 1.95Z"/><path stroke-width=".3" d="M19.741 25.961a.975.975 0 1 0 0-1.95.975.975 0 0 0 0 1.95ZM20.427 21.532a.975.975 0 1 0 0-1.951.975.975 0 0 0 0 1.95Z"/><path stroke-width=".3" d="M20.427 21.532a.975.975 0 1 0 0-1.951.975.975 0 0 0 0 1.95ZM19.122 19.582a.976.976 0 1 0 0-1.951.976.976 0 0 0 0 1.95ZM17.04 18.487a.975.975 0 1 0 0-1.95.975.975 0 0 0 0 1.95ZM20.625 23.813a.975.975 0 1 0 0-1.95.975.975 0 0 0 0 1.95Z"/><path stroke-width=".2" d="M15.774 10.499a.54.54 0 1 0 0-1.081.54.54 0 0 0 0 1.08ZM14.574 10.868a.54.54 0 1 0 0-1.08.54.54 0 0 0 0 1.08ZM13.677 11.751a.54.54 0 1 0 0-1.08.54.54 0 0 0 0 1.08ZM13.309 12.937a.54.54 0 1 0 0-1.081.54.54 0 0 0 0 1.08ZM13.506 14.15a.54.54 0 1 0 0-1.08.54.54 0 0 0 0 1.08ZM14.245 15.14a.54.54 0 1 0 0-1.082.54.54 0 0 0 0 1.081Z"/><path stroke-width=".2" d="M15.338 15.653a.54.54 0 1 0 0-1.081.54.54 0 0 0 0 1.081ZM16.565 15.653a.54.54 0 1 0 0-1.081.54.54 0 0 0 0 1.081Z"/><path stroke-width=".2" d="M16.565 15.653a.54.54 0 1 0 0-1.081.54.54 0 0 0 0 1.081ZM17.632 15.06a.54.54 0 1 0 0-1.081.54.54 0 0 0 0 1.08Z"/><path stroke-width=".2" d="M17.632 15.06a.54.54 0 1 0 0-1.081.54.54 0 0 0 0 1.08ZM18.502 12.78a.54.54 0 1 0 0-1.081.54.54 0 0 0 0 1.08Z"/><path stroke-width=".2" d="M18.502 12.78a.54.54 0 1 0 0-1.081.54.54 0 0 0 0 1.08ZM18.04 11.593a.54.54 0 1 0 0-1.081.54.54 0 0 0 0 1.08ZM17.052 10.763a.54.54 0 1 0 0-1.081.54.54 0 0 0 0 1.08ZM18.344 14.018a.54.54 0 1 0 0-1.08.54.54 0 0 0 0 1.08Z"/><path stroke-linecap="round" stroke-width=".5" d="M15.905 15.587v1.766"/><path stroke-linecap="round" stroke-width=".3" d="M15.905 8.535v.804"/><path stroke-linecap="round" stroke-width=".5" d="m6.362.286 9.425 8.895M25.45.286 16.023 9.18"/></g><defs><clipPath id="a"><path fill="#fff" d="M6 0h19.773v29H6z"/></clipPath></defs></svg>