<svg xmlns="http://www.w3.org/2000/svg" width="14" height="19" fill="none" viewBox="0 0 14 19"><path stroke="#7A7A7A" stroke-linecap="round" stroke-linejoin="round" stroke-width=".6" d="M13.249 9.126a10.5 10.5 0 0 0-1.501-5.523C10.728 1.968 9.108.637 7.042.637c-2.065 0-3.685 1.329-4.705 2.946A10.5 10.5 0 0 0 .833 9.126c-.019 1.939.5 3.844 1.501 5.505 1.02 1.62 2.643 2.952 4.708 2.952s3.683-1.323 4.703-2.946a10.46 10.46 0 0 0 1.504-5.51M11.445 11.183l1.423.844M8.933 14.952l.996 1.659M2.637 11.183l-1.424.844M5.149 14.952l-.996 1.659M11.445 7.037l1.423-.845M8.933 3.27l.996-1.661M2.637 7.037l-1.424-.845M5.149 3.27 4.153 1.61"/><path stroke="#7A7A7A" stroke-linecap="round" stroke-linejoin="round" stroke-width=".6" d="M7.042.64 5.15 3.27l-2.818.324.306 3.443L.836 9.11"/><path stroke="#7A7A7A" stroke-linecap="round" stroke-linejoin="round" stroke-width=".5" d="m7.042.64 1.89 2.63 2.822.324-.31 3.443L13.25 9.11M7.042 17.583 5.15 14.949l-2.818-.324.306-3.442L.836 9.111M7.042 17.583l1.89-2.634 2.822-.324-.31-3.442 1.805-2.072"/><path stroke="#7A7A7A" stroke-linecap="round" stroke-linejoin="round" stroke-width=".6" d="m7.042 13.707 1.89 1.242.56-2.862 1.953-.904-1.186-2.072M7.042 13.707 5.15 14.949l-.559-2.862-1.953-.904 1.19-2.072M7.042 4.513l1.89-1.243.56 2.863 1.953.904-1.186 2.074M7.042 4.513 5.15 3.27 4.59 6.133l-1.953.904 1.19 2.074"/><path stroke="#7A7A7A" stroke-linecap="round" stroke-linejoin="round" stroke-width=".6" d="M7.042 4.513 4.59 6.133 3.826 9.11M7.042 4.513l2.45 1.62.767 2.978M7.042 13.707l-2.452-1.62-.764-2.976M7.042 13.707l2.45-1.62.767-2.976"/></svg>