<svg xmlns="http://www.w3.org/2000/svg" width="17" height="23" fill="none" viewBox="0 0 17 23"><path stroke="#7A7A7A" stroke-linecap="round" stroke-linejoin="round" stroke-width=".6" d="M8.696 1c3.6 2.765 6.503 6.895 7.22 11.522.21 1.141.224 2.31.043 3.456a7.54 7.54 0 0 1-1.329 3.183 7.22 7.22 0 0 1-11.882 0 7.56 7.56 0 0 1-1.332-3.179 10.5 10.5 0 0 1 .043-3.467C2.194 7.895 5.11 3.772 8.696 1M5.956 19.479l-.983 1.742M3.133 15.417l-1.72.443M3.472 10.005l-1.145-.651M7.036 4.504 6 3.481M11.436 19.479l.98 1.742M14.256 15.417l1.724.443M13.917 10.005l1.145-.651M10.356 4.504l1.034-1.023"/><path stroke="#7A7A7A" stroke-linecap="round" stroke-linejoin="round" stroke-width=".6" d="m8.696 1 1.66 3.503 3.075 1.635.486 3.867 1.998 2.51-1.66 2.902.508 3.554-3.327.507-2.74 2.79M8.696 1l-1.66 3.503-3.075 1.635-.49 3.867-1.998 2.51 1.66 2.902-.504 3.554 3.327.507 2.74 2.79"/><path stroke="#7A7A7A" stroke-linecap="round" stroke-linejoin="round" stroke-width=".6" d="m8.696 18.43-2.74 1.049-.298-2.798-2.524-1.264 1.501-2.412-1.163-3 2.564-1.328 1-4.173 1.66 1.404M8.696 18.43l2.74 1.049.3-2.798 2.52-1.264-1.498-2.412 1.16-3-2.56-1.328-1.002-4.173-1.66 1.404"/><path stroke="#7A7A7A" stroke-linecap="round" stroke-linejoin="round" stroke-width=".6" d="m8.696 18.431 3.039-1.75 1.022-3.676-1.4-4.328-2.661-2.769M8.696 18.431l-3.039-1.75-1.022-3.676 1.4-4.328 2.661-2.769"/></svg>