<svg xmlns="http://www.w3.org/2000/svg" width="30" height="30" fill="none" viewBox="0 0 30 30"><g stroke="#7A7A7A" clip-path="url(#a)"><path stroke-miterlimit="10" stroke-width=".6" d="M13.95 8.219v-.767a1.06 1.06 0 0 1 1.129-.948.97.97 0 0 1 1.128.948v.677"/><path stroke-linecap="round" stroke-linejoin="bevel" d="M15.045 2.374v3.95"/><path stroke-miterlimit="10" stroke-width=".5" d="M14.142 9.81a.857.857 0 1 0 0-1.715.857.857 0 0 0 0 1.715ZM22.086 12.653a.858.858 0 1 0 0-1.715.858.858 0 0 0 0 1.715ZM21.228 10.938a.858.858 0 1 0 0-1.715.858.858 0 0 0 0 1.715ZM17.787 9.81a.857.857 0 1 0 0-1.715.857.857 0 0 0 0 1.715Z"/><path stroke-miterlimit="10" stroke-width=".5" d="M16.072 9.81a.858.858 0 1 0 0-1.715.858.858 0 0 0 0 1.715ZM19.637 9.81a.857.857 0 1 0 0-1.715.857.857 0 0 0 0 1.715ZM17.787 27.908a.857.857 0 1 0 0-1.715.857.857 0 0 0 0 1.715Z"/><path stroke-miterlimit="10" stroke-width=".5" d="M16.072 27.908a.858.858 0 1 0 0-1.715.858.858 0 0 0 0 1.715ZM19.637 27.908a.857.857 0 1 0 0-1.715.857.857 0 0 0 0 1.715ZM22.086 25.065a.858.858 0 1 0 0-1.716.858.858 0 0 0 0 1.716ZM21.228 26.78a.857.857 0 1 0 0-1.715.857.857 0 0 0 0 1.715ZM22.086 21.635a.858.858 0 1 0 0-1.716.858.858 0 0 0 0 1.715Z"/><path stroke-miterlimit="10" stroke-width=".5" d="M22.086 19.93a.858.858 0 1 0 0-1.714.858.858 0 0 0 0 1.715ZM22.086 23.35a.858.858 0 1 0 0-1.716.858.858 0 0 0 0 1.715ZM22.086 14.357a.858.858 0 1 0 0-1.715.858.858 0 0 0 0 1.715Z"/><path stroke-miterlimit="10" stroke-width=".5" d="M22.086 16.072a.858.858 0 1 0 0-1.715.858.858 0 0 0 0 1.715ZM22.086 17.968a.858.858 0 1 0 0-1.716.858.858 0 0 0 0 1.716ZM8.14 12.653a.857.857 0 1 0 0-1.715.857.857 0 0 0 0 1.715ZM8.997 10.938a.858.858 0 1 0 0-1.715.858.858 0 0 0 0 1.715ZM12.439 9.81a.858.858 0 1 0 0-1.715.858.858 0 0 0 0 1.715Z"/><path stroke-miterlimit="10" stroke-width=".5" d="M14.142 9.81a.857.857 0 1 0 0-1.715.857.857 0 0 0 0 1.715ZM10.588 9.81a.857.857 0 1 0 0-1.715.857.857 0 0 0 0 1.715ZM12.439 27.908a.858.858 0 1 0 0-1.715.858.858 0 0 0 0 1.715Z"/><path stroke-miterlimit="10" stroke-width=".5" d="M14.142 27.908a.857.857 0 1 0 0-1.715.857.857 0 0 0 0 1.715ZM10.588 27.908a.857.857 0 1 0 0-1.715.857.857 0 0 0 0 1.715ZM8.14 25.065a.858.858 0 1 0 0-1.716.858.858 0 0 0 0 1.716Z"/><path stroke-miterlimit="10" stroke-width=".5" d="M8.997 26.78a.858.858 0 1 0 0-1.715.858.858 0 0 0 0 1.715ZM8.14 21.635a.857.857 0 1 0 0-1.715.857.857 0 0 0 0 1.714Z"/><path stroke-miterlimit="10" stroke-width=".5" d="M8.14 19.93a.857.857 0 1 0 0-1.714.857.857 0 0 0 0 1.715ZM8.14 23.35a.857.857 0 1 0 0-1.715.857.857 0 0 0 0 1.714ZM8.14 14.357a.858.858 0 1 0 0-1.715.858.858 0 0 0 0 1.715Z"/><path stroke-miterlimit="10" stroke-width=".5" d="M8.14 16.072a.857.857 0 1 0 0-1.715.857.857 0 0 0 0 1.715ZM8.14 17.968a.858.858 0 1 0 0-1.716.858.858 0 0 0 0 1.716Z"/></g><defs><clipPath id="a"><path fill="#fff" d="M7 1.81h16.225v26.38H7z"/></clipPath></defs></svg>