<svg xmlns="http://www.w3.org/2000/svg" width="15" height="15" fill="none" viewBox="0 0 15 15"><g stroke="#7A7A7A" stroke-linecap="round" stroke-linejoin="round" stroke-width=".6" clip-path="url(#a)"><path d="M14.883.117H.117v14.766h14.766zM1.288 2.3l1.953 9.46M3.24 3.24 1.289 12.7M11.76 3.24l1.952 9.46M13.712 2.3l-1.953 9.46M3.24 3.24l9.46-1.952M11.76 3.24 2.3 1.289M2.3 13.712l9.46-1.953M12.7 13.712l-9.46-1.953"/><path d="m2.3 1.288.94 1.953L1.289 2.3.118.117zM1.288 12.7l1.953-.94-.941 1.952-2.183 1.17zM12.7 13.712l-.94-1.953 1.952.941 1.17 2.183zM13.712 2.3l-1.953.94.941-1.952 2.183-1.17z"/></g><defs><clipPath id="a"><path fill="#fff" d="M0 0h15v15H0z"/></clipPath></defs></svg>