<svg xmlns="http://www.w3.org/2000/svg" width="19" height="23" fill="none" viewBox="0 0 19 23"><mask id="a" width="19" height="23" x="0" y="0" fill="#000" maskUnits="userSpaceOnUse"><path fill="#fff" d="M0 0h19v23H0z"/><path d="M18.19 13.05v-1.482h.002v-1.36c0-2.215 0-4.507-.006-6.761a.63.63 0 0 0-.163-.404c-.573-.588-1.19-1.203-1.887-1.887a.56.56 0 0 0-.354-.152c-4.038-.005-8.16-.005-12.255 0a.57.57 0 0 0-.361.147c-.732.68-1.382 1.297-1.988 1.886a.6.6 0 0 0-.173.398 7814 7814 0 0 0-.002 16.121c.006.15.062.293.16.405.668.734 1.345 1.463 2.013 2.167.105.096.24.15.382.151 2.216.004 4.471.005 6.651.006q2.838 0 5.674.004a.53.53 0 0 0 .459-.218c.524-.658 1.084-1.348 1.665-2.05a.77.77 0 0 0 .186-.524c-.003-2.15-.003-4.335-.003-6.447M5.135 18.347v1.252l-1.674-1.252zM2.571 5.352c-.02 3.772-.015 7.608-.01 11.316v1.243c0 .18-.048.298-.168.408-.25.23-.49.46-.745.705l-.182.177V3.719l.118.113q.23.231.492.425c.36.25.498.557.495 1.095M16.086 18.46l-1.694 1.196-.077-1.196zM3.428 4.575l1.725-1.107-.053 1.19zm7.367-.309 3.015-.963v1.295a21 21 0 0 1-3.016-.332zm-2.198.007c-.986.197-1.986.315-2.99.353v-1.33zm.986-.253c-.819-.23-1.65-.474-2.452-.71l-.138-.04h5.448l-.09.03c-.281.09-.572.185-.86.267-.547.157-1.1.302-1.616.434a.6.6 0 0 1-.292.018zM5.525 5.313c.01-.186.037-.233.229-.24 1.352-.042 2.648-.279 3.74-.505q.114-.024.23-.025.072 0 .144.014c1.287.275 2.595.445 3.91.509q.032.001.075.008l.08.999.21 2.625q.03.376.064.745c.054.594.11 1.208.123 1.813.012.577-.036 1.171-.081 1.744l-.032.403a278 278 0 0 1-.222 2.779q-.047.56-.092 1.121-.006.079-.017.158a2 2 0 0 0-.02.355c.012.179-.032.223-.25.251-.928.12-2.023.266-3.112.45-.276.049-.53-.008-.796-.067a4 4 0 0 0-.387-.073l-1.419-.183c-.696-.092-1.416-.186-2.125-.272-.166-.02-.196-.049-.205-.2-.042-.709-.088-1.43-.134-2.125-.08-1.235-.163-2.513-.22-3.77-.027-.578.012-1.174.048-1.748.013-.203.027-.413.037-.619.03-.597.064-1.203.096-1.792.044-.77.089-1.57.126-2.355m9.377 6.411a.6.6 0 0 1-.011-.326c.448-1.486.91-2.996 1.358-4.456l.229-.746v10.482l-.034-.103c-.507-1.59-1.032-3.232-1.542-4.85m1.506 6.254h-2.095l.42-5.249zm-2.089-12.88 2.04-.09-1.626 5.308zm-5.2 13.68-3.493.885v-1.329zm1.411.34c.66.175 1.329.369 1.975.556l.532.153.034.01h-6.3l.353-.088c.535-.133 1.089-.27 1.634-.401.37-.089.764-.18 1.166-.24.2-.038.406-.035.604.01zm3.323-.635.072 1.143-2.587-.802zM4.808 12.81l.315 5.043H3.238zM3.245 5.022l1.835.106-.277 5.083zm-.212.894c.537 1.79 1.092 3.637 1.637 5.467a.47.47 0 0 1 .012.258c-.493 1.6-1 3.226-1.49 4.797l-.16.514zm12.924-1.343h-1.656V3.475zm-.643-3.07-.319.289c-.298.27-.606.55-.922.807a.82.82 0 0 1-.466.188c-2.464.012-5.003.012-7.76 0a.8.8 0 0 1-.434-.158c-.376-.29-.744-.591-1.132-.91l-.297-.245h11.36zM4.995 3.013l-.311.204-.517.334c-.38.24-.773.495-1.156.748-.105.07-.149.065-.24-.019a35 35 0 0 0-.85-.777l-.29-.262L3.38 1.577 5.074 2.96zM4.17 21.57c.409-.416.796-.809 1.192-1.204a.3.3 0 0 1 .19-.048c2.678-.003 5.45-.003 8.474 0 .13 0 .165.028.17.034.388.398.768.799 1.17 1.222l.219.23H3.94zm10.42-1.485 2.15-1.52.165.182c.268.297.52.578.773.867a.14.14 0 0 1-.006.073c-.448.56-.892 1.108-1.362 1.686l-.229.284zm3.124-16.156v15.024l-.101-.111c-.213-.241-.414-.463-.606-.693-.023-.028-.023-.111-.023-.166v-.018c-.02-3.936-.044-8.512-.058-13.016a.46.46 0 0 1 .106-.269c.177-.207.365-.41.564-.626zm-3.343-.966 1.522-1.355 1.731 1.729-1.015 1.114zM4.954 20.04l-1.6 1.607-1.738-1.868 1.336-1.238z"/></mask><path fill="#7A7A7A" d="M18.19 13.05v-1.482h.002v-1.36c0-2.215 0-4.507-.006-6.761a.63.63 0 0 0-.163-.404c-.573-.588-1.19-1.203-1.887-1.887a.56.56 0 0 0-.354-.152c-4.038-.005-8.16-.005-12.255 0a.57.57 0 0 0-.361.147c-.732.68-1.382 1.297-1.988 1.886a.6.6 0 0 0-.173.398 7814 7814 0 0 0-.002 16.121c.006.15.062.293.16.405.668.734 1.345 1.463 2.013 2.167.105.096.24.15.382.151 2.216.004 4.471.005 6.651.006q2.838 0 5.674.004a.53.53 0 0 0 .459-.218c.524-.658 1.084-1.348 1.665-2.05a.77.77 0 0 0 .186-.524c-.003-2.15-.003-4.335-.003-6.447M5.135 18.347v1.252l-1.674-1.252zM2.571 5.352c-.02 3.772-.015 7.608-.01 11.316v1.243c0 .18-.048.298-.168.408-.25.23-.49.46-.745.705l-.182.177V3.719l.118.113q.23.231.492.425c.36.25.498.557.495 1.095M16.086 18.46l-1.694 1.196-.077-1.196zM3.428 4.575l1.725-1.107-.053 1.19zm7.367-.309 3.015-.963v1.295a21 21 0 0 1-3.016-.332zm-2.198.007c-.986.197-1.986.315-2.99.353v-1.33zm.986-.253c-.819-.23-1.65-.474-2.452-.71l-.138-.04h5.448l-.09.03c-.281.09-.572.185-.86.267-.547.157-1.1.302-1.616.434a.6.6 0 0 1-.292.018zM5.525 5.313c.01-.186.037-.233.229-.24 1.352-.042 2.648-.279 3.74-.505q.114-.024.23-.025.072 0 .144.014c1.287.275 2.595.445 3.91.509q.032.001.075.008l.08.999.21 2.625q.03.376.064.745c.054.594.11 1.208.123 1.813.012.577-.036 1.171-.081 1.744l-.032.403a278 278 0 0 1-.222 2.779q-.047.56-.092 1.121-.006.079-.017.158a2 2 0 0 0-.02.355c.012.179-.032.223-.25.251-.928.12-2.023.266-3.112.45-.276.049-.53-.008-.796-.067a4 4 0 0 0-.387-.073l-1.419-.183c-.696-.092-1.416-.186-2.125-.272-.166-.02-.196-.049-.205-.2-.042-.709-.088-1.43-.134-2.125-.08-1.235-.163-2.513-.22-3.77-.027-.578.012-1.174.048-1.748.013-.203.027-.413.037-.619.03-.597.064-1.203.096-1.792.044-.77.089-1.57.126-2.355m9.377 6.411a.6.6 0 0 1-.011-.326c.448-1.486.91-2.996 1.358-4.456l.229-.746v10.482l-.034-.103c-.507-1.59-1.032-3.232-1.542-4.85m1.506 6.254h-2.095l.42-5.249zm-2.089-12.88 2.04-.09-1.626 5.308zm-5.2 13.68-3.493.885v-1.329zm1.411.34c.66.175 1.329.369 1.975.556l.532.153.034.01h-6.3l.353-.088c.535-.133 1.089-.27 1.634-.401.37-.089.764-.18 1.166-.24.2-.038.406-.035.604.01zm3.323-.635.072 1.143-2.587-.802zM4.808 12.81l.315 5.043H3.238zM3.245 5.022l1.835.106-.277 5.083zm-.212.894c.537 1.79 1.092 3.637 1.637 5.467a.47.47 0 0 1 .012.258c-.493 1.6-1 3.226-1.49 4.797l-.16.514zm12.924-1.343h-1.656V3.475zm-.643-3.07-.319.289c-.298.27-.606.55-.922.807a.82.82 0 0 1-.466.188c-2.464.012-5.003.012-7.76 0a.8.8 0 0 1-.434-.158c-.376-.29-.744-.591-1.132-.91l-.297-.245h11.36zM4.995 3.013l-.311.204-.517.334c-.38.24-.773.495-1.156.748-.105.07-.149.065-.24-.019a35 35 0 0 0-.85-.777l-.29-.262L3.38 1.577 5.074 2.96zM4.17 21.57c.409-.416.796-.809 1.192-1.204a.3.3 0 0 1 .19-.048c2.678-.003 5.45-.003 8.474 0 .13 0 .165.028.17.034.388.398.768.799 1.17 1.222l.219.23H3.94zm10.42-1.485 2.15-1.52.165.182c.268.297.52.578.773.867a.14.14 0 0 1-.006.073c-.448.56-.892 1.108-1.362 1.686l-.229.284zm3.124-16.156v15.024l-.101-.111c-.213-.241-.414-.463-.606-.693-.023-.028-.023-.111-.023-.166v-.018c-.02-3.936-.044-8.512-.058-13.016a.46.46 0 0 1 .106-.269c.177-.207.365-.41.564-.626zm-3.343-.966 1.522-1.355 1.731 1.729-1.015 1.114zM4.954 20.04l-1.6 1.607-1.738-1.868 1.336-1.238z"/><path stroke="#7A7A7A" stroke-width=".2" d="M18.19 13.05v-1.482h.002v-1.36c0-2.215 0-4.507-.006-6.761a.63.63 0 0 0-.163-.404c-.573-.588-1.19-1.203-1.887-1.887a.56.56 0 0 0-.354-.152c-4.038-.005-8.16-.005-12.255 0a.57.57 0 0 0-.361.147c-.732.68-1.382 1.297-1.988 1.886a.6.6 0 0 0-.173.398 7814 7814 0 0 0-.002 16.121c.006.15.062.293.16.405.668.734 1.345 1.463 2.013 2.167.105.096.24.15.382.151 2.216.004 4.471.005 6.651.006q2.838 0 5.674.004a.53.53 0 0 0 .459-.218c.524-.658 1.084-1.348 1.665-2.05a.77.77 0 0 0 .186-.524c-.003-2.15-.003-4.335-.003-6.447ZM5.135 18.347v1.252l-1.674-1.252zM2.571 5.352c-.02 3.772-.015 7.608-.01 11.316v1.243c0 .18-.048.298-.168.408-.25.23-.49.46-.745.705l-.182.177V3.719l.118.113q.23.231.492.425c.36.25.498.557.495 1.095ZM16.086 18.46l-1.694 1.196-.077-1.196zM3.428 4.575l1.725-1.107-.053 1.19zm7.367-.309 3.015-.963v1.295a21 21 0 0 1-3.016-.332zm-2.198.007c-.986.197-1.986.315-2.99.353v-1.33zm.986-.253c-.819-.23-1.65-.474-2.452-.71l-.138-.04h5.448l-.09.03c-.281.09-.572.185-.86.267-.547.157-1.1.302-1.616.434a.6.6 0 0 1-.292.018zM5.525 5.313c.01-.186.037-.233.229-.24 1.352-.042 2.648-.279 3.74-.505q.114-.024.23-.025.072 0 .144.014c1.287.275 2.595.445 3.91.509q.032.001.075.008l.08.999.21 2.625q.03.376.064.745c.054.594.11 1.208.123 1.813.012.577-.036 1.171-.081 1.744l-.032.403a278 278 0 0 1-.222 2.779q-.047.56-.092 1.121-.006.079-.017.158a2 2 0 0 0-.02.355c.012.179-.032.223-.25.251-.928.12-2.023.266-3.112.45-.276.049-.53-.008-.796-.067a4 4 0 0 0-.387-.073l-1.419-.183c-.696-.092-1.416-.186-2.125-.272-.166-.02-.196-.049-.205-.2-.042-.709-.088-1.43-.134-2.125-.08-1.235-.163-2.513-.22-3.77-.027-.578.012-1.174.048-1.748.013-.203.027-.413.037-.619.03-.597.064-1.203.096-1.792.044-.77.089-1.57.126-2.355Zm9.377 6.411a.6.6 0 0 1-.011-.326c.448-1.486.91-2.996 1.358-4.456l.229-.746v10.482l-.034-.103c-.507-1.59-1.032-3.232-1.542-4.85Zm1.506 6.254h-2.095l.42-5.249zm-2.089-12.88 2.04-.09-1.626 5.308zm-5.2 13.68-3.493.885v-1.329zm1.411.34c.66.175 1.329.369 1.975.556l.532.153.034.01h-6.3l.353-.088c.535-.133 1.089-.27 1.634-.401.37-.089.764-.18 1.166-.24.2-.038.406-.035.604.01zm3.323-.635.072 1.143-2.587-.802zM4.808 12.81l.315 5.043H3.238zM3.245 5.022l1.835.106-.277 5.083zm-.212.894c.537 1.79 1.092 3.637 1.637 5.467a.47.47 0 0 1 .012.258c-.493 1.6-1 3.226-1.49 4.797l-.16.514zm12.924-1.343h-1.656V3.475zm-.643-3.07-.319.289c-.298.27-.606.55-.922.807a.82.82 0 0 1-.466.188c-2.464.012-5.003.012-7.76 0a.8.8 0 0 1-.434-.158c-.376-.29-.744-.591-1.132-.91l-.297-.245h11.36zM4.995 3.013l-.311.204-.517.334c-.38.24-.773.495-1.156.748-.105.07-.149.065-.24-.019a35 35 0 0 0-.85-.777l-.29-.262L3.38 1.577 5.074 2.96zM4.17 21.57c.409-.416.796-.809 1.192-1.204a.3.3 0 0 1 .19-.048c2.678-.003 5.45-.003 8.474 0 .13 0 .165.028.17.034.388.398.768.799 1.17 1.222l.219.23H3.94zm10.42-1.485 2.15-1.52.165.182c.268.297.52.578.773.867a.14.14 0 0 1-.006.073c-.448.56-.892 1.108-1.362 1.686l-.229.284zm3.124-16.156v15.024l-.101-.111c-.213-.241-.414-.463-.606-.693-.023-.028-.023-.111-.023-.166v-.018c-.02-3.936-.044-8.512-.058-13.016a.46.46 0 0 1 .106-.269c.177-.207.365-.41.564-.626zm-3.343-.966 1.522-1.355 1.731 1.729-1.015 1.114zM4.954 20.04l-1.6 1.607-1.738-1.868 1.336-1.238z" mask="url(#a)"/></svg>