<svg xmlns="http://www.w3.org/2000/svg" width="30" height="30" fill="none" viewBox="0 0 30 30"><path stroke="#7A7A7A" stroke-miterlimit="10" stroke-width=".6" d="M27.95 13.455c-.41-.41-.97-.64-1.55-.65h-5.8a6.01 6.01 0 0 0-5.6-3.82 6.01 6.01 0 0 0-5.6 3.82H3.6c-.58.01-1.14.24-1.55.65s-.64.97-.65 1.55c.01.58.24 1.14.65 1.55s.97.64 1.55.65h5.8a6.01 6.01 0 0 0 5.6 3.82 6.01 6.01 0 0 0 5.6-3.82h5.8c.58-.01 1.14-.24 1.55-.65s.64-.97.65-1.55a2.23 2.23 0 0 0-.65-1.55Z"/><path stroke="#7A7A7A" stroke-miterlimit="10" stroke-width=".6" d="M15 21.025a6.02 6.02 0 1 0 0-12.04 6.02 6.02 0 0 0 0 12.04Z"/><path fill="#fff" stroke="#7A7A7A" stroke-miterlimit="10" stroke-width=".6" d="M7.58 18.635a1.288 1.288 0 1 0 .49-2.53c-.7-.13-1.38.32-1.51 1.02-.14.7.32 1.38 1.02 1.51ZM7.45 15.915a1.288 1.288 0 1 0 .49-2.53c-.7-.13-1.38.32-1.51 1.02-.14.7.31 1.38 1.02 1.51ZM7.99 13.195a1.288 1.288 0 1 0 .49-2.53c-.7-.14-1.38.32-1.51 1.02-.14.7.32 1.38 1.02 1.51ZM9.71 10.945c.7.13 1.38-.32 1.51-1.02.14-.7-.32-1.38-1.02-1.51-.7-.14-1.38.32-1.51 1.02s.32 1.38 1.02 1.51Z"/><path fill="#fff" stroke="#7A7A7A" stroke-miterlimit="10" stroke-width=".6" d="M9.03 20.885a1.288 1.288 0 1 0 .49-2.53c-.7-.13-1.38.32-1.51 1.02-.14.7.32 1.38 1.02 1.51Z"/><path fill="#fff" stroke="#7A7A7A" stroke-miterlimit="10" stroke-width=".6" d="M11.01 22.805a1.288 1.288 0 1 0 .49-2.53c-.7-.13-1.38.32-1.51 1.02-.14.7.32 1.37 1.02 1.51ZM13.59 23.525a1.288 1.288 0 1 0 .49-2.53c-.7-.13-1.38.32-1.51 1.02-.14.7.32 1.37 1.02 1.51ZM16.39 23.525a1.288 1.288 0 1 0 .49-2.53c-.7-.13-1.38.32-1.51 1.02-.14.7.32 1.37 1.02 1.51ZM21.66 10.045c-.71 0-1.29.58-1.29 1.29s.58 1.29 1.29 1.29 1.29-.58 1.29-1.29c.01-.72-.57-1.29-1.29-1.29ZM22.31 12.865c-.71 0-1.29.58-1.29 1.29s.58 1.29 1.29 1.29 1.29-.58 1.29-1.29-.58-1.29-1.29-1.29ZM22.07 15.685c-.71 0-1.29.58-1.29 1.29s.58 1.29 1.29 1.29 1.29-.58 1.29-1.29-.57-1.29-1.29-1.29ZM21.02 18.265c-.71 0-1.29.58-1.29 1.29s.58 1.29 1.29 1.29 1.29-.58 1.29-1.29-.58-1.29-1.29-1.29Z"/><path fill="#fff" stroke="#7A7A7A" stroke-miterlimit="10" stroke-width=".6" d="M19.22 19.955c-.71 0-1.29.58-1.29 1.29s.58 1.29 1.29 1.29 1.29-.58 1.29-1.29-.58-1.29-1.29-1.29ZM19.82 8.105c-.71 0-1.29.58-1.29 1.29s.58 1.29 1.29 1.29 1.29-.58 1.29-1.29-.58-1.29-1.29-1.29ZM17.51 6.595c-.71 0-1.29.58-1.29 1.29s.58 1.29 1.29 1.29 1.29-.58 1.29-1.29-.58-1.29-1.29-1.29ZM14.74 6.395c-.71 0-1.29.58-1.29 1.29s.58 1.29 1.29 1.29 1.29-.58 1.29-1.29a1.28 1.28 0 0 0-1.29-1.29ZM12.16 6.595c-.71 0-1.29.58-1.29 1.29s.58 1.29 1.29 1.29 1.29-.58 1.29-1.29-.58-1.29-1.29-1.29Z"/></svg>