<svg xmlns="http://www.w3.org/2000/svg" width="16" height="16" fill="none" viewBox="0 0 16 16"><path stroke="#7A7A7A" stroke-linecap="round" stroke-linejoin="round" stroke-width=".6" d="M15.304 7.905A7.402 7.402 0 1 0 .501 7.9a7.402 7.402 0 0 0 14.803.006M10.072 2.666l.665-1.602M13.138 5.733l1.605-.662M13.138 10.071l1.605.666M10.072 13.138l.665 1.605M5.733 13.138l-.663 1.605M2.666 10.071l-1.602.666M2.666 5.733 1.064 5.07M5.733 2.666 5.07 1.064"/><path stroke="#7A7A7A" stroke-linecap="round" stroke-linejoin="round" stroke-width=".6" d="M5.733 2.67 7.903.5l2.169 2.17M2.666 5.732l.003-3.063h3.064M2.666 10.071.5 7.901l2.166-2.169M5.733 13.138H2.669l-.003-3.067M10.072 13.138l-2.17 2.17-2.17-2.17M13.138 10.071v3.067h-3.066M13.138 5.732l2.17 2.17-2.17 2.17M10.072 2.669h3.066v3.063"/><path stroke="#7A7A7A" stroke-linecap="round" stroke-linejoin="round" stroke-width=".6" d="m10.969 4.836 2.169.897-.897 2.17"/><path stroke="#7A7A7A" stroke-linecap="round" stroke-linejoin="round" stroke-width=".6" d="m12.241 7.902.897 2.17-2.17.897M10.968 10.969l-.897 2.17-2.17-.898"/><path stroke="#7A7A7A" stroke-linecap="round" stroke-linejoin="round" stroke-width=".6" d="m7.902 12.241-2.17.897-.897-2.17M4.835 10.969l-2.169-.897.9-2.17"/><path stroke="#7A7A7A" stroke-linecap="round" stroke-linejoin="round" stroke-width=".6" d="m3.566 7.903-.9-2.17 2.17-.897M4.835 4.836l.898-2.166 2.169.897M7.902 3.567l2.17-.897.897 2.166"/><path stroke="#7A7A7A" stroke-linecap="round" stroke-linejoin="round" stroke-width=".6" d="m7.902 3.566-3.067 1.27-1.269 3.066 1.27 3.067 3.066 1.272 3.067-1.272 1.272-3.067-1.272-3.067z"/></svg>