<svg xmlns="http://www.w3.org/2000/svg" width="30" height="25" fill="none" viewBox="0 0 30 25"><path stroke="#7A7A7A" stroke-miterlimit="10" stroke-width=".6" d="M19.9 10.7h6.5c1.2 0 2.2.91 2.2 2s-1 2-2.2 2h-6.5M10.1 14.7H3.6c-1.2 0-2.2-.91-2.2-2s1-2 2.2-2H10"/><path stroke="#7A7A7A" stroke-linecap="round" stroke-linejoin="round" stroke-width=".5" d="M20.3 12.5c0-2.9-2.4-5.3-5.3-5.3s-5.3 2.4-5.3 5.3 2.4 5.3 5.3 5.3 5.3-2.3 5.3-5.3M16.5 8.8l.5-1.2M18.7 11l1.2-.5M18.7 14.1l1.2.5M16.5 16.3l.5 1.1M13.4 16.3l-.5 1.1M11.2 14.1l-1.2.5M11.2 11l-1.2-.5M13.4 8.8l-.5-1.2"/><path stroke="#7A7A7A" stroke-linecap="round" stroke-linejoin="round" stroke-width=".5" d="M13.4 8.8 15 7.2l1.5 1.6M11.2 11V8.8h2.2M11.2 14.1l-1.6-1.6 1.6-1.5M13.4 16.3h-2.2v-2.2M16.5 16.3 15 17.8l-1.6-1.5M18.7 14.1v2.2h-2.2M18.7 11l1.6 1.5-1.6 1.6M16.5 8.8h2.2V11M17.2 10.3l1.5.7-.6 1.5"/><path stroke="#7A7A7A" stroke-linecap="round" stroke-linejoin="round" stroke-width=".5" d="m18.1 12.5.6 1.6-1.5.6M17.2 14.7l-.7 1.6-1.5-.7M15 15.6l-1.6.7-.6-1.6M12.8 14.7l-1.6-.6.6-1.6M11.8 12.5l-.6-1.5 1.6-.7M12.8 10.3l.6-1.5 1.6.6M15 9.4l1.5-.6.7 1.5"/><path stroke="#7A7A7A" stroke-linecap="round" stroke-linejoin="round" stroke-width=".5" d="m15 9.4-2.2.9-1 2.2 1 2.2 2.2.9 2.2-.9.9-2.2-.9-2.2z"/></svg>