<svg xmlns="http://www.w3.org/2000/svg" width="31" height="25" fill="none" viewBox="0 0 31 25"><path stroke="#7A7A7A" stroke-miterlimit="10" stroke-width=".6" d="M26.73 14.9H3.93c-1.2 0-2.2-.91-2.2-2s1-2 2.2-2h22.8c1.2 0 2.2.91 2.2 2s-1 2-2.2 2Z"/><path fill="#fff" stroke="#7A7A7A" stroke-miterlimit="10" stroke-width=".4" d="M15.33 17.8c2.93 0 5.3-2.37 5.3-5.3s-2.37-5.3-5.3-5.3-5.3 2.37-5.3 5.3 2.38 5.3 5.3 5.3Z"/><path stroke="#7A7A7A" stroke-miterlimit="10" stroke-width=".4" d="M15.33 16.95c2.46 0 4.45-1.99 4.45-4.45s-1.99-4.45-4.45-4.45-4.45 1.99-4.45 4.45 2 4.45 4.45 4.45ZM8.46 13.72c.45 0 .82-.37.82-.82s-.37-.82-.82-.82-.82.37-.82.82c.01.45.37.82.82.82ZM6.8 13.72c.45 0 .82-.37.82-.82s-.37-.82-.82-.82-.82.37-.82.82.37.82.82.82ZM5.13 13.72c.45 0 .82-.37.82-.82s-.37-.82-.82-.82-.82.37-.82.82c.01.45.37.82.82.82ZM3.47 13.72c.45 0 .82-.37.82-.82s-.37-.82-.82-.82-.82.37-.82.82.37.82.82.82ZM27.16 13.72c.45 0 .82-.37.82-.82s-.37-.82-.82-.82-.82.37-.82.82c.01.45.37.82.82.82ZM25.5 13.72c.45 0 .82-.37.82-.82s-.37-.82-.82-.82-.82.37-.82.82.37.82.82.82ZM23.83 13.72c.45 0 .82-.37.82-.82s-.37-.82-.82-.82-.82.37-.82.82c.01.45.37.82.82.82ZM22.17 13.72c.45 0 .82-.37.82-.82s-.37-.82-.82-.82-.82.37-.82.82.37.82.82.82Z"/><path stroke="#7A7A7A" stroke-miterlimit="10" stroke-width=".4" d="M18.33 9.5h-5.99v5.99h5.99z"/><path stroke="#7A7A7A" stroke-miterlimit="10" stroke-width=".4" d="m19.573 12.498-4.235-4.236-4.236 4.236 4.236 4.235z"/></svg>