<svg xmlns="http://www.w3.org/2000/svg" width="30" height="25" fill="none" viewBox="0 0 30 25"><path fill="#7A7A7A" d="M15.824 7.136c.665-.212 1.321-.166 1.967.068.984.357 1.733 1.014 2.338 1.853.077.106.135.226.222.325a.1.1 0 0 0 .029.032l.018.035c-.017.049.022.077.04.113l.225.436c.018.036.02.083.068.098l.028.054c-.016.015-.007.03 0 .045q.12.282.208.574l5.04 1.1c.05.012 1.124.271 1.587.796.463.526.397 1.347.353 1.537l-.007.03c-.043.191-.335.957-.98 1.236-.19.082-.418.116-.646.128l-.002.037-6.332-.48a1 1 0 0 0-.115.099l-.538.278c-.105-.002-.197.05-.297.072-.743.17-1.448.043-2.126-.276a4.7 4.7 0 0 1-.873-.539l-1.69-.125a5.8 5.8 0 0 1-.243 1.383 1.5 1.5 0 0 0-.088.268.05.05 0 0 0 0 .03l-.029.056c-.108.116-.152.274-.224.41l-.048.095c-.312.54-.69 1.028-1.187 1.41-.775.594-1.64.821-2.604.607-.156-.034-.31-.081-.464-.122l-.667-.333c.005-.023-.014-.028-.028-.037-.906-.584-1.385-1.418-1.443-2.492q0-.048-.002-.095l-.052.127-3.868-1.654c-.044-.019-.939-.419-1.24-.994-.303-.576-.078-1.366 0-1.546l.011-.028c.077-.18.492-.888 1.117-1.067.255-.073.556-.054.827-.005l6.09.613q.676-.425 1.416-.747l.433-.18c.411-.162.829-.311 1.28-.327l.112.057c.19.26.303.56.4.862q.046.141.088.283a4.7 4.7 0 0 1-.01-1.695c.142-.777.47-1.454 1.094-1.965a.7.7 0 0 0 .163-.137l.52-.268c.052.022.088-.022.13-.035m-5.271 11.589c0 .055.02.061.068.061q.124 0 .25-.013l.245-.033q.302-.054.581-.18l-1.108-.552q-.017.364-.036.717m-1.178-.216c.289.13.595.217.91.257.028.004.05.006.05-.04.01-.252.025-.504.038-.767zm2.6-.082q.293-.17.55-.388l.166-.15c.046-.043.027-.067-.006-.1q-.166-.166-.328-.333l-.177-.177c-.069.387-.137.755-.205 1.148m-3.666-.716q-.027.02-.026.037l.02.036q.335.339.752.57l-.16-1.114c-.203.164-.394.32-.586.47m2.95-.51a.1.1 0 0 0-.064.035q-.264.253-.53.5c-.045.041-.036.056.012.08q.51.25 1.015.506c.049.025.069.016.079-.036.062-.373.13-.743.199-1.125zm-2 1.035c.009.069.026.074.084.041q.434-.24.873-.478c.052-.026.066-.047.014-.095-.136-.127-.264-.26-.4-.39a.1.1 0 0 0-.061-.039l-.66-.102zm3.09-1.096c.177.181.34.346.5.512.042.043.064.004.085-.02.084-.103.17-.206.25-.314a.8.8 0 0 0 .145-.234zm-2.26.14c.12.118.233.224.342.333.024.023.04.02.06 0l.407-.38zm-2.475-.754q.1.418.323.784l.159.232c.028.04.051.022.078 0q.254-.206.51-.41c.052-.04.031-.057-.013-.08-.345-.17-.689-.342-1.057-.526m4.458-3.956q-.645.277-1.293.546a.4.4 0 0 0-.142.105l-1.205 1.298-.08.088q-.005.03-.007.061-.072.628-.14 1.255a.17.17 0 0 0 .03.118q.306.476.61.956.018.035.052.054.036.018.075.012.54-.035 1.08-.063a.2.2 0 0 0 .14-.059q.466-.44.933-.88a.18.18 0 0 0 .063-.104l.341-1.89a.2.2 0 0 0 .006-.046l-.01-.048q-.178-.679-.351-1.358c-.019-.072-.044-.07-.102-.045m-2.971 4.345c-.004.036.01.046.045.05.15.022.3.047.47.074l-.451-.708zm2.384.065c.183-.01.33-.02.479-.026.047 0 .056-.032.063-.068l.082-.468-.018-.014zm1.262-1.194c-.12.114-.275.21-.35.349s-.069.32-.097.484c-.016.088-.066.207-.05.269l.012.023c.056.067.196.01.3.005.239-.01.477-.027.722-.042-.111-.427-.22-.844-.332-1.28zm-4.12-.302c-.026-.043-.044-.043-.077-.007q-.381.413-.764.824c-.035.037-.036.06.015.085.355.175.71.352 1.079.537l.094-.838a.14.14 0 0 0-.02-.09q-.166-.255-.326-.51m5.481-.989c-.31.293-.62.589-.931.88a.095.095 0 0 0-.025.112q.103.396.204.791l.144.547c.448-.73.611-1.517.646-2.347zm-6.493.778q-.043-.008-.054.022l-.005.025a3.5 3.5 0 0 0 0 .907l.792-.855zM3.69 10.83a1.3 1.3 0 0 0-.394.042c-.546.156-.917.789-.982.939l-.012.029c-.064.149-.263.857 0 1.357.278.531 1.161.926 1.174.93l3.837 1.639c-.002-.644.161-1.255.413-1.849l.047-.095c.068-.141.165-.27.195-.428l.028-.057c.03.005.033-.022.043-.038q.212-.332.473-.627l-3.735-1.595a4 4 0 0 0-.73-.209l-.357-.035zm8.764 4.933.375-.355c.023-.022.062-.039.05-.085q-.094-.355-.187-.715h-.033c-.068.377-.137.754-.205 1.155m-3.353-.848c-.12.101-.214.21-.315.313a.1.1 0 0 0-.017.017.058.058 0 0 0 .006.071c.077.118.151.24.24.376zm9.403-.354c-.047-.047-.06-.025-.08.02q-.135.307-.274.615l-.105.23c.415.056.837.01 1.23-.136-.265-.252-.52-.488-.771-.73m2.524-3.57c.183.698.24 1.402.117 2.11l-.073.335q-.116.457-.339.85l4.497 1.017c.01 0 1.078.227 1.671-.027.56-.239.825-.927.86-1.085l.008-.03c.036-.16.093-.894-.309-1.35-.427-.485-1.488-.74-1.5-.743zm-4.48 3.864q.422.275.897.432l.32.09c.04.009.055-.007.069-.038.126-.286.25-.571.387-.872zm4.072-.385a3 3 0 0 1-.42.498l3.943.299zm-1.777-.676c-.04-.009-.06-.003-.076.037q-.085.204-.18.406a.07.07 0 0 0 0 .077l.02.02.909.853c-.06-.434-.117-.839-.171-1.244-.008-.043-.032-.052-.069-.06q-.216-.041-.433-.09m-11.009.441q-.105.28-.18.569l-.045.192c-.005.027-.015.057.03.063.257.035.513.068.786.103zm5.244-1.967-.304 1.689a.2.2 0 0 0 0 .073l.294 1.132a.3.3 0 0 0 .043-.026l.923-.871c.05-.047.027-.078.007-.118l-.657-1.359-.283-.584a.4.4 0 0 0-.023.064m-4.915 1.957c-.044.018-.063.032-.031.082.163.252.323.506.493.772.149-.161.287-.317.434-.465a.34.34 0 0 0 .102-.22c.017-.202.041-.403.065-.616zm11.58.827q.072-.051.14-.107h.002c.28-.222.51-.5.676-.816l-.976-.198zM16.3 13.31c.05.423.103.846.151 1.27.008.07.045.054.089.044l1.197-.277.426-.1-.756-.715a.2.2 0 0 0-.103-.055l-.996-.204zm-.758.62a.04.04 0 0 0-.014.014.04.04 0 0 0 0 .038l.013.015q.296.33.646.6l.033.004-.146-1.212c-.186.189-.358.367-.532.54m-1.417-1.907q.2.946.229 1.915.005.263-.004.525l1.417.104a5.8 5.8 0 0 1-.84-.944c-.08-.115-.138-.244-.24-.34l-.029-.056c.018-.048-.02-.076-.04-.112l-.224-.436c-.018-.036-.02-.084-.069-.098l-.028-.054c.015-.015.005-.03 0-.046-.058-.15-.121-.301-.172-.458M10.182 13.4c-.234.077-.454.17-.676.261-.045.018-.052.05-.056.091-.015.155-.033.308-.054.497zm7.655.204.54.508.17-.383-.703-.142q-.005.009-.007.017m-8.447-1.48c-.653.534-1.187 1.154-1.496 1.963.021-.006.035-.007.047-.012q.627-.264 1.253-.525c.055-.023.06-.06.065-.107l.137-1.23c.004-.02.012-.042.008-.065zm10.308 1.593c.325.066.626.126.924.19.046.01.057-.018.068-.05l.125-.352q.117-.39.141-.796zm-5.903-1.89c-.146.063-.292.129-.44.186-.072.027-.088.05-.05.126.255.517.504 1.039.755 1.558a.2.2 0 0 0 .076.112c.016-.363-.16-1.631-.264-1.953-.018-.055-.042-.044-.077-.029m1.074 1.259q.098.165.207.323l.232.308c.018.022.034.092.087.04l.545-.56-1.14-.233zm4.049.416c-.018.04-.007.052.032.06.116.02.23.043.355.068-.038-.249-.068-.49-.106-.764zm.925-1.903c-.052-.047-.07-.035-.094.022q-.169.389-.342.775a.2.2 0 0 0-.015.048l-.001.05.148 1.063c.417-.336.823-.663 1.23-.987.04-.033.05-.054.005-.095a80 80 0 0 1-.931-.876m-3.372-2.41c-.063-.014-.095-.01-.121.059q-.192.46-.39.92a.25.25 0 0 0-.02.137q.101.82.198 1.64c.004.046.025.09.06.121l1.218 1.146a.2.2 0 0 0 .055.042l.065.019q.52.1 1.04.212c.066.015.086-.008.11-.06q.206-.471.42-.942a.25.25 0 0 0 .019-.145c-.068-.478-.132-.957-.2-1.435l-.024-.18-.044-.043-1.305-1.23a.2.2 0 0 0-.104-.055 48 48 0 0 1-.977-.206m-4.073 3.244c-.04.015-.037.039-.028.073q.06.226.117.452l.131.504h.019l.217-1.219zM9.7 11.989c-.052.01-.063.04-.068.084l-.147 1.355c.262-.108.502-.225.751-.313.236-.086.444-.233.605-.425.331-.37.673-.728 1.014-1.101h-.053zm6.56.977c.004.036.024.05.058.057q.333.07.664.136l.012-.018-.802-.758c.026.21.047.396.068.583m-1.396-.236 1.153.235c-.033-.273-.065-.533-.095-.793a.13.13 0 0 0-.05-.083c-.171-.16-.341-.322-.524-.495zm-3.759-.01c.013.01.02.01.021.01l.932-.382c.026-.011.04-.024.032-.055l-.13-.493zm3.242-1.005c-.032.006-.062.012-.048.056q.133.445.333.864l.46-1.072zm-5.69.798q.094-.099.193-.19.51-.479 1.077-.861L5.05 10.97zm12.013-1.267-.695.148.989.93c.024-.02.014-.046.014-.068a5 5 0 0 0-.058-.654l-.04-.22c-.035-.171-.034-.172-.21-.136m-8.478.307a.08.08 0 0 0-.016.086l.13.514c.008.04.02.061.068.04l.49-.206a.1.1 0 0 0 .038-.025.1.1 0 0 0 .018-.043q.124-.693.249-1.385l-.02-.014zm7.122.444.262-.583c.01-.02.02-.04-.004-.062l-.398-.373zm-6.163-.133c.207-.087.39-.17.578-.242.065-.026.071-.055.054-.117q-.05-.18-.106-.36l-.12-.358a1.6 1.6 0 0 0-.152-.34zm2.322-.561a.067.067 0 0 0 .02.096c.122.111.244.226.381.356l-.132-1.083c-.098.23-.182.431-.27.63m-3.838-.54q-.465.21-.907.46l-.286.164-.128.08-.003.034-.043-.005-.316.2c.003.007.01.014.01.022q.923-.177 1.844-.35c.053-.01.07-.027.053-.083a7 7 0 0 1-.119-.473c-.016-.077-.044-.076-.105-.048m2.455-.368q.008.399.078.793l.049.269c.01.05.03.047.068.04.256-.055.515-.107.788-.163zm-1.03-.104c-.385.064-.741.2-1.096.337-.051.02-.036.05-.027.084.036.14.07.285.109.422a.5.5 0 0 0 .061.185zm1.153-.1 1.045.987c.136-.327.272-.642.409-.957a.14.14 0 0 0 .01-.069c-.04-.339-.082-.677-.126-1.04zm5.741.971c.271-.056.52-.108.77-.157.053-.012.062-.032.047-.08a6 6 0 0 0-.33-.867zm-.836-.602a.1.1 0 0 0 .012.037l.024.03q.252.232.498.469c.044.043.058.024.077-.018q.24-.546.488-1.101l-1.214-.257zm-.275-.223c-.032-.227-.06-.427-.087-.632a.05.05 0 0 0-.013-.031.05.05 0 0 0-.031-.015l-.757-.159zM14.4 8.76l-.021.037c-.157.379-.25.782-.278 1.191l1.272-1.025q-.013-.017-.019-.018c-.302-.065-.604-.127-.906-.195q-.034-.007-.048.01m5.294.187-.591.552 1.182.249a6 6 0 0 0-.518-.786c-.022-.028-.041-.044-.073-.015m-3.83.752q.094-.139.15-.297c.036-.097.146-.22.09-.282s-.201-.063-.32-.068zM18.438 8q-.547.146-1.092.287l-.532.137c.228.214.45.41.656.62.098.1.225.167.364.19.293.053.583.12.882.183l-.008-.083c-.058-.422-.119-.844-.173-1.266-.01-.076-.028-.086-.097-.068m.517 1.326.517-.477c.085-.08.107-.1.067-.155l-.06-.068a5 5 0 0 0-.709-.637zm-2.454-.435c-.01.027-.036.056.02.068l.658.135-.547-.512zm-.87-1.217q.065.534.128 1.07 0 .025.017.044a.06.06 0 0 0 .043.02q.185.034.366.078c.052.012.07-.007.088-.051a6 6 0 0 1 .157-.361.1.1 0 0 0 .01-.066.1.1 0 0 0-.04-.053q-.243-.226-.485-.455l-.27-.252q-.014.02-.014.026m-.32-.037c-.275.189-.51.43-.69.709l-.076.122c-.03.052-.015.065.038.075q.262.053.522.11l.41.086-.136-1.111c-.013-.047-.015-.046-.069.009m1.94-.352c-.054-.011-.068.01-.086.052-.11.264-.225.527-.337.79-.008.018-.023.035-.004.063l1.617-.423a3.8 3.8 0 0 0-1.19-.482m-.298-.044a2.5 2.5 0 0 0-1.004.091l-.136.047c-.074.01-.076.012-.048.052l.73.69c.044.042.068.052.093-.017.04-.11.09-.216.136-.324z"/><path fill="#7A7A7A" d="m15.824 7.136.03.095zm1.967.068-.034.094zm2.338 1.853-.081.058zm.222.325.086-.05-.005-.009-.006-.007zm.029.032.088-.047-.011-.021-.02-.014zm.018.035.095.033.014-.04-.02-.04zm.04.113.09-.046h-.001zm.225.436-.089.046zm.068.098.09-.045-.02-.04L20.76 10zm.028.054.068.073.055-.05-.034-.067zm0 .045.092-.039-.001-.002zm.208.574-.096.029.017.056.057.012zm5.04 1.1.024-.097h-.002zm1.587.796.075-.066zm.353 1.537-.097-.022zm-.007.03.098.022zm-.98 1.236.04.092zm-.646.128-.005-.1-.09.005-.004.09zm-.002.037-.007.1.102.007.005-.102zm-6.332-.48.007-.1-.037-.003-.03.022zm-.115.099.046.089.015-.008.011-.012zm-.538.278-.002.1h.026l.022-.01zm-.297.072-.022-.097zm-2.126-.276-.042.09zm-.873-.539.062-.079-.024-.018-.03-.003zm-1.69-.125.007-.1-.1-.007-.007.1zm-.243 1.383.092.04.003-.01zm-.088.268.095.033.002-.01zm0 .03.09.044.018-.037-.014-.04zm-.029.056.073.069.01-.01.007-.014zm-.224.41-.089-.046v.002zm-.048.095.087.05.002-.003zm-1.187 1.41-.061-.08zm-2.604.607.022-.098zm-.464-.122-.045.09.01.004.01.002zm-.667-.333-.098-.02-.015.075.068.034zm-.028-.037.055-.084h-.001zm-1.443-2.492-.1.004zm-.002-.095.1-.003-.01-.472-.182.436zm-.052.127-.04.092.093.04.04-.094zm-3.868-1.654-.04.092zm-1.24-.994-.09.047zm0-1.546.091.04v-.001zm.011-.028-.092-.04v.002zm1.117-1.067-.027-.096zm.827-.005-.017.098.007.001zm6.09.613-.01.1.033.003.03-.018zm1.416-.747-.038-.092h-.002zm.433-.18-.037-.093-.002.001zm1.28-.327.044-.09-.023-.01h-.025zm.112.057.081-.06-.014-.019-.022-.01zm.4.862-.094.03zm.088.283-.096.028.194-.045zm-.01-1.695-.098-.018zm1.094-1.965-.052-.085-.006.003-.006.005zm.163-.137-.046-.088-.017.008-.012.014zm.52-.268.04-.092-.044-.018-.042.021zm-5.142 11.554-.1-.007v.007zm.068.061v.1zm.25-.013.008.1h.005zm.245-.033.014.1.004-.001zm.581-.18.041.092.193-.087-.19-.094zm-1.108-.552.044-.09-.136-.068-.008.153zm-1.214.5-.048-.087-.176.097.183.082zm.91.258.013-.1h-.001zm.05-.04-.1-.003v.004zm.038-.767.1.005.009-.18-.157.087zm1.602.468-.099-.017-.037.21.186-.107zm.55-.388.065.076.002-.002zm.166-.15.068.074v-.002zm-.006-.1.071-.07-.001-.002zm-.328-.333.072-.07h-.001zm-.177-.177.07-.07-.136-.136-.033.189zm-3.871.432-.062-.079zm-.026.037-.1.003.001.024.011.02zm.02.036-.088.048.007.012.01.01zm.752.57-.049.087.176.097-.028-.199zm-.16-1.114.1-.014-.025-.174-.137.11zm2.364-.04-.006-.1-.01.002zm-.064.036.07.073.007-.009zm-.53.5-.069-.073zm.012.08-.045.089zm1.015.506-.045.09zm.079-.036.098.018v-.002zm.199-1.125.098.018.022-.125-.126.007zm-2.711 1.075.099-.013zm.084.041-.049-.087zm.873-.478-.045-.09-.003.002zm.014-.095.069-.073zm-.4-.39-.08.062.01.01zm-.061-.039.022-.097-.007-.001zm-.66-.102.015-.099-.134-.021.02.134zm3.24-.033-.006-.1-.22.012.154.157zm.5.512.072-.07zm.085-.02.076.064zm.25-.314-.075-.067-.006.008zm.145-.234.093.038.06-.147-.159.01zm-3.24.195-.006-.1-.225.014.16.158zm.342.334-.071.07.003.004zm.06 0-.068-.073-.001.001zm.407-.38.068.072.201-.188-.275.016zm-3.284-.707.045-.09-.192-.095.05.209zm.323.784-.086.052.003.004zm.159.232-.083.056.002.003zm.078 0-.063-.078zm.51-.41-.061-.079zm-.013-.08.045-.088zm3.401-4.482-.04-.092zm-1.293.546-.038-.092h-.002zm-.142.105.073.068.001-.002zm-1.205 1.298-.074-.069-.001.002zm-.08.088-.074-.066-.02.022-.004.03zm-.007.061.1.011v-.01zm-.14 1.255.1.012v-.001zm.03.118.085-.054-.004-.005zm.61.956.091-.044-.006-.01zm.052.054-.045.089zm.075.012-.007-.1h-.01zm1.08-.063-.001-.1h-.004zm.14-.059-.069-.072v.001zm.933-.88-.063-.077-.005.005zm.063-.104.099.02v-.002zm.341-1.89-.097-.023-.001.006zm.006-.046h.1v-.012l-.002-.01zm-.01-.048.097-.022v-.004zm-.351-1.358.097-.024zm-3.073 4.3-.1-.011zm.045.05.013-.098zm.47.074-.016.099.22.035-.12-.188zm-.451-.708.084-.054-.152-.239-.031.282zm2.32.649-.069-.073-.196.186.27-.014zm.479-.026v-.1h-.004zm.063-.068.099.018v-.001zm.082-.468.099.017.01-.06-.05-.038zm-.018-.014.06-.08-.068-.05-.061.058zm.656-.618.069.073zm-.35.349-.088-.048zm-.097.484.098.018zm-.05.269-.097.024.003.01.005.01zm.012.023-.09.045.006.01.007.01zm.3.005.004.1zm.722-.042.006.1.122-.008-.031-.117zm-.332-1.28.097-.024-.042-.163-.123.114zm-4.324-.11.085-.052v-.001zm-.078-.007-.074-.068zm-.764.824.073.068zm.015.085-.044.09zm1.079.537-.045.09.128.063.016-.142zm.094-.838-.1-.012zm-.02-.09.084-.054h-.001zm5.154-1.5-.042-.09-.015.007-.011.01zm-.931.88.065.076.003-.003zm-.031.052-.098-.022zm.006.06.097-.025-.002-.009-.004-.008zm.204.791.097-.025zm.144.547-.097.026.06.227.122-.2zm.646-2.347.1.004.006-.166-.15.071zm-6.53.795-.015.098zm-.055.022-.092-.04-.005.01-.002.011zm-.005.025-.099-.019v.006zm0 .907-.1.013.028.213.145-.158zm.792-.855.073.068.131-.141-.191-.026zm-4.658-4.54h.1v-.098l-.097-.003zm-.394.041.027.096zm-.982.939.092.04v-.001zm-.012.029-.092-.04zm0 1.357-.089.047zm1.174.93.039-.092-.008-.003zm3.837 1.639-.039.092.14.06v-.153zm.413-1.849-.09-.045-.003.006zm.047-.095.09.045v-.002zm.195-.428-.09-.045-.006.013-.003.013zm.028-.057.017-.099-.073-.012-.033.066zm.043-.038-.084-.054zm.473-.627.075.066.091-.104-.127-.054zm-3.735-1.595.04-.092h-.001zm-.73-.209.017-.099h-.007zm-.357-.035h-.1v.09l.09.01zm8.764 4.93-.099-.017-.05.295.218-.206zm.375-.355-.068-.073zm.05-.085.097-.025zm-.187-.715.097-.025-.02-.075h-.077zm-.033 0v-.1h-.083l-.015.082zm-3.558.307.099.01.027-.25-.191.164zm-.315.313.055.083.009-.006.008-.008zm-.017.017-.084-.054h-.001zm-.01.024-.098-.012zm.003.025-.096.03zm.012.022.084-.055-.004-.006-.006-.006zm.242.376-.084.055.153.233.03-.277zm9.488-1.131-.07.07v.002zm-.08.02.092.04zm-.274.615.091.042v-.001zm-.105.23-.091-.04-.056.122.134.018zm1.23-.136.034.094.15-.056-.116-.11zm1.753-4.299.022-.098-.16-.034.042.157zm.117 2.11.097.022.001-.004zm-.073.335.097.024.001-.003zm-.339.85-.087-.05-.066.118.131.03zm4.497 1.017-.022.097.011.003h.011zm1.671-.027-.039-.092zm.86-1.085.098.022zm.008-.03-.098-.023zm-.309-1.35.075-.066zm-1.5-.743-.02.098h.002zm-9.412 2.787-.023-.097-.228.053.196.128zm.897.432-.031.095.004.001zm.32.09-.026.096.005.002zm.069-.038.091.041zm.387-.872.09.041.084-.184-.197.045zm2.4.003.021-.098-.067-.015-.038.057zm-.42.498-.07-.073-.165.155.227.018zm3.942.299-.008.1.03-.198zm-5.3-1.473-.022.098zm-.076.037.092.038zm-.18.406.084.055.005-.006.003-.007zm-.01.052.099-.017zm.01.025-.085.053.006.01.008.008zm.02.02-.071.07.002.003zm.909.853-.069.073.206.194-.038-.28zm-.171-1.244.099-.013v-.004zm-.069-.06-.02.099h.002zm-11.442.352.084-.053-.107-.168-.07.186zm-.18.569-.097-.025v.002zm-.045.192-.097-.023v.003zm.03.063-.014.1zm.786.103-.013.1.212.027-.115-.18zm4.653-2.894-.097-.027-.001.009zm-.304 1.689.099.02v-.002zm0 .073-.098.02.002.005zm.294 1.132-.096.025.03.12.111-.056zm.043-.026.06.08.009-.008zm.923-.871.069.072zm.007-.118.09-.044zm-.657-1.359.09-.043zm-.283-.584.09-.044-.093-.191-.089.194zm-4.938 2.02.038.093zm-.031.083-.084.054zm.493.772-.084.054.07.11.087-.096zm.434-.465-.07-.072-.001.002zm.102-.22-.1-.009v.002zm.065-.616.099.011.018-.169-.156.066zm10.516 1.274-.099.014.023.16.133-.092zm.14-.107.063.08.008-.009zm.002 0v-.1h-.042l-.029.029zm0 0v.1h.036l.027-.022zm.677-.816.09.046.06-.118-.13-.026zm-.976-.198.02-.098-.139-.028.02.14zm-3.284-.622-.098-.02-.003.016.002.016zm.151 1.27-.1.01zm.089.044.023.097zm1.197-.277.023.097zm.426-.1.023.097.18-.042-.134-.128zm-.756-.715-.07.071.002.002zm-.103-.055-.02.098h.001zm-.996-.204.02-.098-.098-.02-.02.097zm-.766.657.055.083.008-.005.008-.008zm-.014.014-.088-.047zm-.005.02h-.1zm.005.018-.088.047.005.01.008.009zm.013.015-.076.066h.002zm.646.6-.062.08.023.018.03.002zm.033.004-.01.1.124.01-.015-.122zm-.146-1.212.1-.012-.025-.206-.146.148zm-1.949-1.366.095-.03-.193.051zm.229 1.915.1-.002zm-.004.525-.1-.004-.004.097.096.007zm1.417.104-.008.1.293.022-.219-.196zm-.84-.944-.081.057v.001zm-.24-.34-.09.045.009.016.012.011zm-.029-.056-.094-.034-.015.042.02.039zm-.04-.112-.089.046.001.002zm-.224-.436-.09.044v.002zm-.069-.098-.088.047.02.038.041.011zm-.028-.054-.07-.07-.053.052.034.065zm0-.046.094-.033v-.002zm-4.116.92.073.067.262-.283-.367.12zm-.676.26.037.093h.001zm-.056.091-.1-.01zm-.054.497-.1-.011-.034.302.207-.223zm8.44-.646h-.1v.044l.032.03zm.541.51-.069.072.103.097.057-.13zm.17-.383.091.04.05-.114-.121-.024zm-.703-.143.02-.098-.085-.017-.03.081zM9.39 12.124l.085-.051-.06-.1-.089.074zm-1.496 1.963L7.8 14.05l-.071.186.192-.054zm.047-.012.036.094.003-.002zm1.253-.525-.038-.093zm.065-.107-.1-.01zm.137-1.23-.099-.02v.01zm.008-.065.099-.018-.004-.018-.009-.015zm10.294 1.569-.062-.078-.167.133.21.043zm.924.19.021-.098zm.068-.05-.094-.034zm.125-.352.095.033.001-.004zm.141-.796.1.006.013-.225-.175.14zm-7.161-.882-.039-.092zm-.44.186-.036-.094zm-.05.126-.09.044zm.755 1.558.097-.026-.002-.009-.005-.008zm.076.112-.06.08.151.112.009-.188zm-.264-1.953-.095.031zm.997 1.23-.087.049.001.002zm.207.323-.082.057.002.003zm.232.308-.08.06.002.003zm.087.04.07.07zm.545-.56.072.07.128-.13-.18-.038zm-1.14-.233.02-.098-.213-.044.107.19zm4.118.538.09.042.001-.002zm.032.06-.019.098h.002zm.355.068-.02.098.14.028-.021-.141zm-.106-.764.1-.013-.049-.35-.142.323zm.644-1.267.069-.073-.002-.002zm-.094.022-.092-.04zm-.342.775.09.046.002-.005zm-.015.048-.099-.018-.001.008v.008zm-.001.05-.1-.002v.016zm.148 1.063-.099.013.024.175.138-.11zm1.23-.987.062.079v-.001zm.005-.095-.068.073zm-4.303-3.286-.023.098h.001zm-.121.059.092.038v-.002zm-.39.92.091.042v-.002zm-.02.137.1-.013v-.001zm.198 1.64.1-.009-.001-.003zm.06.121.068-.073h-.001zm1.218 1.146.07-.07-.001-.003zm.055.042-.048.088.01.005.01.003zm.065.019-.027.096.008.002zm1.04.212-.022.098zm.11-.06.09.04h.001zm.42-.942-.092-.041zm.019-.145-.099.014v.002zm-.2-1.435-.1.014zm-.024-.18.1-.012-.005-.034-.024-.024zm-.044-.043.071-.071-.002-.002zm-1.305-1.23-.07.071.001.002zm-.104-.055.02-.098zm-5.05 3.038.036.093.002-.001zm-.028.073-.097.025v.001zm.117.452-.097.025zm.131.504-.097.025.02.075h.077zm.019 0v.1h.083l.015-.082zm.217-1.219.099.018.032-.18-.169.07zm-3.153-.254-.019-.098zm-.068.084.1.01zm-.147 1.355-.1-.011-.017.167.155-.064zm.751-.313.033.095h.002zm.605-.425-.075-.067-.002.002zm1.014-1.101.074.067.142-.154-.21-.013zm-.053 0-.006-.1-.013.002zm4.458 1.377-.1.011zm.058.057.02-.098zm.664.136-.02.098.068.014.037-.058zm.012-.018.085.053.044-.07-.06-.056zm-.802-.758.07-.073-.202-.19.033.275zm-1.328.347-.092-.04-.048.113.12.024zm1.153.235-.02.098.135.028-.016-.138zm-.095-.793.1-.012-.001-.004zm-.05-.083-.069.073.008.006zm-.524-.495.068-.073-.104-.099-.056.133zm-4.243 1.127-.073-.068-.077.083.092.066zm.021.01-.013.099.026.003.025-.01zm.932-.383-.038-.093zm.032-.055.097-.025v-.001zm-.13-.493.097-.026-.047-.175-.123.133zm2.387-.085.019.098zm-.048.056.096-.028zm.333.864-.09.043.094.2.088-.204zm.46-1.072.093.039.075-.176-.187.038zm-6.435.95-.04.092.064.027.048-.05zm.193-.19.068.072zm1.077-.861.056.083.228-.155-.274-.028zM5.05 10.97l.01-.1-.65-.065.6.257zm15.62.275-.02-.098zm-.694.148-.021-.098-.187.04.14.13zm.989.93-.069.073.066.062.068-.06zm.014-.068h.1v-.002zm-.058-.654.099-.016v-.002zm-.04-.22.1-.017-.001-.002zm-8.688.17.071.071.003-.002zm-.021.04.098.02zm.005.047.097-.025-.002-.007-.003-.007zm.13.514.097-.022v-.002zm.068.04-.039-.093h-.002zm.49-.206-.03-.096-.01.004zm.038-.025.077.064zm.018-.043-.099-.018v.008zm.249-1.385.098.018.012-.065-.055-.036zm-.02-.014.055-.083-.071-.047-.058.063zm6.165 1.477-.099.014.048.344.143-.317zm.262-.583-.09-.041h-.001zm-.004-.062-.068.073.002.001zm-.398-.373.068-.073-.206-.192.039.28zm-6.023.885-.098-.017-.033.181.17-.072zm.578-.242.036.093zm.054-.117.097-.027zm-.106-.36.095-.03v-.002zm-.12-.358-.095.03v.002zm-.152-.34.086-.051-.136-.233-.048.266zm2.068.856.082.056.006-.008.003-.008zm-.011.025.098.02zm0 .027-.098.018v.001zm.01.025.083-.056zm.02.018.067-.073-.005-.006-.007-.004zm.382.357-.069.072.202.192-.034-.276zm-.132-1.083.1-.012-.045-.37-.147.343zm-4.107.092-.041-.091zm-.907.459-.05-.088v.001zm-.286.164-.05-.087-.001.001zm-.128.08-.054-.084-.042.026-.004.05zm-.003.034-.012.1.102.01.01-.101zm-.043-.005.01-.1-.034-.003-.03.018zm-.316.2-.054-.084-.07.044.031.077zm.01.022h-.1v.12l.119-.022zm1.844-.35.018.098zm.053-.083-.096.027zm-.119-.473.098-.02zm2.35-.417.069-.073-.174-.166.005.24zm.078.793-.099.017zm.049.269-.099.018v.002zm.068.04-.02-.099zm.788-.163.02.098.187-.038-.138-.132zm-2.012-1.043.073.068.198-.214-.288.047zm-1.097.337-.036-.093h-.001zm-.027.084.096-.025zm.109.422.1-.01-.002-.01-.002-.008zm.061.185-.086.051.069.116.09-.099zm2.106-1.129-.063-.077-.09.071.084.08zm1.045.988-.069.072.105.1.056-.134zm.409-.957.092.04v-.001zm.01-.069.1-.01v-.001zm-.126-1.04.099-.012-.022-.178-.14.112zm4.403 2.05-.091-.04-.079.177.19-.039zm.77-.157.019.098h.003zm.047-.08-.095.028zm-.33-.867.091-.043-.093-.2-.09.202zm-1.323.502.1-.013zm.012.037-.088.046.004.009.006.008zm.024.03-.078.063.005.005.005.005zm.498.469.07-.072zm.077-.018.09.04h.001zm.488-1.101.091.04.05-.113-.12-.025zm-1.214-.257.02-.098-.139-.03.02.141zm-.16.617-.069.073.207.194-.04-.28zm-.087-.632-.1.005v.008zm-.013-.031.072-.07zm-.031-.015-.02.099h.011zm-.757-.159.02-.098-.347-.073.258.244zm-3.555-.74-.073-.067-.008.008-.005.01zm-.021.038-.087-.05-.005.012zm-.278 1.191-.1-.006-.014.227.177-.143zm1.272-1.025.063.078.086-.07-.078-.079zm-.019-.018-.02.098.01.002h.01zm-.906-.195-.023.097h.001zm5.246.197.069.073zm-.591.552-.069-.073-.14.131.188.04zm1.182.249-.02.098.214.045-.107-.192zm-.518-.786.079-.061zm-3.904.737-.099.012.032.264.15-.22zm.152-.297-.094-.034zm.09-.282.074-.066zm-.32-.068.004-.1-.118-.006.014.118zM18.438 8l.026.097zm-1.092.287.025.097zm-.532.137-.024-.097-.176.045.132.125zm.656.62.072-.07zm.364.19.018-.098h-.002zm.882.183-.02.098.132.028-.013-.135zm-.008-.083.1-.01V9.32zm-.173-1.266-.1.013zm.42 1.258-.099.014.026.19.14-.13zm.517-.477.068.073zm.067-.155.081-.059-.006-.006zm-.06-.068.076-.066-.002-.002zm-.709-.637.06-.08-.191-.141.032.235zm-2.269.902-.092-.039-.002.004zm.02.068-.021.098zm.658.135-.02.098.347.07-.259-.241zm-.547-.512.068-.073-.104-.098-.056.132zm-1.001-.908h-.1v.012zm.128 1.07.1.001v-.013zm.017.044-.072.069zm.043.02.02-.098-.008-.002h-.008zm.366.078-.024.097h.002zm.088-.051-.092-.038zm.157-.361-.087-.051-.003.007zm.01-.066-.098.025zm-.04-.053-.069.074.008.007.009.005zm-.485-.455.068-.073zm-.27-.252.068-.073-.094-.087-.062.112zm-.335-.011.057.082.008-.006.008-.007zm-.689.709-.084-.055v.002zm-.076.122-.085-.053-.002.003zm.038.075.02-.098zm.522.11-.02.098zm.41.086-.02.098.137.029-.017-.139zm-.136-1.111.1-.012-.002-.008-.002-.007zm1.872-.343.021-.098zm-.086.052-.092-.04v.001zm-.337.79.091.042.001-.002zm-.004.063-.083.056.04.06.069-.019zm1.617-.423.026.096.225-.059-.198-.122zm-1.488-.526.092.04.053-.124-.134-.015zm-1.004.091-.028-.096-.004.001zm-.136.047.012.1.01-.002.01-.004zm-.048.052-.082.057.006.008.007.007zm.73.69-.07.072v.001zm.093-.017.094.035zm.136-.324-.092-.039zm-.9-.644.03.095c.64-.204 1.273-.16 1.902.067l.034-.094.034-.094c-.663-.24-1.342-.289-2.031-.07zm1.966.068-.034.094c.96.348 1.695.99 2.29 1.817l.082-.058.081-.059c-.613-.85-1.378-1.523-2.385-1.888zm2.338 1.853-.081.058c.036.05.067.102.104.16q.052.087.123.173l.076-.066.075-.066a1 1 0 0 1-.105-.147c-.033-.053-.07-.114-.111-.171zm.222.325-.087.05a.2.2 0 0 0 .059.064l.057-.082.057-.082zm.029.032-.089.047.019.035.088-.047.089-.046-.019-.036zm.018.035-.094-.033a.17.17 0 0 0 .014.143l.022.035.01.014.088-.046.089-.047q-.014-.024-.023-.037l-.012-.016q0-.004.002.005l-.001.015zm.04.113-.088.045.224.437.09-.046.088-.046-.225-.436zm.225.436-.089.046.006.016q.004.014.016.038a.17.17 0 0 0 .107.094l.028-.096.028-.096q.005 0 .013.008l.004.004-.007-.02q-.005-.014-.017-.04zm.068.098-.089.044.027.055.09-.045.09-.044-.028-.055zm.028.054-.069-.073a.123.123 0 0 0-.04.11.2.2 0 0 0 .016.045q0 .003.002.005l.09-.042.092-.041-.003-.006v-.002h-.001l.001.002.002.01a.08.08 0 0 1-.022.065zm0 .045-.092.04q.117.275.204.563l.096-.03.096-.029a6 6 0 0 0-.212-.583zm.208.574-.021.097 5.04 1.1.022-.097.021-.098-5.04-1.1zm5.04 1.1-.022.097c.022.006.298.072.624.202.33.13.695.32.91.563l.075-.066.075-.066c-.248-.281-.65-.484-.986-.617a5 5 0 0 0-.652-.21zm1.587.796-.075.066c.213.242.308.557.342.84.035.285.008.526-.011.609l.097.022.098.023c.024-.108.052-.372.015-.678-.037-.305-.141-.664-.391-.948zm.353 1.537-.097-.022-.007.03.097.022.098.022.007-.03zm-.007.03-.097-.022a2 2 0 0 1-.252.553c-.153.241-.373.485-.67.613l.039.092.04.092c.347-.15.595-.43.76-.69.165-.258.254-.508.278-.616zm-.98 1.236-.04-.092a1.8 1.8 0 0 1-.61.12l.005.1.005.1c.232-.013.474-.048.68-.136zm-.646.128-.1-.006-.001.038.1.005.1.005.001-.037zm-.002.037.008-.1-6.333-.48-.007.1-.008.1 6.333.48zm-6.332-.48-.06-.08a1 1 0 0 0-.127.11l.072.069.072.07a1 1 0 0 1 .102-.09zm-.115.099-.046-.089-.538.278.046.09.046.088.538-.278zm-.538.278.002-.1a.6.6 0 0 0-.183.032c-.056.018-.093.033-.138.043l.022.097.022.098c.056-.012.114-.035.155-.047a.4.4 0 0 1 .118-.023zm-.297.072-.022-.097c-.717.164-1.4.042-2.061-.27l-.043.091-.042.09c.693.327 1.421.46 2.19.284zm-2.126-.276.043-.09a4.6 4.6 0 0 1-.854-.528l-.062.08-.061.078c.272.212.568.398.892.55zm-.873-.539.008-.1-1.69-.125-.008.1-.008.1 1.69.125zm-1.69-.125-.1-.006c-.028.462-.1.917-.239 1.359l.096.03.095.03c.145-.461.218-.932.248-1.407zm-.243 1.383-.092-.04a1.6 1.6 0 0 0-.094.287l.098.021.097.022q.03-.129.082-.25zm-.088.268-.095-.031a.15.15 0 0 0 0 .093l.095-.032.095-.032a.05.05 0 0 1 0 .034zm0 .03-.09-.045-.028.057.09.044.089.045.028-.056zm-.029.056-.072-.068a.8.8 0 0 0-.144.223c-.038.08-.061.142-.097.209l.089.047.088.046c.037-.07.072-.155.101-.217a.7.7 0 0 1 .108-.171zm-.224.41-.09-.044q-.023.048-.047.093l.089.046.089.047.048-.097zm-.048.095-.087-.05c-.307.533-.677 1.009-1.161 1.38l.06.08.061.079c.512-.392.897-.89 1.214-1.439zm-1.187 1.41-.061-.08c-.754.578-1.588.797-2.521.59l-.022.097-.022.098c.996.22 1.89-.016 2.686-.626zm-2.604.607.021-.098c-.153-.033-.3-.079-.46-.12l-.025.096-.026.096c.15.04.31.089.469.124zm-.464-.122.045-.09-.667-.333-.045.09-.045.09.667.332zm-.667-.333.098.02a.123.123 0 0 0-.039-.118c-.01-.01-.022-.017-.026-.02l-.004-.001-.002-.002-.055.084-.055.083.016.01-.006-.005a.08.08 0 0 1-.025-.07zm-.028-.037.054-.084c-.88-.567-1.341-1.371-1.397-2.414l-.1.006-.1.005c.06 1.106.555 1.97 1.489 2.57zm-1.443-2.492.1-.005c-.001-.03 0-.056-.002-.093l-.1.003-.1.002c.001.026 0 .065.003.097zm-.002-.095-.092-.039-.053.127.093.039.092.038.053-.127zm-.052.127.039-.092-3.868-1.654-.04.092-.039.092 3.868 1.654zm-3.868-1.654.04-.091a4 4 0 0 1-.51-.281c-.263-.172-.544-.404-.682-.668l-.089.046-.088.047c.163.31.48.566.75.742.274.179.514.286.538.297zm-1.24-.994.088-.046c-.139-.264-.159-.583-.132-.866.028-.282.1-.514.135-.594l-.092-.04-.092-.04c-.042.1-.12.353-.15.655-.029.301-.01.665.154.978zm0-1.546.092.039.011-.029-.092-.038-.092-.038-.012.028zm.011-.028.092.04c.034-.08.151-.294.337-.508.185-.215.43-.421.716-.503l-.028-.096-.027-.096c-.34.097-.615.335-.813.564-.198.23-.326.46-.369.56zm1.117-1.067.028.096c.232-.067.516-.05.782-.003l.017-.098.018-.099c-.276-.05-.596-.072-.872.008zm.827-.005-.01.1 6.09.613.01-.1.01-.1-6.09-.613zm6.09.613.053.085q.67-.421 1.403-.74l-.04-.092-.04-.092q-.746.326-1.43.755zm1.416-.747.039.092.432-.18-.038-.092-.039-.092-.432.18zm.433-.18.037.093c.41-.161.814-.305 1.246-.32l-.004-.1-.003-.1c-.47.017-.901.172-1.313.334zm1.28-.327-.046.09.114.056.044-.09.045-.089-.113-.056zm.112.057-.08.059c.18.247.289.533.386.834l.095-.03.095-.032c-.098-.304-.214-.616-.415-.89zm.4.862-.094.03q.044.14.086.281l.096-.028.096-.028q-.042-.142-.088-.286zm.088.283.098-.017a4.6 4.6 0 0 1-.01-1.66l-.098-.018-.098-.018a4.8 4.8 0 0 0 .01 1.731zm-.01-1.695.098.018c.14-.759.459-1.413 1.06-1.906l-.064-.077-.064-.077c-.645.53-.983 1.23-1.128 2.024zm1.094-1.965.051.086a.8.8 0 0 0 .187-.156l-.075-.067-.075-.066a.6.6 0 0 1-.14.118zm.163-.137.046.09.52-.27-.046-.088-.046-.089-.52.269zm.52-.268-.039.092c.063.027.117.01.151-.007.014-.006.03-.016.036-.02l.011-.005-.03-.095-.03-.096a.3.3 0 0 0-.05.023l-.024.013q-.007.003 0 .001.01 0 .014.002zm-5.142 11.554h-.1c0 .033.005.092.056.13a.15.15 0 0 0 .065.028l.047.003v-.2h-.014q.002-.002.023.01c.013.01.02.023.022.031q.002.01 0-.003zm.068.061v.1q.13 0 .258-.013l-.009-.1-.01-.1q-.12.012-.24.013zm.25-.013.012.1.247-.034-.014-.099-.013-.099-.246.033zm.245-.033.018.099q.313-.057.604-.187l-.04-.091-.042-.092q-.268.12-.558.173zm.581-.18.045-.089-1.109-.553-.044.09-.045.09 1.109.552zm-1.108-.552-.1-.005c-.012.246-.022.48-.036.715l.1.007.1.006q.02-.355.036-.718zm-1.214.5-.041.092c.298.134.614.224.938.265l.012-.1.013-.099a3.1 3.1 0 0 1-.881-.248zm.91.258-.015.099.033.003c.014 0 .037-.001.062-.014.063-.03.07-.095.07-.127h-.2q-.001.005.005-.013a.08.08 0 0 1 .037-.039.1.1 0 0 1 .029-.007l-.008-.001zm.05-.04.1.004c.01-.251.025-.502.038-.766l-.1-.005-.1-.005q-.02.391-.037.769zm.038-.767-.048-.088-.998.55.048.088.048.087.998-.55zm1.602.468.05.086q.3-.173.565-.398l-.065-.076-.064-.076a3.7 3.7 0 0 1-.536.377zm.55-.388.067.074.166-.15-.067-.074-.067-.074-.166.15zm.166-.15.069.073c.032-.03.07-.08.056-.147a.2.2 0 0 0-.03-.063l-.03-.034-.071.07-.072.07.013.014c.002.002-.004-.004-.006-.017a.06.06 0 0 1 .004-.038q.006-.01-.001-.001zm-.006-.1.07-.072q-.164-.164-.326-.331l-.072.07-.07.07q.16.166.327.333zm-.328-.333.07-.07-.177-.178-.07.071-.07.071.177.177zm-.177-.177-.099-.017c-.068.385-.137.756-.205 1.148l.099.017.098.017c.069-.393.136-.758.205-1.147zm-3.871.432-.062-.079c-.021.017-.066.056-.064.12l.1-.004.1-.003a.07.07 0 0 1-.011.042q-.007.008-.001.003zm-.026.037-.088.048.02.036.088-.048.088-.047-.02-.036zm.02.036-.071.07c.228.232.49.43.774.587l.049-.087.048-.088a3.2 3.2 0 0 1-.73-.552zm.752.57.099-.015-.16-1.113-.098.014-.1.014.16 1.114zm-.16-1.114-.062-.078c-.204.165-.394.32-.586.47l.062.079.061.079c.194-.152.385-.308.588-.472zm2.364-.04-.017-.098a.2.2 0 0 0-.124.07l.077.064.077.064.003-.001zm-.064.036-.068-.072q-.266.252-.53.499l.067.073.068.074q.269-.249.532-.501zm-.53.5-.069-.073a.2.2 0 0 0-.04.047.13.13 0 0 0-.017.095.13.13 0 0 0 .048.073q.024.017.045.027l.045-.09.045-.089-.012-.006s.017.013.023.04a.08.08 0 0 1-.007.055q-.006.007.006-.005zm.012.08-.044.09q.508.25 1.014.506l.045-.09.046-.089q-.507-.256-1.017-.507zm1.015.506-.045.09a.2.2 0 0 0 .056.02.14.14 0 0 0 .084-.008c.063-.029.077-.094.082-.12l-.098-.018-.099-.018q-.002.012 0 .003a.07.07 0 0 1 .033-.03.07.07 0 0 1 .039-.005l-.006-.003zm.079-.036.098.016c.062-.372.13-.74.2-1.123l-.1-.018-.098-.018c-.068.381-.137.752-.2 1.127zm.199-1.125-.006-.1-.71.04.005.1.005.099.711-.039zm-2.711 1.075-.1.013q.003.031.016.064a.13.13 0 0 0 .066.073c.038.017.075.01.095.004a.3.3 0 0 0 .056-.026l-.05-.087-.049-.087-.016.009c.001 0 .022-.007.047.005a.07.07 0 0 1 .037.035l-.003-.016zm.084.041.048.088q.434-.24.873-.478l-.048-.088-.048-.088-.874.479zm.873-.478.045.09a.3.3 0 0 0 .05-.032.14.14 0 0 0 .048-.073.13.13 0 0 0-.015-.097.2.2 0 0 0-.045-.056l-.069.073-.068.073q.013.014.008.007a.07.07 0 0 1-.005-.048c.005-.023.018-.033.019-.034l-.013.007zm.014-.095.069-.073c-.139-.129-.258-.253-.4-.39l-.07.073-.069.072c.13.124.268.266.402.391zm-.4-.39.078-.062a.2.2 0 0 0-.118-.074l-.021.097-.022.098.004.002zm-.061-.039.015-.098q-.322-.05-.66-.103l-.016.099-.015.099c.231.036.442.067.66.102zm-.66-.102-.1.014.15 1.063.1-.014.099-.014-.15-1.063zm3.24-.033-.072.07c.178.181.34.346.5.512l.073-.07.071-.07c-.16-.165-.324-.33-.5-.512zm.5.512-.071.07a.16.16 0 0 0 .076.046.13.13 0 0 0 .094-.013.2.2 0 0 0 .056-.051l.006-.008-.076-.064-.077-.064-.014.017q-.005.004.008-.005l.021-.008a.1.1 0 0 1 .029.001c.017.004.023.013.02.01zm.085-.02.077.063c.083-.101.172-.207.253-.317l-.08-.06-.081-.059c-.077.105-.161.205-.247.31zm.25-.314.074.067a.9.9 0 0 0 .164-.263l-.093-.038-.093-.038a.7.7 0 0 1-.127.206zm.145-.234-.006-.1-.98.056.006.1.005.1.98-.056zm-3.24.195-.07.072c.123.12.232.224.34.333l.072-.07.07-.071c-.108-.11-.223-.218-.342-.335zm.342.334-.068.074a.14.14 0 0 0 .103.042.14.14 0 0 0 .095-.044l-.07-.072-.07-.072c-.005.006.009-.01.038-.012.03 0 .045.016.04.01zm.06 0 .069.073.406-.38-.068-.074-.069-.072-.406.38zm.407-.38-.006-.1-.809.047.006.1.006.1.808-.048zm-3.284-.707-.097.024q.105.432.334.811l.086-.051.085-.052a2.6 2.6 0 0 1-.31-.755zm.323.784-.083.056.16.233.082-.057.082-.057-.159-.232zm.159.232-.081.059c.012.017.03.036.054.049a.13.13 0 0 0 .084.014.2.2 0 0 0 .056-.023l.028-.022-.063-.077-.064-.077-.007.006-.002.001H8.1l.004-.001.014-.005a.07.07 0 0 1 .046.008q.016.011.013.01zm.078 0 .063.078q.253-.206.51-.41l-.062-.078-.063-.079q-.258.206-.51.411zm.51-.41.062.078a.2.2 0 0 0 .05-.052.12.12 0 0 0 .012-.106.14.14 0 0 0-.05-.064l-.042-.024-.045.089-.045.089.014.008-.006-.006a.081.081 0 0 1-.018-.064.1.1 0 0 1 .009-.026c.004-.008.007-.008-.002 0zm-.013-.08.044-.089c-.344-.17-.688-.342-1.056-.526l-.045.09-.044.089c.367.183.712.356 1.057.526zm3.401-4.482-.04-.091q-.644.276-1.291.545l.038.092.039.093q.647-.268 1.294-.547zm-1.293.546-.04-.091a.5.5 0 0 0-.177.13l.075.066.074.066a.3.3 0 0 1 .108-.08zm-.142.105-.074-.068-1.205 1.297.074.069.073.068 1.205-1.298zm-1.205 1.298-.075-.067-.08.089.076.066.074.067.08-.089zm-.08.088-.098-.014c-.001.006-.01.045-.01.075h.2c0-.011.003-.014.008-.046zm-.007.061-.1-.011-.14 1.255.1.01.1.012q.067-.627.14-1.255zm-.14 1.255-.1-.012a.27.27 0 0 0 .05.189l.08-.059.081-.059a.07.07 0 0 1-.012-.047zm.03.118-.084.054q.304.475.61.956l.085-.054.084-.054q-.305-.481-.61-.956zm.61.956-.09.044c.02.04.053.076.097.099l.045-.09.046-.088-.007-.009zm.052.054-.045.089a.22.22 0 0 0 .136.021l-.016-.099-.017-.098-.012-.002zm.075.012.006.1q.54-.036 1.08-.063l-.005-.1-.006-.1q-.54.029-1.082.063zm1.08-.063.003.1a.3.3 0 0 0 .207-.087l-.07-.072-.07-.07a.1.1 0 0 1-.071.029zm.14-.059.07.073q.463-.442.931-.88l-.068-.073-.069-.072q-.466.438-.933.88zm.933-.88.063.078a.28.28 0 0 0 .098-.162l-.098-.02-.098-.02a.1.1 0 0 1-.028.047zm.063-.104.099.018.34-1.89-.098-.018-.098-.017-.17.944-.17.945zm.341-1.89.098.023a.3.3 0 0 0 .008-.07h-.2l-.003.024zm.006-.046.098-.022-.011-.048-.098.022-.097.022.01.047zm-.01-.048.096-.026q-.177-.679-.35-1.356l-.097.024-.097.025q.173.68.35 1.358zm-.351-1.358.097-.025c-.01-.035-.03-.104-.102-.128a.15.15 0 0 0-.082-.002.3.3 0 0 0-.054.018l.04.092.039.092.02-.008c.002 0-.01.003-.026-.002a.1.1 0 0 1-.022-.013l-.01-.012q-.003-.005.003.013zm-3.073 4.3-.1-.011a.14.14 0 0 0 .036.118.16.16 0 0 0 .095.043l.014-.1.013-.098h-.002a.1.1 0 0 1 .023.015c.024.025.02.052.02.044zm.045.05-.014.1c.149.02.298.045.468.073l.016-.099.016-.099c-.17-.027-.321-.052-.473-.073zm.47.074.085-.054-.452-.708-.084.054-.084.054.45.708zm-.451-.708-.1-.011-.064.584.1.011.099.011.064-.584zm2.32.649.006.1c.184-.01.33-.02.477-.026l-.004-.1-.004-.1c-.15.006-.3.016-.48.026zm.479-.026v.1c.05 0 .097-.02.127-.062.024-.033.031-.07.035-.088l-.099-.018-.098-.019-.003.014.004-.007a.1.1 0 0 1 .02-.016q.013-.005.013-.004zm.063-.068.099.017.082-.468-.099-.017-.098-.017-.082.468zm.082-.468.06-.08-.019-.014-.06.08-.059.08.02.014zm-.018-.014-.07-.072-.605.575.07.073.068.072.606-.575zm.656-.618-.069-.072c-.06.057-.117.098-.189.162a.8.8 0 0 0-.18.211l.089.048.088.047a.6.6 0 0 1 .135-.156c.054-.047.135-.11.195-.167zm-.35.349-.088-.048a.8.8 0 0 0-.077.267c-.013.096-.016.166-.03.248l.098.017.098.017c.015-.081.023-.183.033-.255a.6.6 0 0 1 .055-.199zm-.097.484-.099-.017c-.007.039-.02.08-.035.136a1 1 0 0 0-.016.081.3.3 0 0 0 .003.094l.097-.025.097-.025q-.001.005.001-.018l.012-.057c.01-.04.03-.103.038-.151zm-.05.269-.09.044.012.024.09-.045.09-.045-.013-.023zm.012.023-.077.065a.2.2 0 0 0 .116.063.4.4 0 0 0 .105 0c.03-.003.064-.01.09-.014a1 1 0 0 1 .07-.01l-.005-.099-.004-.1a1 1 0 0 0-.095.012l-.08.013a.2.2 0 0 1-.047.001c-.007-.001-.002-.002.003.004zm.3.005.004.1c.24-.01.48-.027.724-.042l-.006-.1-.006-.1c-.246.015-.483.032-.72.042zm.722-.042.097-.025c-.111-.428-.22-.844-.332-1.28l-.097.026-.097.025.332 1.28zm-.332-1.28-.068-.073c-.076.07-.142.131-.206.193l.07.072.068.072.204-.19zm-4.324-.11.084-.053a.2.2 0 0 0-.036-.045.13.13 0 0 0-.077-.035.13.13 0 0 0-.08.021.2.2 0 0 0-.043.037l.074.068.073.067q.009-.008.003-.003a.07.07 0 0 1-.043.01.07.07 0 0 1-.042-.017l.003.004zm-.078-.007-.074-.068q-.38.413-.763.824l.073.068.073.068q.383-.41.764-.825zm-.764.824-.073-.069a.2.2 0 0 0-.034.046.14.14 0 0 0-.017.082c.008.07.068.102.095.115l.044-.09.044-.089q-.011-.006-.004-.001a.07.07 0 0 1 .02.04.07.07 0 0 1-.007.04l.005-.006zm.015.085-.044.09c.355.175.71.352 1.078.536l.045-.09.045-.089-1.08-.537zm1.079.537.1.011.093-.838-.1-.011-.099-.011-.094.838zm.094-.838.099.012a.24.24 0 0 0-.036-.156l-.084.054-.084.054a.04.04 0 0 1 .005.024zm-.02-.09.083-.054q-.166-.254-.324-.51l-.085.053-.085.053q.16.258.326.513zm5.154-1.5-.068-.073q-.466.442-.931.88l.068.073.068.073c.312-.291.622-.588.932-.88zm-.931.88-.066-.076a.2.2 0 0 0-.063.106l.098.022.097.021v.003zm-.031.052-.098-.022a.2.2 0 0 0 .014.124l.09-.042.091-.042v.003zm.006.06-.096.025.204.791.096-.025.097-.025-.204-.79zm.204.791-.096.025c.045.178.093.355.143.547l.097-.025.097-.025-.144-.547zm.144.547.085.053c.46-.75.626-1.555.66-2.396l-.1-.005-.1-.004c-.033.82-.194 1.588-.63 2.3zm.646-2.347-.043-.09-.037.017.042.09.043.09.037-.017zm-6.53.795.013-.1a.2.2 0 0 0-.086.009.14.14 0 0 0-.074.074l.092.039.092.04-.012.017a.1.1 0 0 1-.023.015c-.015.006-.024.003-.017.004zm-.055.022-.099-.019-.005.025.099.02.098.018.005-.025zm-.005.025-.1-.013c-.04.31-.04.624 0 .933l.1-.012.099-.013a3.4 3.4 0 0 1 0-.882zm0 .907.073.068.792-.855-.073-.068-.074-.068-.792.856zm.792-.855.013-.099-.732-.1-.014.1-.013.098.732.1zm-4.658-4.54.003-.1a1.4 1.4 0 0 0-.425.045l.028.096.028.096a1.2 1.2 0 0 1 .364-.038zm-.394.041-.028-.096c-.3.085-.544.3-.72.502-.175.204-.29.408-.325.493l.091.04.092.039c.028-.065.131-.252.294-.441.164-.19.377-.37.623-.44zm-.982.939-.091-.04-.013.03.092.039.092.04.012-.03zm-.012.029-.092-.04c-.036.085-.104.31-.13.577s-.011.592.133.867l.089-.047.088-.046c-.118-.226-.135-.505-.111-.755.024-.249.087-.453.115-.517zm0 1.357-.089.047c.152.29.462.533.721.7a4 4 0 0 0 .51.278l.032-.095.031-.095c.006.002.008.003-.002-.002l-.133-.064a4 4 0 0 1-.33-.19c-.254-.164-.525-.384-.652-.625zm1.174.93-.04.092 3.838 1.639.04-.092.039-.092-3.838-1.639zm3.837 1.639h.1c-.002-.627.157-1.225.405-1.81l-.092-.039-.093-.039c-.254.602-.422 1.227-.42 1.888zm.413-1.849.089.045.048-.095-.09-.045-.089-.045-.048.095zm.047-.095.09.043c.034-.07.069-.125.11-.204a.9.9 0 0 0 .093-.25l-.098-.018-.099-.018a.7.7 0 0 1-.073.193c-.03.06-.079.14-.113.211zm.195-.428.09.044.028-.056-.09-.045-.09-.045-.028.057zm.028-.057-.017.098a.127.127 0 0 0 .127-.052q.014-.02.017-.029c.003-.007.002-.005 0-.002L8.04 13.3l-.085-.053-.013.024q-.002.006.002-.002a.07.07 0 0 1 .07-.03zm.043-.038.085.053a5 5 0 0 1 .463-.614l-.075-.066-.075-.066q-.267.3-.482.64zm.473-.627.039-.092-3.734-1.595-.04.092-.039.092 3.734 1.595zm-3.735-1.595.039-.092a4 4 0 0 0-.752-.215l-.017.098-.018.099a4 4 0 0 1 .695.196l.015.006zm-.73-.209.01-.1-.357-.034-.01.099-.01.1.357.035zm-.357-.035h.1v-.003h-.2v.003zm8.764 4.93.069.072.375-.354-.069-.073-.069-.073-.375.355zm.375-.355.069.073.013-.01.032-.03a.16.16 0 0 0 .033-.143l-.097.025-.097.026a.1.1 0 0 1 .001-.022.1.1 0 0 1 .009-.018l-.006.005-.005.004-.006.004-.014.013zm.05-.085.097-.025q-.094-.355-.187-.715l-.097.025-.096.026q.092.357.186.715zm-.187-.715v-.1h-.033v.2h.033zm-.033 0-.098-.018c-.069.377-.137.754-.206 1.156l.1.017.098.017c.068-.4.136-.777.205-1.154zm-3.558.307-.065-.076c-.124.105-.226.22-.322.319l.072.07.072.07c.105-.108.193-.21.307-.307zm-.315.313-.054-.084a.2.2 0 0 0-.047.047l.084.054.084.054-.012.012zm-.017.017-.085-.053a.2.2 0 0 0-.023.065l.099.013.099.012-.006.016zm-.01.024-.098-.012a.2.2 0 0 0 .005.066l.096-.03.095-.028.002.017zm.003.025-.096.03a.2.2 0 0 0 .034.06l.074-.068.074-.067.01.015zm.012.022-.083.056q.057.085.115.179t.126.196l.084-.055.083-.054-.124-.194-.117-.183zm.242.376.099.011.085-.777-.1-.011-.099-.01-.085.776zm9.488-1.131.07-.071a.2.2 0 0 0-.057-.043.124.124 0 0 0-.164.053l-.02.041.09.04.093.04.005-.012.002-.005-.001.002-.004.005a.1.1 0 0 1-.023.016.1.1 0 0 1-.038.007.1.1 0 0 1-.025-.006c-.008-.003-.008-.006.001.003zm-.08.02-.092-.04q-.134.306-.273.614l.091.041.092.041q.137-.307.274-.616zm-.274.615-.09-.041-.106.23.09.042.092.041.105-.23zm-.105.23-.013.1c.43.058.87.009 1.277-.142l-.035-.094-.034-.094c-.377.14-.783.185-1.182.132zm1.23-.136.068-.072c-.266-.255-.518-.487-.77-.73l-.07.072-.068.073c.25.24.509.48.77.73zm1.753-4.299-.096.025c.179.688.235 1.377.114 2.068l.099.017.098.018c.127-.725.067-1.444-.118-2.153zm.117 2.11-.098-.02-.073.333.098.022.098.02.072-.333zm-.073.335-.097-.025a3.3 3.3 0 0 1-.329.826l.087.05.087.048q.23-.405.35-.875zm-.339.85-.022.098 4.497 1.016.023-.097.021-.098-4.497-1.016zm4.497 1.017v.1h-.009l-.003-.001h-.002l.01.002.037.006a5 5 0 0 0 .577.075c.344.025.78.02 1.1-.117l-.039-.092-.039-.092c-.273.117-.667.126-1.007.101a5 5 0 0 1-.556-.071l-.036-.007-.019-.003h-.004l-.01-.001zm1.671-.027.04.092c.306-.13.525-.38.672-.611.146-.23.226-.452.246-.543l-.097-.023-.098-.022a1.8 1.8 0 0 1-.22.48c-.135.214-.328.427-.582.535zm.86-1.085.098.022.007-.032-.097-.02-.098-.022-.007.031zm.008-.03.097.021c.021-.091.044-.326.012-.597-.033-.27-.123-.591-.343-.84l-.075.066-.075.066c.182.207.264.482.294.732s.007.462-.008.529zm-.309-1.35.075-.067c-.23-.261-.622-.453-.944-.579a5 5 0 0 0-.612-.195l-.018.098-.018.099c-.002 0 .26.062.575.184.318.124.67.303.867.526zm-1.5-.743.022-.097-4.932-1.077-.022.097-.021.098 4.933 1.077zm-9.412 2.787-.055.084c.287.187.597.336.921.443l.031-.095.032-.095a3.8 3.8 0 0 1-.875-.42zm.897.432-.027.096.32.09.028-.096.027-.096-.32-.09zm.32.09-.021.098c.034.007.078.009.12-.018a.2.2 0 0 0 .061-.077l-.091-.041-.091-.042-.002.005.014-.013a.1.1 0 0 1 .026-.01h.006zm.069-.038.091.04c.127-.286.25-.57.387-.87l-.091-.042-.091-.041c-.137.301-.261.588-.387.872zm.387-.872-.023-.098-1.673.389.023.097.023.098 1.672-.389zm2.4.003-.084-.056a2.8 2.8 0 0 1-.405.48l.068.074.069.073q.25-.239.434-.516zm-.42.498-.008.1 3.942.298.008-.1.007-.1-3.942-.298zm3.942.299.022-.098-3.523-.797-.022.098-.022.097 3.523.797zm-5.3-1.473.022-.098a.17.17 0 0 0-.11.007.16.16 0 0 0-.081.09l.093.038.092.038c.004-.01 0 .006-.022.017a.1.1 0 0 1-.021.004l.005.002zm-.076.037-.093-.038c-.056.135-.115.266-.177.403l.09.041.092.042q.094-.203.18-.41zm-.18.406-.083-.055a.17.17 0 0 0-.025.125l.098-.018.099-.017a.03.03 0 0 1-.005.02zm-.01.052-.098.017a.2.2 0 0 0 .023.061l.085-.053.085-.053.004.01zm.01.025-.07.071.019.02.07-.071.071-.07-.02-.02zm.02.02-.069.073.91.853.068-.072.068-.073-.91-.854zm.909.853.099-.013c-.06-.435-.117-.84-.171-1.244l-.1.013-.098.014c.054.405.11.81.17 1.244zm-.171-1.244.098-.017a.16.16 0 0 0-.061-.106.2.2 0 0 0-.087-.035l-.019.099-.018.098.012.003-.008-.005a.1.1 0 0 1-.014-.015q-.002-.008-.002-.004zm-.069-.06.02-.097a19 19 0 0 1-.432-.09l-.021.098-.022.098q.219.047.436.09zm-11.442.352-.094-.035q-.107.285-.183.58l.097.024.097.024q.072-.284.176-.557zm-.18.569-.097-.023-.045.192.097.023.098.023.045-.193zm-.045.192-.098-.02-.005.026a.2.2 0 0 0 .001.054.13.13 0 0 0 .046.073c.023.02.05.027.072.03l.014-.1.013-.099.007.002.018.01a.07.07 0 0 1 .026.043q.003.017.001.016l.003-.015zm.03.063-.013.1.786.102.013-.099.013-.1-.786-.102zm.786.103.084-.054-.59-.926-.085.053-.084.054.59.927zm4.653-2.894-.098-.018-.304 1.69.098.017.099.018q.15-.844.304-1.69zm-.304 1.689-.098-.02a.3.3 0 0 0 0 .113l.098-.02.099-.02a.1.1 0 0 1 0-.034zm0 .073-.096.025q.145.564.293 1.132l.097-.025.097-.025c-.098-.381-.197-.755-.294-1.131zm.294 1.132.045.09q.03-.015.059-.036l-.06-.08-.06-.08-.029.017zm.043-.026.069.072.923-.87-.069-.073-.069-.073-.922.871zm.923-.871.069.072a.17.17 0 0 0 .06-.144.2.2 0 0 0-.016-.058l-.016-.032-.09.044-.09.043.008.016.005.01q.002.006 0-.002a.1.1 0 0 1 .003-.022q.006-.008-.002 0zm.007-.118.09-.044-.657-1.358-.09.043-.09.044.657 1.358zm-.657-1.359.09-.044-.283-.584-.09.044-.09.044.283.584zm-.283-.584-.092-.041a1 1 0 0 0-.027.079l.096.026.097.026a.3.3 0 0 1 .017-.049zm-4.938 2.02-.038-.092-.043.021a.14.14 0 0 0-.052.054c-.034.066 0 .127.018.154l.084-.054.084-.054c-.005-.009-.003-.008-.002 0a.07.07 0 0 1-.026.07l.003-.001.01-.005zm-.031.083-.084.054c.163.252.322.505.493.772l.084-.054.084-.054c-.17-.265-.33-.52-.493-.773zm.493.772.073.068c.151-.163.286-.316.431-.462l-.07-.07-.071-.071c-.149.149-.29.308-.436.467zm.434-.465.069.073a.44.44 0 0 0 .133-.287l-.1-.006-.1-.007a.24.24 0 0 1-.071.155zm.102-.22.1.008c.017-.2.04-.399.064-.613l-.1-.01-.099-.012q-.036.315-.065.618zm.065-.616-.04-.092-1.061.446.038.093.039.092 1.062-.447zm10.516 1.274.057.082c.052-.035.1-.075.146-.11l-.062-.079-.062-.078q-.069.056-.135.102zm.14-.107.071.071.002-.001-.071-.07-.07-.071h-.002zm.002 0v.1zv-.1zm0 0 .063.078c.29-.23.53-.518.703-.848l-.088-.046-.089-.047c-.16.305-.382.571-.65.784zm.677-.816.02-.098-.976-.198-.02.098-.02.098.977.198zm-.976-.198-.1.013.158 1.122.1-.014.098-.014-.157-1.121zm-3.284-.622-.1.012q.078.634.152 1.269l.1-.012.099-.011q-.075-.636-.152-1.27zm.151 1.27-.1.01a.2.2 0 0 0 .027.08.13.13 0 0 0 .082.06.2.2 0 0 0 .067 0l.036-.009-.023-.097-.023-.097-.017.004-.01.002q-.003 0 0 0l.014.002a.067.067 0 0 1 .043.03c.006.01.005.014.003.003zm.089.044.023.097 1.197-.277-.023-.097-.022-.098-1.198.278zm1.197-.277.023.097.426-.1-.023-.097-.023-.097-.425.1zm.426-.1.069-.073-.756-.714-.069.072-.069.073.756.715zm-.756-.715.07-.07a.3.3 0 0 0-.155-.083l-.018.098-.019.099a.1.1 0 0 1 .052.027zm-.103-.055.02-.097-.997-.206-.02.099-.02.098q.504.102.996.204zm-.996-.204-.098-.02-.008.037.098.02.098.02.008-.037zm-.766.657-.055-.084a.14.14 0 0 0-.047.05l.088.048.088.048a.1.1 0 0 1-.019.021zm-.014.014-.088-.047a.14.14 0 0 0-.017.067h.2q0 .015-.007.028zm-.005.02h-.1a.14.14 0 0 0 .017.065l.088-.047.089-.046a.1.1 0 0 1 .006.027zm.005.018-.075.066.012.015.076-.066.076-.065-.013-.015zm.013.015-.075.067q.303.336.659.613l.061-.08.062-.078a5 5 0 0 1-.633-.589zm.646.6-.01.1.034.003.009-.1.009-.099-.034-.003zm.033.004.099-.012-.146-1.212-.099.012-.1.012.146 1.212zm-.146-1.212-.071-.07c-.188.19-.358.366-.532.54l.071.07.07.071c.175-.174.348-.353.533-.541zm-1.949-1.366-.098.021c.132.624.21 1.259.226 1.897l.1-.003.1-.002a10.7 10.7 0 0 0-.23-1.933zm.229 1.915-.1.003q.005.26-.004.518l.1.004.1.003a9 9 0 0 0 .003-.53zm-.004.525-.008.1 1.417.104.008-.1.007-.1-1.417-.104zm1.417.104.066-.074a5.7 5.7 0 0 1-.824-.928l-.081.058-.082.058c.254.354.537.677.854.96zm-.84-.944.083-.057c-.04-.056-.069-.109-.11-.174a1 1 0 0 0-.145-.183l-.069.073-.068.073c.043.04.077.088.113.144.033.052.073.122.115.181zm-.24-.34.088-.047-.028-.054-.089.045-.089.046.029.055zm-.029-.056.094.035a.17.17 0 0 0-.013-.144q-.014-.024-.023-.035l-.01-.015-.088.047-.088.048q.013.023.024.036l.01.016q.002.003-.001-.006l.001-.016zm-.04-.112.09-.046-.226-.436-.088.046-.09.046.225.436zm-.224-.436.089-.045-.006-.017q-.004-.014-.016-.038a.17.17 0 0 0-.109-.094l-.027.096-.027.096-.013-.008q-.006-.007-.004-.004l.007.018q.004.016.016.04zm-.069-.098.089-.047-.029-.053-.088.046-.089.047.029.054zm-.028-.054.07.071a.13.13 0 0 0 .036-.11q-.004-.022-.008-.031l-.003-.007v-.002l-.095.033-.095.033.004.01.002.005-.002-.008a.08.08 0 0 1 .02-.064zm0-.046.093-.035c-.059-.154-.12-.3-.17-.454l-.095.031-.095.031c.052.16.117.317.173.463zm-4.116.92-.032-.096c-.237.078-.462.173-.682.264l.038.092.038.093c.223-.092.44-.184.669-.259zm-.676.26-.037-.093a.18.18 0 0 0-.095.084.3.3 0 0 0-.023.09l.1.01.099.01q0-.014.002-.019 0-.004 0 0l-.008.01q-.005.003-.001.001zm-.056.091-.1-.01c-.014.154-.033.306-.054.496l.1.011.099.011c.02-.187.04-.342.055-.498zm-.054.497.073.068.786-.849-.073-.068-.074-.068-.786.85zm8.44-.646-.068.073.54.51.069-.074.069-.072-.54-.51zm.541.51.091.04.17-.383-.091-.04-.092-.04-.17.382zm.17-.383.02-.098-.703-.143-.02.098-.02.098.703.143zm-.703-.143-.095-.034.004-.008-.002.004-.008.017a.1.1 0 0 0-.006.037h.2a.1.1 0 0 1-.008.037l-.001.002.002-.005.008-.017zM9.39 12.124l-.064-.077c-.661.54-1.208 1.174-1.526 2.004l.094.036.093.036c.301-.788.822-1.395 1.466-1.921zm-1.496 1.963.027.096.02-.005q.012 0 .036-.01l-.036-.093-.035-.093H7.9l-.035.009zm.047-.012.04.092q.625-.264 1.252-.525l-.039-.092-.038-.093q-.627.26-1.253.526zm1.253-.525.038.092a.2.2 0 0 0 .103-.093c.018-.036.021-.075.023-.095l-.1-.01-.099-.01-.003.024v.004l.004-.006q.003-.002-.004.001zm.065-.107.1.011.136-1.23-.1-.01-.099-.011q-.068.613-.137 1.23zm.137-1.23.097.022.008-.034a.2.2 0 0 0 .002-.07l-.099.017-.098.019v-.005l-.004.011-.004.02zm.008-.065.086-.051-.015-.024-.085.051-.086.051.015.025zm10.294 1.569-.02.098c.326.066.625.126.924.19l.02-.099.02-.098-.924-.19zm.924.19-.021.097c.045.01.097.005.138-.035.03-.029.042-.068.046-.08l-.095-.033-.094-.033-.005.013q0 .001.008-.01a.1.1 0 0 1 .03-.017q.016-.002.014 0zm.068-.05.095.033.125-.352-.095-.033-.094-.034-.125.352zm.125-.352.096.029a3.6 3.6 0 0 0 .145-.819l-.1-.006-.1-.006a3.4 3.4 0 0 1-.136.773zm.141-.796-.062-.078-1.258 1.008.062.078.063.078 1.258-1.008zm-7.161-.882-.04-.092c-.148.064-.29.129-.436.184l.035.094.036.093c.151-.057.3-.125.444-.187zm-.44.186-.036-.094a.3.3 0 0 0-.062.03.16.16 0 0 0-.06.068c-.028.065 0 .129.018.166l.09-.044.09-.044-.01-.023v-.001.008l-.005.019c-.006.014-.015.02-.014.019l.007-.004.017-.007zm-.05.126-.09.044c.255.517.503 1.037.756 1.558l.09-.044.09-.043q-.376-.78-.757-1.56zm.755 1.558-.096.026a.3.3 0 0 0 .112.166l.06-.08.06-.08a.1.1 0 0 1-.039-.058zm.076.112.1.004c.008-.192-.033-.608-.088-1.01-.054-.4-.125-.807-.18-.978l-.096.031-.095.031c.049.151.118.54.173.944s.094.802.086.973zm-.264-1.953.095-.03c-.01-.035-.038-.096-.109-.109a.14.14 0 0 0-.068.005l-.034.013.039.092.039.092.01-.004.005-.002-.007.002-.02-.001a.08.08 0 0 1-.042-.024q-.008-.013-.003-.003zm.997 1.23-.086.05q.1.17.21.33l.083-.057.082-.057a5 5 0 0 1-.203-.317zm.207.323-.08.06.232.308.08-.06.08-.06-.232-.308zm.232.308-.078.063c-.003-.003-.004-.006.004.008.005.008.015.028.031.045a.13.13 0 0 0 .101.043.15.15 0 0 0 .1-.048l-.071-.071-.071-.07c-.006.005.005-.01.032-.01a.07.07 0 0 1 .055.02q.007.006-.002-.005l-.008-.015-.016-.024zm.087.04.07.07c.18-.181.359-.368.547-.56l-.072-.07-.071-.07c-.19.194-.367.378-.546.56zm.545-.56.02-.098-1.14-.233-.02.098-.02.098 1.14.233zm-1.14-.233-.087.049.069.122.087-.05.087-.048-.068-.122zm4.118.538-.091-.042c-.01.02-.035.08 0 .136a.13.13 0 0 0 .059.05.2.2 0 0 0 .045.014l.02-.098.018-.099q-.01-.002-.002 0c.004.002.02.01.03.029.013.02.013.039.012.048q-.003.012 0 .004zm.032.06-.017.098c.114.02.227.043.352.068l.02-.098.02-.098c-.124-.024-.24-.049-.358-.069zm.355.068.099-.015c-.038-.248-.068-.488-.106-.762l-.099.013-.099.014c.037.271.068.515.106.765zm-.106-.764-.091-.04-.282.635.092.041.091.04.282-.635zm.644-1.267.067-.075a.3.3 0 0 0-.057-.04.13.13 0 0 0-.097-.008.14.14 0 0 0-.071.054.3.3 0 0 0-.028.051l.092.04.092.04q.008-.018.008-.016l-.008.008a.1.1 0 0 1-.026.014.07.07 0 0 1-.049-.002l.01.008zm-.094.022-.092-.04q-.168.389-.341.775l.091.04.092.041q.173-.386.342-.776zm-.342.775-.089-.045a.3.3 0 0 0-.025.075l.099.018.098.018.006-.02zm-.015.048-.1-.002-.001.05.1.002.1.002v-.05zm-.001.05-.1.014.149 1.062.1-.013.098-.014-.148-1.063zm.148 1.063.063.077c.417-.335.823-.662 1.229-.985l-.062-.079-.063-.078c-.406.324-.812.65-1.23.987zm1.23-.987.063.078a.3.3 0 0 0 .038-.037.14.14 0 0 0 .033-.072c.01-.068-.037-.116-.06-.138l-.069.074-.068.073q.01.01.005.004a.06.06 0 0 1-.006-.04.1.1 0 0 1 .01-.028l-.01.009zm.005-.095.068-.074q-.468-.432-.93-.875l-.07.073-.068.072q.464.443.932.877zm-4.303-3.286.022-.097a.22.22 0 0 0-.135.003.2.2 0 0 0-.102.117l.094.036.093.036q.007-.017.007-.014l-.005.004-.01.006-.01.003h.008l.015.004zm-.121.059-.093-.038a76 76 0 0 1-.389.92l.092.039.092.04q.198-.462.39-.923zm-.39.92-.091-.04a.35.35 0 0 0-.028.19l.1-.013.098-.014a.14.14 0 0 1 .012-.08zm-.02.137-.099.012q.102.82.197 1.639l.1-.012.099-.011q-.096-.82-.197-1.64zm.198 1.64-.1.008a.3.3 0 0 0 .091.187l.068-.074.068-.073a.1.1 0 0 1-.028-.057zm.06.121-.07.073q.61.572 1.22 1.146l.068-.073.069-.073-1.22-1.146zm1.218 1.146-.07.07a.3.3 0 0 0 .077.06l.048-.088.047-.088a.1.1 0 0 1-.031-.025zm.055.042-.028.096.066.019.027-.096.027-.097-.065-.018zm.065.019-.02.098q.521.1 1.038.212l.021-.098.021-.097a55 55 0 0 0-1.04-.214zm1.04.212-.022.098a.2.2 0 0 0 .147-.019.2.2 0 0 0 .076-.098l-.091-.041-.092-.041-.009.018.008-.006.016-.007-.013-.001zm.11-.06.091.04q.207-.47.42-.94l-.091-.042-.092-.04q-.212.47-.42.942zm.42-.942.09.042a.35.35 0 0 0 .028-.204l-.099.017-.099.016q.008.046-.012.088zm.019-.145.099-.014-.1-.717-.1-.718-.1.014-.098.014.1.717.1.718zm-.2-1.435.099-.013L19 10.71l-.1.013-.099.012q.011.09.024.181zm-.024-.18.071-.07-.044-.044-.07.07-.071.071.044.044zm-.044-.043.069-.073-1.306-1.23-.068.073-.069.073 1.306 1.23zm-1.305-1.23.07-.07a.3.3 0 0 0-.154-.083l-.02.098-.02.097q.031.008.053.029zm-.104-.055.02-.099a48 48 0 0 1-.976-.204l-.021.097-.022.098q.49.107.98.206zm-5.05 3.038-.037-.094a.14.14 0 0 0-.093.1c-.01.04.002.08.005.092l.097-.025.097-.025-.002-.01v-.002.004l-.002.013a.1.1 0 0 1-.019.032q-.012.01-.01.008zm-.028.073-.096.026q.058.225.117.451l.096-.025.097-.025q-.056-.225-.117-.453zm.117.452-.097.025.131.504.097-.025.097-.025-.13-.504zm.131.504v.1h.019v-.2h-.019zm.019 0 .098.018.218-1.22-.098-.017-.099-.017-.218 1.218zm.217-1.219-.038-.092-.457.19.039.092.038.092.457-.19zm-3.153-.254-.019-.098a.18.18 0 0 0-.115.07.2.2 0 0 0-.034.102l.1.01.1.01q0-.011.002-.014l-.004.007-.013.011q-.005.003.002 0zm-.068.084-.1-.01-.146 1.354.1.01.099.012.146-1.355zm-.147 1.355.038.092c.271-.11.5-.224.746-.31l-.033-.095-.033-.094c-.251.088-.503.21-.756.314zm.751-.313.035.094c.252-.092.475-.25.647-.455l-.077-.064-.077-.065c-.15.18-.343.316-.562.396zm.605-.425.074.066c.332-.37.67-.724 1.014-1.1l-.074-.067-.073-.068c-.34.37-.684.731-1.016 1.102zm1.014-1.101.006-.1h-.065l.006.1.006.1h.042zm-.053 0-.019-.098-2.102.4.02.098.018.098 2.101-.4zm4.458 1.377-.1.011a.16.16 0 0 0 .139.143l.02-.097.019-.099c-.01-.002-.003-.002.006.007a.1.1 0 0 1 .012.016l.003.007zm.058.057-.02.097q.332.07.665.137l.02-.098.02-.098q-.333-.067-.664-.136zm.664.136.085.054.012-.019-.085-.053-.084-.054-.012.019zm.012-.018.069-.073-.802-.758-.069.073-.068.073.801.757zm-.802-.758-.099.012.067.582.1-.011.1-.011-.068-.584zm-1.328.347-.02.098 1.153.235.02-.098.02-.098-1.153-.236zm1.153.235.099-.012c-.033-.274-.065-.533-.095-.793l-.1.012-.099.011c.03.26.063.521.095.794zm-.095-.793.099-.016a.23.23 0 0 0-.088-.147l-.061.08-.06.08a.03.03 0 0 1 .011.019zm-.05-.083.068-.073-.524-.495-.068.073-.069.072c.183.173.353.335.525.496zm-.524-.495-.092-.04-.484 1.136.092.04.092.039.484-1.136zm-4.243 1.127-.058.081a.14.14 0 0 0 .066.028l.013-.1.012-.099.018.005.008.003zm.021.01.038.092.932-.383-.038-.092-.038-.093-.932.383zm.932-.383.038.092a.16.16 0 0 0 .073-.056.14.14 0 0 0 .018-.116l-.097.025-.097.025v-.014a.1.1 0 0 1 .011-.033.1.1 0 0 1 .016-.016q.004-.002 0 0zm.032-.055.096-.026-.13-.493-.096.026-.097.025.13.494zm-.13-.493-.073-.068-.855.92.073.069.074.068.854-.921zm2.387-.085-.02-.098-.032.007a.2.2 0 0 0-.052.027.13.13 0 0 0-.045.074.15.15 0 0 0 .005.076l.096-.03.095-.029c0-.001.003.008 0 .023a.07.07 0 0 1-.025.042l-.015.009.012-.003zm-.048.056-.096.03q.136.45.338.877l.09-.043.091-.043a6 6 0 0 1-.328-.85zm.333.864.092.04.46-1.073-.091-.04-.092-.039-.461 1.072zm.46-1.072-.02-.099-.745.153.02.098.02.098.746-.152zm-6.435.95.072.069q.092-.097.189-.187l-.068-.073-.069-.073a5 5 0 0 0-.196.194zm.193-.19.068.072a8.6 8.6 0 0 1 1.065-.85l-.056-.083-.056-.083a9 9 0 0 0-1.09.87zm1.077-.861.01-.1-4.878-.49-.01.099-.01.1 4.878.49zM5.05 10.97l-.04.092 3.609 1.542.04-.092.038-.092-3.608-1.542zm15.62.275-.02-.098-.695.148.02.098.021.097.696-.147zm-.694.148-.069.072.99.931.068-.073.068-.073-.989-.93zm.989.93.065.076a.15.15 0 0 0 .05-.107v-.031l-.002-.006h-.2l.001.017.001.01v.005l.005-.02a.1.1 0 0 1 .014-.02zm.014-.068.1-.002a5 5 0 0 0-.06-.668l-.098.016-.099.015q.049.318.056.641zm-.058-.654.098-.018-.039-.219-.098.018-.099.017.04.22zm-.04-.22.099-.02c-.009-.04-.016-.079-.026-.109a.18.18 0 0 0-.07-.1.2.2 0 0 0-.12-.025q-.049.006-.113.02l.02.098.02.098a1 1 0 0 1 .091-.016c.02-.002.008.003-.008-.008s-.016-.023-.01-.005a1 1 0 0 1 .02.088zm-8.688.17-.07-.07a.2.2 0 0 0-.05.091l.099.02.098.019-.006.011zm-.021.04-.098-.019a.2.2 0 0 0 .01.104l.093-.038.092-.039v.012zm.005.047-.097.025.13.514.097-.025.097-.024-.13-.515zm.13.514-.098.023q.004.017.013.041a.14.14 0 0 0 .043.058c.056.043.12.022.15.009l-.04-.092-.04-.091c-.007.003-.004 0 .005 0a.07.07 0 0 1 .066.04l-.002-.01zm.068.04.039.091.489-.204-.039-.093-.038-.092-.49.205zm.49-.206.028.096a.2.2 0 0 0 .087-.057l-.077-.064-.077-.064.01-.007zm.038-.025.077.063a.2.2 0 0 0 .04-.096l-.1-.01-.099-.01.005-.01zm.018-.043.098.017q.124-.691.25-1.384l-.1-.018-.098-.018-.249 1.386zm.249-1.385.055-.083-.02-.014-.056.084-.055.083.02.013zm-.02-.014-.074-.067-.956 1.032.073.068.074.068.956-1.033zm6.165 1.477.092.041.261-.583-.09-.04-.092-.042-.262.583zm.262-.583.091.041c.001-.002.017-.032.02-.063a.13.13 0 0 0-.01-.064.14.14 0 0 0-.038-.051l-.067.075-.066.074a.1.1 0 0 1-.013-.019.1.1 0 0 1-.006-.033q.002-.012.003-.011l-.005.01zm-.004-.062.068-.074-.398-.372-.068.073-.068.074.398.372zm-.398-.373-.1.014c.049.346.093.67.141 1.018l.1-.014.099-.014-.141-1.017zm-6.023.885.04.092c.209-.088.388-.169.574-.24l-.037-.094-.036-.093c-.188.073-.376.157-.58.243zm.578-.242.036.093a.2.2 0 0 0 .114-.1.2.2 0 0 0 0-.137l-.096.027-.096.026.004.021.003-.013.007-.012.005-.005-.014.007zm.054-.117.096-.028q-.051-.18-.107-.362l-.095.03-.096.03q.055.178.106.357zm-.106-.36.095-.032-.12-.357-.094.031-.095.032.119.357zm-.12-.358.096-.03a1.7 1.7 0 0 0-.162-.361l-.086.05-.086.051q.09.152.143.32zm-.152-.34-.098-.018c-.088.485-.169.94-.254 1.418l.098.017.099.018c.085-.478.166-.933.254-1.418zm2.068.856-.083-.057a.2.2 0 0 0-.026.063l.098.02.098.019-.002.006-.003.005zm-.011.025-.098-.02a.2.2 0 0 0 0 .066l.098-.02.098-.018v.012zm0 .027-.098.019a.2.2 0 0 0 .026.062l.083-.056.082-.056.003.005.002.006zm.01.025-.082.056a.2.2 0 0 0 .047.046l.055-.084.055-.083.008.009zm.02.018-.067.074c.122.112.244.226.38.355l.069-.072.069-.073c-.137-.13-.26-.245-.384-.357zm.382.357.1-.012-.133-1.083-.099.012-.1.012.133 1.083zm-.132-1.083-.092-.04c-.099.232-.182.432-.269.63l.092.04.091.04c.088-.199.172-.402.27-.63zm-4.107.092-.041-.091q-.468.21-.916.463l.05.087.049.087q.438-.248.899-.455zm-.907.459-.05-.087-.286.164.05.087.05.086.285-.164zm-.286.164-.051-.086-.13.082.053.085.053.085c.045-.03.084-.055.127-.08zm-.128.08-.1-.008-.003.033.1.009.1.009.002-.033zm-.003.034.01-.1-.042-.004-.011.1-.012.098.043.005zm-.043-.005-.054-.085-.316.2.054.085.054.085.315-.2zm-.316.2-.093.037.01.02.002.004-.004-.009a.1.1 0 0 1-.005-.03h.2a.1.1 0 0 0-.018-.062l-.002-.004-.001-.002v.002l.004.007zm.01.022.019.098q.922-.177 1.843-.35l-.018-.098-.019-.098q-.922.174-1.844.35zm1.844-.35.018.098c.026-.005.082-.016.116-.065.037-.052.024-.111.016-.143l-.097.027-.096.027.002.007a.06.06 0 0 1 .011-.033.1.1 0 0 1 .022-.019l-.011.003zm.053-.083.097-.027a7 7 0 0 1-.118-.466l-.098.02-.098.02q.053.245.121.48zm-.119-.473.098-.02c-.008-.038-.027-.112-.1-.138a.15.15 0 0 0-.087-.002.3.3 0 0 0-.057.02l.04.092.042.09.022-.008c.002 0-.01.003-.027-.003a.1.1 0 0 1-.023-.014l-.01-.011q0-.003 0 0l.004.015zm2.35-.417-.1.002q.008.406.08.808l.098-.018.098-.017a5 5 0 0 1-.076-.778zm.078.793-.099.017.05.27.098-.018.098-.018-.049-.27zm.049.269-.098.02c.006.031.023.088.083.113a.14.14 0 0 0 .065.01q.024-.002.04-.006l-.022-.098-.02-.098-.013.003q.003-.002.027.005a.07.07 0 0 1 .033.028q.005.012.003.003zm.068.04.02.097c.257-.054.515-.106.788-.162l-.02-.098-.02-.098c-.273.056-.532.108-.789.162zm.788-.163.07-.072-.984-.94-.07.073-.068.072.983.94zm-2.012-1.043-.017-.099c-.397.066-.762.207-1.116.343l.036.093.036.093c.356-.137.703-.27 1.077-.331zm-1.097.337-.037-.093a.2.2 0 0 0-.064.043.14.14 0 0 0-.035.076.2.2 0 0 0 .005.056l.007.028.097-.026.096-.026-.004-.014q0-.006-.002-.007v.011a.07.07 0 0 1-.016.036q-.014.012-.01.009zm-.027.084-.097.025c.035.137.07.286.11.425l.096-.028.096-.028c-.04-.135-.072-.275-.109-.419zm.109.422-.1.01q.014.121.075.226l.086-.05.086-.052a.4.4 0 0 1-.048-.145zm.061.185.074.068.953-1.028-.073-.068-.074-.068-.953 1.028zm2.106-1.129-.069.073 1.045.987.069-.072.069-.073-1.045-.987zm1.045.988.092.038c.136-.326.272-.64.409-.955l-.092-.04-.092-.04c-.136.315-.273.63-.41.958zm.409-.957.092.039a.24.24 0 0 0 .018-.118l-.1.01-.099.011q0 .008-.003.018zm.01-.069.1-.011c-.04-.34-.083-.679-.127-1.04l-.1.011-.098.012c.044.363.086.701.126 1.04zm-.126-1.04-.063-.078-1.338 1.079.063.077.063.078 1.338-1.078zm4.403 2.05.02.098c.272-.056.52-.108.769-.157l-.02-.098-.019-.098-.77.157zm.77-.157.022.097c.03-.007.084-.022.114-.075.03-.051.015-.106.007-.13l-.095.028-.096.028.002.007q-.002-.009.008-.031a.1.1 0 0 1 .022-.023q.006-.002-.007.001zm.047-.08.096-.029a6.4 6.4 0 0 0-.335-.88l-.09.042-.091.042q.193.415.325.853zm-.33-.867-.091-.04-.487 1.104.091.04.092.04.487-1.104zm-1.323.502-.1.012q.006.038.024.072l.088-.047.088-.047v-.003zm.012.037-.078.063.024.03.078-.063.078-.063-.024-.03zm.024.03-.068.073q.252.233.497.468l.07-.072.069-.072q-.248-.239-.5-.47zm.498.469-.07.071q.021.023.056.04a.124.124 0 0 0 .16-.048l.022-.04-.091-.04-.092-.041q-.006.014-.006.011l.008-.008a.077.077 0 0 1 .084-.015c.007.004.007.006 0-.002zm.077-.018.091.04.488-1.1-.091-.041-.092-.041-.488 1.102zm.488-1.101.02-.098-1.213-.257-.021.098-.02.098 1.213.256zm-1.214-.257-.1.013q.061.432.116.84l.1-.013.098-.014-.115-.84zm-.16.617.099-.014c-.032-.227-.06-.427-.087-.631l-.1.013-.098.013c.027.206.055.406.087.633zm-.087-.632.1-.005a.15.15 0 0 0-.04-.095l-.073.069-.072.069a.05.05 0 0 1-.015-.033zm-.013-.031.072-.07a.15.15 0 0 0-.095-.044l-.008.1-.009.099a.05.05 0 0 1-.032-.016zm-.031-.015.02-.098-.756-.159-.02.098-.021.098.756.159zm-.757-.159-.069.073.888.837.069-.073.068-.073-.887-.837zm-3.555-.74-.086-.05-.022.038.087.05.086.05.022-.037zm-.021.038-.093-.038c-.16.389-.257.802-.284 1.223l.1.006.1.007c.025-.399.116-.79.27-1.16zm-.278 1.191.063.078 1.272-1.025-.063-.078-.063-.078-1.271 1.025zm1.272-1.025.07-.07c-.002-.003.002 0-.006-.01l-.02-.017a.1.1 0 0 0-.062-.02v.2a.1.1 0 0 1-.065-.026l-.003-.003.001.001.003.004.011.011zm-.019-.018.021-.097c-.303-.066-.604-.127-.905-.196l-.022.098-.022.098c.303.068.606.13.908.195zm-.906-.195.024-.097a.2.2 0 0 0-.077-.001.14.14 0 0 0-.068.04l.073.068.074.068a.1.1 0 0 1-.032.018c-.012.003-.019 0-.017.001zm5.246.197-.068-.073-.592.552.069.073.068.073.591-.552zm-.591.552-.021.098 1.183.249.02-.098.02-.098-1.182-.249zm1.182.249.087-.049a6.4 6.4 0 0 0-.526-.798l-.08.06-.079.062q.285.368.51.774zm-.518-.786.078-.062c-.009-.011-.035-.047-.08-.062-.06-.02-.11.009-.139.036l.068.073.069.073q.002 0-.016.008a.07.07 0 0 1-.045 0q-.019-.008-.02-.011l.006.006zm-3.904.737.083.056q.101-.149.163-.319l-.094-.034-.094-.033q-.053.145-.14.274zm.152-.297.094.034a1 1 0 0 1 .03-.062l.044-.082a.4.4 0 0 0 .035-.101.17.17 0 0 0-.039-.137l-.075.066-.074.067c-.012-.013-.01-.027-.01-.024a.2.2 0 0 1-.016.04c-.011.024-.024.046-.04.075a1 1 0 0 0-.043.09zm.09-.282.074-.067c-.053-.06-.136-.078-.196-.087-.065-.01-.139-.012-.194-.014l-.005.1-.004.1c.063.003.121.004.173.012a.3.3 0 0 1 .06.013q.019.01.017.01zm-.32-.068-.1.012.079.647.1-.012.098-.012-.079-.647zM18.438 8l-.026-.097q-.545.146-1.092.287l.026.097.025.097q.546-.141 1.093-.287zm-1.092.287-.025-.097-.531.137.024.097.025.097.532-.137zm-.532.137-.068.073c.23.216.45.41.652.617l.072-.07.071-.07c-.207-.211-.434-.412-.658-.623zm.656.62-.072.07c.113.116.26.193.42.219l.016-.099.016-.098a.56.56 0 0 1-.308-.162zm.364.19-.018.099c.291.052.578.118.88.182l.02-.098.02-.098c-.295-.062-.59-.13-.884-.183zm.882.183.1-.01-.009-.082-.099.009-.1.01.008.082zm-.008-.083.1-.014q-.091-.633-.174-1.264l-.099.012-.1.013c.055.423.116.845.174 1.267zm-.173-1.266.1-.012a.3.3 0 0 0-.015-.067.15.15 0 0 0-.055-.073.14.14 0 0 0-.088-.024.3.3 0 0 0-.065.011L18.44 8l.026.097.016-.004h.005c-.001 0-.016 0-.033-.012a.1.1 0 0 1-.016-.016l-.004-.008.001.006.003.018zm.42 1.258.068.074.517-.478-.068-.073-.068-.074-.517.478zm.517-.477.068.073.056-.054a.3.3 0 0 0 .045-.06.15.15 0 0 0 .014-.098.2.2 0 0 0-.035-.075l-.081.06-.08.058c.006.01.002.007 0-.003v-.02l.004-.013q.003-.005-.011.012l-.048.046zm.067-.155.075-.065-.06-.069-.075.066-.075.066.06.068zm-.06-.068.074-.068a5 5 0 0 0-.723-.65l-.06.081-.059.08q.378.28.695.625zm-.709-.637-.099.014.185 1.337.1-.014.098-.014-.184-1.336zm-2.269.902-.094-.035-.001.003-.006.012c-.003.008-.012.028-.014.054a.12.12 0 0 0 .039.096.16.16 0 0 0 .075.036l.02-.098.021-.098c-.007-.001.005 0 .02.013a.08.08 0 0 1 .025.063c0 .013-.005.02-.003.014l.005-.009.007-.016zm.02.068-.02.098.658.135.02-.098.02-.098-.659-.135zm.658.135.068-.073-.547-.512-.068.073-.069.073.547.512zm-.547-.512-.092-.039c-.047.11-.09.21-.131.31l.092.038.092.038.13-.308zm-1.001-.908-.1.012q.066.534.128 1.069l.1-.012.1-.011q-.064-.536-.129-1.07zm.128 1.07-.1-.003q0 .068.045.116l.072-.069.073-.069q.01.01.01.026zm.017.044-.072.07q.045.045.112.05l.003-.1.004-.1q.016.001.026.01zm.043.02-.02.098c.124.025.244.047.362.077l.024-.097.025-.097c-.124-.031-.25-.055-.371-.08zm.366.078-.022.097a.17.17 0 0 0 .134-.018.2.2 0 0 0 .07-.093l-.094-.037-.092-.037-.004.009-.002.002q0-.002.013-.011a.1.1 0 0 1 .023-.009h-.003zm.088-.051.093.037c.05-.121.098-.24.154-.355l-.09-.043-.09-.044a6 6 0 0 0-.16.367zm.157-.361.086.05a.19.19 0 0 0 .02-.14l-.097.024-.097.025a.01.01 0 0 1 .002-.01zm.01-.066.096-.024a.19.19 0 0 0-.085-.114l-.052.085-.051.086-.006-.008zm-.04-.053.067-.073c-.162-.15-.32-.302-.484-.455l-.068.073-.068.073c.16.15.322.306.484.456zm-.485-.455.068-.073-.27-.252-.069.073-.068.074.27.252zm-.27-.252-.088-.048-.008.012q-.002.005-.008.017a.1.1 0 0 0-.01.045h.2a.1.1 0 0 1-.01.043h-.001l.012-.02zm-.335-.011-.056-.083a2.6 2.6 0 0 0-.717.737l.084.055.084.054c.174-.268.399-.5.662-.68zm-.689.709-.085-.053-.076.122.085.053.085.053.076-.122zm-.076.122-.087-.05a.2.2 0 0 0-.025.06.13.13 0 0 0 .015.095c.019.032.048.047.065.054a.3.3 0 0 0 .05.014l.02-.098.02-.098-.015-.003s.018.006.03.027a.07.07 0 0 1 .01.053c0 .006-.002.005.004-.005zm.038.075-.02.098c.175.034.345.073.522.11l.02-.098.021-.098c-.172-.036-.348-.076-.524-.11zm.522.11-.02.098.41.086.02-.098.021-.098-.41-.086zm.41.086.1-.012-.137-1.111-.1.012-.098.012.136 1.111zm-.136-1.111.096-.027c-.002-.008-.007-.028-.016-.044a.1.1 0 0 0-.033-.041.1.1 0 0 0-.08-.021.1.1 0 0 0-.048.018l-.023.018-.037.036.072.07.073.07.025-.027q.004-.002-.002.002c-.003.001-.015.009-.033.011a.1.1 0 0 1-.068-.018.1.1 0 0 1-.024-.028l-.002-.004.004.011zm1.872-.343.02-.098a.17.17 0 0 0-.136.024c-.038.028-.055.07-.062.087l.092.039.092.04.007-.016q0 .001-.01.01a.1.1 0 0 1-.025.01q-.01 0 .001.002zm-.086.052-.092-.039c-.11.264-.225.526-.337.79l.092.04.092.039c.112-.263.227-.528.337-.791zm-.337.79-.091-.04v.002l-.005.007a.142.142 0 0 0 .009.15l.083-.056.084-.055.006.017a.1.1 0 0 1 0 .026l-.003.007.003-.005.005-.011zm-.004.063.026.097 1.617-.424-.026-.096-.025-.097-1.617.424zm1.617-.423.053-.085c-.376-.234-.79-.4-1.222-.495l-.021.098-.021.098c.41.09.802.247 1.159.469zm-1.488-.526.011-.1a2.6 2.6 0 0 0-1.043.095l.028.096.029.096c.312-.094.64-.123.964-.087zm-1.004.091-.032-.095-.137.047.032.095.033.095.137-.047zm-.136.047-.013-.1a1 1 0 0 0-.08.017.1.1 0 0 0-.043.03.1.1 0 0 0-.029.071c0 .023.006.04.01.05.008.017.02.034.025.041l.082-.057.081-.058-.006-.01.002.004a.1.1 0 0 1 .006.035.1.1 0 0 1-.024.06.1.1 0 0 1-.029.02l-.004.001.034-.005zm-.048.052-.07.072q.367.345.73.69l.07-.072.068-.072q-.364-.347-.73-.691zm.73.69-.07.073a.3.3 0 0 0 .045.036.14.14 0 0 0 .085.024.13.13 0 0 0 .092-.05.2.2 0 0 0 .035-.065l-.094-.035-.094-.034q-.008.018-.003.01a.1.1 0 0 1 .017-.015.08.08 0 0 1 .062-.007l.006.003.002.001-.004-.003-.011-.01zm.093-.017.094.035c.039-.107.086-.207.134-.32l-.092-.039-.093-.039c-.043.104-.096.216-.137.33zm.136-.324.092.04.23-.54-.093-.039-.092-.039-.23.539z"/></svg>